Georama-Black.ufo
<glyph name="exclam" format="2">
  <advance width="276.0"/>
  <unicode hex="0021"/>
  <outline>
    <contour>
      <point x="43.0" y="259.0" type="line"/>
      <point x="234.6" y="259.0" type="line"/>
      <point x="252.20000000000002" y="740.0" type="line"/>
      <point x="27.200000000000003" y="740.0" type="line"/>
    </contour>
    <contour>
      <point x="17.0" y="105.4" type="curve" smooth="yes"/>
      <point x="17.0" y="28.6"/>
      <point x="51.8" y="-10.4"/>
      <point x="138.0" y="-10.4" type="curve" smooth="yes"/>
      <point x="224.2" y="-10.4"/>
      <point x="259.0" y="28.6"/>
      <point x="259.0" y="105.4" type="curve" smooth="yes"/>
      <point x="259.0" y="183.2"/>
      <point x="224.2" y="222.2"/>
      <point x="138.0" y="222.2" type="curve" smooth="yes"/>
      <point x="51.8" y="222.2"/>
      <point x="17.0" y="183.2"/>
    </contour>
  </outline>
</glyph>
<glyph name="numbersign" format="2">
  <advance width="672.0"/>
  <unicode hex="0023"/>
  <outline>
    <contour>
      <point x="63.60000000000001" y="400.6" type="line"/>
      <point x="119.39999999999999" y="400.6" type="line"/>
      <point x="105.39999999999998" y="295.8" type="line"/>
      <point x="47.19999999999999" y="295.8" type="line"/>
      <point x="47.19999999999999" y="135.60000000000002" type="line"/>
      <point x="85.40000000000002" y="135.60000000000002" type="line"/>
      <point x="69.60000000000001" y="0.0" type="line"/>
      <point x="268.59999999999997" y="0.0" type="line"/>
      <point x="284.40000000000003" y="135.60000000000002" type="line"/>
      <point x="335.0" y="135.60000000000002" type="line"/>
      <point x="319.2" y="0.0" type="line"/>
      <point x="518.1999999999999" y="0.0" type="line"/>
      <point x="534.0" y="135.60000000000002" type="line"/>
      <point x="608.8" y="135.60000000000002" type="line"/>
      <point x="608.8" y="295.8" type="line"/>
      <point x="554.0" y="295.8" type="line"/>
      <point x="568.0" y="400.6" type="line"/>
      <point x="625.2" y="400.6" type="line"/>
      <point x="625.2" y="561.2" type="line"/>
      <point x="587.5999999999999" y="561.2" type="line"/>
      <point x="603.6" y="700.0" type="line"/>
      <point x="404.59999999999997" y="700.0" type="line"/>
      <point x="388.6" y="561.2" type="line"/>
      <point x="338.0" y="561.2" type="line"/>
      <point x="354.0" y="700.0" type="line"/>
      <point x="155.0" y="700.0" type="line"/>
      <point x="139.0" y="561.2" type="line"/>
      <point x="63.60000000000001" y="561.2" type="line"/>
    </contour>
    <contour>
      <point x="318.4" y="400.6" type="line"/>
      <point x="369.0" y="400.6" type="line"/>
      <point x="355.00000000000006" y="295.8" type="line"/>
      <point x="304.4" y="295.8" type="line"/>
    </contour>
  </outline>
</glyph>
<glyph name="dollar" format="2">
  <advance width="672.0"/>
  <unicode hex="0024"/>
  <outline>
    <contour>
      <point x="293.6" y="-10.0" type="curve" smooth="yes"/>
      <point x="485.6" y="-14.4"/>
      <point x="641.0000000000001" y="43.2"/>
      <point x="641.0000000000001" y="217.6" type="curve" smooth="yes"/>
      <point x="641.0000000000001" y="345.4"/>
      <point x="557.8000000000001" y="403.2"/>
      <point x="431.8" y="433.4" type="curve" smooth="yes"/>
      <point x="323.8" y="456.20000000000005"/>
      <point x="281.8" y="462.4"/>
      <point x="281.8" y="496.40000000000003" type="curve" smooth="yes"/>
      <point x="281.8" y="520.2"/>
      <point x="301.0" y="527.2"/>
      <point x="359.6" y="527.2" type="curve" smooth="yes"/>
      <point x="432.20000000000005" y="527.2"/>
      <point x="513.4" y="515.8"/>
      <point x="569.2" y="497.0" type="curve"/>
      <point x="608.0000000000001" y="672.4" type="line"/>
      <point x="544.0" y="693.6"/>
      <point x="450.2" y="710.0"/>
      <point x="353.80000000000007" y="710.0" type="curve" smooth="yes"/>
      <point x="166.60000000000002" y="710.0"/>
      <point x="47.599999999999994" y="638.4"/>
      <point x="47.599999999999994" y="484.0" type="curve" smooth="yes"/>
      <point x="47.599999999999994" y="369.0"/>
      <point x="115.00000000000003" y="307.4"/>
      <point x="210.4" y="275.2" type="curve" smooth="yes"/>
      <point x="339.2" y="239.39999999999998"/>
      <point x="406.0000000000001" y="236.00000000000003"/>
      <point x="406.0000000000001" y="201.0" type="curve" smooth="yes"/>
      <point x="406.0000000000001" y="177.4"/>
      <point x="383.0" y="166.8"/>
      <point x="325.6" y="166.8" type="curve" smooth="yes"/>
      <point x="249.59999999999997" y="166.8"/>
      <point x="159.2" y="182.8"/>
      <point x="71.2" y="212.6" type="curve"/>
      <point x="31.400000000000002" y="38.6" type="line"/>
      <point x="103.2" y="11.400000000000002"/>
      <point x="200.8" y="-8.0"/>
    </contour>
    <contour>
      <point x="253.4" y="-105.0" type="line"/>
      <point x="430.4" y="-105.0" type="line"/>
      <point x="430.4" y="19.200000000000003" type="line"/>
      <point x="253.4" y="10.0" type="line"/>
    </contour>
    <contour>
      <point x="253.4" y="680.1999999999999" type="line"/>
      <point x="430.4" y="690.2" type="line"/>
      <point x="430.4" y="803.8" type="line"/>
      <point x="253.4" y="803.8" type="line"/>
    </contour>
  </outline>
</glyph>
<glyph name="ampersand" format="2">
  <advance width="764.6"/>
  <unicode hex="0026"/>
  <outline>
    <contour>
      <point x="502.79999999999995" y="0.0" type="line"/>
      <point x="762.2" y="0.0" type="line"/>
      <point x="388.0" y="436.2" type="line" smooth="yes"/>
      <point x="353.40000000000003" y="473.59999999999997"/>
      <point x="343.2" y="491.2"/>
      <point x="343.2" y="508.4" type="curve" smooth="yes"/>
      <point x="343.2" y="529.5999999999999"/>
      <point x="356.0" y="539.4"/>
      <point x="380.0" y="539.4" type="curve" smooth="yes"/>
      <point x="403.59999999999997" y="539.4"/>
      <point x="414.6" y="527.1999999999999"/>
      <point x="414.6" y="503.20000000000005" type="curve" smooth="yes"/>
      <point x="414.6" y="486.79999999999995"/>
      <point x="410.4" y="476.2"/>
      <point x="397.20000000000005" y="466.8" type="curve"/>
      <point x="482.0" y="368.20000000000005" type="line"/>
      <point x="574.8000000000001" y="398.40000000000003"/>
      <point x="615.8" y="453.8"/>
      <point x="615.8" y="536.2" type="curve" smooth="yes"/>
      <point x="615.8" y="652.4"/>
      <point x="529.0" y="710.0"/>
      <point x="373.6" y="710.0" type="curve" smooth="yes"/>
      <point x="189.6" y="710.0"/>
      <point x="112.80000000000001" y="632.4"/>
      <point x="112.80000000000001" y="512.2" type="curve" smooth="yes"/>
      <point x="112.80000000000001" y="455.40000000000003"/>
      <point x="132.79999999999998" y="402.6"/>
      <point x="180.6" y="350.2" type="curve" smooth="yes"/>
    </contour>
    <contour>
      <point x="295.59999999999997" y="-10.0" type="curve" smooth="yes"/>
      <point x="392.2" y="-10.0"/>
      <point x="451.00000000000006" y="12.8"/>
      <point x="498.19999999999993" y="51.199999999999996" type="curve"/>
      <point x="393.8" y="171.4" type="line"/>
      <point x="382.6" y="161.6"/>
      <point x="366.0" y="153.8"/>
      <point x="330.0" y="153.8" type="curve" smooth="yes"/>
      <point x="273.4" y="153.8"/>
      <point x="233.0" y="184.4"/>
      <point x="233.0" y="224.2" type="curve" smooth="yes"/>
      <point x="233.0" y="252.6"/>
      <point x="246.8" y="267.20000000000005"/>
      <point x="272.20000000000005" y="278.8" type="curve"/>
      <point x="172.6" y="399.4" type="line"/>
      <point x="66.0" y="357.8"/>
      <point x="22.8" y="289.4"/>
      <point x="22.8" y="202.4" type="curve" smooth="yes"/>
      <point x="22.8" y="69.60000000000001"/>
      <point x="123.4" y="-10.0"/>
    </contour>
    <contour>
      <point x="627.8" y="125.0" type="line"/>
      <point x="675.4000000000001" y="178.39999999999998"/>
      <point x="703.6" y="238.6"/>
      <point x="703.6" y="305.6" type="curve" smooth="yes"/>
      <point x="703.6" y="326.6"/>
      <point x="702.6" y="341.2"/>
      <point x="701.0" y="358.0" type="curve"/>
      <point x="525.2" y="358.0" type="line"/>
      <point x="525.8" y="347.0"/>
      <point x="526.0" y="334.8"/>
      <point x="524.4" y="322.2" type="curve" smooth="yes"/>
      <point x="521.1999999999999" y="304.2"/>
      <point x="515.0" y="291.2"/>
      <point x="498.6" y="277.2" type="curve"/>
    </contour>
  </outline>
</glyph>
<glyph name="quotesingle" format="2">
  <advance width="242.20000000000002"/>
  <unicode hex="0027"/>
  <outline>
    <contour>
      <point x="29.200000000000003" y="427.0" type="line"/>
      <point x="211.2" y="427.0" type="line"/>
      <point x="220.6" y="700.0" type="line"/>
      <point x="21.6" y="700.0" type="line"/>
    </contour>
  </outline>
</glyph>
<glyph name="parenleft" format="2">
  <advance width="343.4"/>
  <unicode hex="0028"/>
  <outline>
    <contour>
      <point x="23.6" y="265.0" type="curve" smooth="yes"/>
      <point x="23.6" y="1.7763568394002505e-15"/>
      <point x="107.19999999999999" y="-197.0"/>
      <point x="323.4" y="-220.0" type="curve"/>
      <point x="323.4" y="-58.0" type="line"/>
      <point x="232.8" y="-21.599999999999998"/>
      <point x="204.4" y="46.8"/>
      <point x="204.4" y="265.0" type="curve" smooth="yes"/>
      <point x="204.4" y="483.2"/>
      <point x="232.8" y="551.6"/>
      <point x="323.4" y="588.0" type="curve"/>
      <point x="323.4" y="750.0" type="line"/>
      <point x="107.19999999999999" y="727.0"/>
      <point x="23.6" y="530.0"/>
    </contour>
  </outline>
</glyph>
<glyph name="parenright" format="2">
  <advance width="343.4"/>
  <unicode hex="0029"/>
  <outline>
    <contour>
      <point x="20.0" y="-58.0" type="curve"/>
      <point x="20.0" y="-220.0" type="line"/>
      <point x="236.20000000000002" y="-197.0"/>
      <point x="319.79999999999995" y="1.7763568394002505e-15"/>
      <point x="319.79999999999995" y="265.0" type="curve" smooth="yes"/>
      <point x="319.79999999999995" y="530.0"/>
      <point x="236.20000000000002" y="727.0"/>
      <point x="20.0" y="750.0" type="curve"/>
      <point x="20.0" y="588.0" type="line"/>
      <point x="110.60000000000001" y="551.6"/>
      <point x="139.0" y="483.2"/>
      <point x="139.0" y="265.0" type="curve" smooth="yes"/>
      <point x="139.0" y="46.8"/>
      <point x="110.60000000000001" y="-21.599999999999998"/>
    </contour>
  </outline>
</glyph>
<glyph name="asterisk" format="2">
  <advance width="404.0"/>
  <unicode hex="002A"/>
  <outline>
    <contour>
      <point x="130.2" y="369.59999999999997" type="line"/>
      <point x="202.0" y="445.4" type="line"/>
      <point x="273.8" y="369.6" type="line"/>
      <point x="351.4" y="423.59999999999997" type="line"/>
      <point x="301.40000000000003" y="515.6" type="line"/>
      <point x="394.79999999999995" y="561.4" type="line"/>
      <point x="365.4" y="650.8" type="line"/>
      <point x="262.8" y="633.2" type="line"/>
      <point x="250.20000000000002" y="736.0" type="line"/>
      <point x="153.8" y="736.0" type="line"/>
      <point x="141.20000000000002" y="633.2" type="line"/>
      <point x="38.6" y="650.8" type="line"/>
      <point x="9.2" y="561.4" type="line"/>
      <point x="102.60000000000001" y="515.6" type="line"/>
      <point x="52.60000000000001" y="423.59999999999997" type="line"/>
    </contour>
  </outline>
</glyph>
<glyph name="plus" format="2">
  <advance width="564.8"/>
  <unicode hex="002B"/>
  <outline>
    <contour>
      <point x="185.2" y="132.6" type="line"/>
      <point x="379.2" y="132.6" type="line"/>
      <point x="379.2" y="237.0" type="line"/>
      <point x="515.6" y="237.0" type="line"/>
      <point x="515.6" y="415.0" type="line"/>
      <point x="379.2" y="415.0" type="line"/>
      <point x="379.2" y="519.0" type="line"/>
      <point x="185.2" y="519.0" type="line"/>
      <point x="185.2" y="415.0" type="line"/>
      <point x="49.2" y="415.0" type="line"/>
      <point x="49.2" y="237.0" type="line"/>
      <point x="185.2" y="237.0" type="line"/>
    </contour>
  </outline>
</glyph>
<glyph name="comma" format="2">
  <advance width="276.0"/>
  <unicode hex="002C"/>
  <outline>
    <contour>
      <point x="33.4" y="111.0" type="line"/>
      <point x="37.8" y="77.6"/>
      <point x="38.2" y="48.0"/>
      <point x="38.2" y="31.400000000000002" type="curve" smooth="yes"/>
      <point x="38.2" y="-26.8"/>
      <point x="21.4" y="-91.6"/>
      <point x="-16.799999999999997" y="-155.4" type="curve"/>
      <point x="154.6" y="-186.20000000000002" type="line"/>
      <point x="218.6" y="-108.60000000000001"/>
      <point x="249.4" y="-46.2"/>
      <point x="249.4" y="31.599999999999998" type="curve" smooth="yes"/>
      <point x="249.4" y="65.0"/>
      <point x="244.20000000000002" y="91.0"/>
      <point x="238.0" y="112.0" type="curve"/>
    </contour>
  </outline>
</glyph>
<glyph name="hyphen" format="2">
  <advance width="382.2"/>
  <unicode hex="002D"/>
  <outline>
    <contour>
      <point x="39.8" y="234.0" type="line"/>
      <point x="342.40000000000003" y="234.0" type="line"/>
      <point x="342.40000000000003" y="421.6" type="line"/>
      <point x="39.8" y="421.6" type="line"/>
    </contour>
  </outline>
</glyph>
<glyph name="period" format="2">
  <advance width="282.4"/>
  <unicode hex="002E"/>
  <outline>
    <contour>
      <point x="20.200000000000003" y="107.2" type="curve" smooth="yes"/>
      <point x="20.200000000000003" y="30.4"/>
      <point x="55.0" y="-8.6"/>
      <point x="141.20000000000002" y="-8.6" type="curve" smooth="yes"/>
      <point x="227.39999999999998" y="-8.6"/>
      <point x="262.2" y="30.4"/>
      <point x="262.2" y="107.2" type="curve" smooth="yes"/>
      <point x="262.2" y="185.0"/>
      <point x="227.39999999999998" y="224.0"/>
      <point x="141.20000000000002" y="224.0" type="curve" smooth="yes"/>
      <point x="55.0" y="224.0"/>
      <point x="20.200000000000003" y="185.0"/>
    </contour>
  </outline>
</glyph>
<glyph name="slash" format="2">
  <advance width="492.0"/>
  <unicode hex="002F"/>
  <outline>
    <contour>
      <point x="-1.9999999999999991" y="-210.0" type="line"/>
      <point x="177.4" y="-210.0" type="line"/>
      <point x="494.0" y="740.0" type="line"/>
      <point x="314.0" y="740.0" type="line"/>
    </contour>
  </outline>
</glyph>
<glyph name="zero" format="2">
  <advance width="672.0"/>
  <unicode hex="0030"/>
  <outline>
    <contour>
      <point x="25.400000000000002" y="350.0" type="curve" smooth="yes"/>
      <point x="25.400000000000002" y="78.0"/>
      <point x="145.8" y="-10.0"/>
      <point x="336.0" y="-10.0" type="curve" smooth="yes"/>
      <point x="524.4" y="-10.0"/>
      <point x="646.6000000000001" y="80.39999999999999"/>
      <point x="646.6000000000001" y="350.0" type="curve" smooth="yes"/>
      <point x="646.6000000000001" y="620.2"/>
      <point x="533.4" y="710.0"/>
      <point x="336.0" y="710.0" type="curve" smooth="yes"/>
      <point x="144.0" y="710.0"/>
      <point x="25.400000000000002" y="625.0"/>
    </contour>
    <contour>
      <point x="257.6" y="342.2" type="curve" smooth="yes"/>
      <point x="257.6" y="521.2"/>
      <point x="291.4" y="536.8"/>
      <point x="336.0" y="536.8" type="curve" smooth="yes"/>
      <point x="380.6" y="536.8"/>
      <point x="414.4000000000001" y="521.8"/>
      <point x="414.4000000000001" y="342.2" type="curve" smooth="yes"/>
      <point x="414.4000000000001" y="182.4"/>
      <point x="382.40000000000003" y="163.2"/>
      <point x="336.0" y="163.2" type="curve" smooth="yes"/>
      <point x="289.59999999999997" y="163.2"/>
      <point x="257.6" y="181.8"/>
    </contour>
  </outline>
</glyph>
<glyph name="one" format="2">
  <advance width="672.0"/>
  <unicode hex="0031"/>
  <outline>
    <contour>
      <point x="104.8" y="0.0" type="line"/>
      <point x="615.4000000000001" y="0.0" type="line"/>
      <point x="615.4000000000001" y="180.0" type="line"/>
      <point x="485.40000000000003" y="180.0" type="line"/>
      <point x="485.40000000000003" y="700.0" type="line"/>
      <point x="371.20000000000005" y="700.0" type="line"/>
      <point x="85.2" y="608.4" type="line"/>
      <point x="129.8" y="415.4" type="line"/>
      <point x="256.6" y="453.2" type="line"/>
      <point x="256.6" y="180.0" type="line"/>
      <point x="104.8" y="180.0" type="line"/>
    </contour>
  </outline>
</glyph>
<glyph name="two" format="2">
  <advance width="672.4"/>
  <unicode hex="0032"/>
  <outline>
    <contour>
      <point x="57.2" y="150.2" type="curve"/>
      <point x="57.599999999999994" y="0.0" type="line"/>
      <point x="620.6" y="0.0" type="line"/>
      <point x="620.6" y="180.0" type="line"/>
      <point x="394.4" y="180.0" type="line"/>
      <point x="527.8" y="297.0"/>
      <point x="575.2" y="363.8"/>
      <point x="575.2" y="482.8" type="curve" smooth="yes"/>
      <point x="575.2" y="622.6"/>
      <point x="475.0" y="710.0"/>
      <point x="312.2" y="710.0" type="curve" smooth="yes"/>
      <point x="217.6" y="710.0"/>
      <point x="114.8" y="682.6"/>
      <point x="42.4" y="637.8" type="curve"/>
      <point x="110.2" y="450.6" type="line"/>
      <point x="165.8" y="476.0"/>
      <point x="214.2" y="488.0"/>
      <point x="256.8" y="488.0" type="curve" smooth="yes"/>
      <point x="310.0" y="488.0"/>
      <point x="339.4" y="459.8"/>
      <point x="339.4" y="416.8" type="curve" smooth="yes"/>
      <point x="339.4" y="350.2"/>
      <point x="239.2" y="254.4"/>
    </contour>
  </outline>
</glyph>
<glyph name="three" format="2">
  <advance width="672"/>
  <unicode hex="0033"/>
  <outline>
    <contour>
      <point x="33" y="40" type="line"/>
      <point x="113" y="4"/>
      <point x="191" y="-10"/>
      <point x="299" y="-10" type="curve" smooth="yes"/>
      <point x="511" y="-10"/>
      <point x="618" y="69"/>
      <point x="618" y="207" type="curve" smooth="yes"/>
      <point x="618" y="282"/>
      <point x="578" y="340"/>
      <point x="501" y="370" type="curve"/>
      <point x="567" y="403"/>
      <point x="605" y="459"/>
      <point x="605" y="526" type="curve" smooth="yes"/>
      <point x="605" y="642"/>
      <point x="514" y="710"/>
      <point x="310" y="710" type="curve" smooth="yes"/>
      <point x="202" y="710"/>
      <point x="97" y="691"/>
      <point x="38" y="658" type="curve"/>
      <point x="89" y="492" type="line"/>
      <point x="137" y="506"/>
      <point x="203" y="515"/>
      <point x="263" y="515" type="curve" smooth="yes"/>
      <point x="350" y="515"/>
      <point x="381" y="502"/>
      <point x="381" y="474" type="curve" smooth="yes"/>
      <point x="381" y="444"/>
      <point x="352" y="431"/>
      <point x="269" y="431" type="curve" smooth="yes"/>
      <point x="169" y="431" type="line"/>
      <point x="169" y="269" type="line"/>
      <point x="283" y="269" type="line" smooth="yes"/>
      <point x="361" y="269"/>
      <point x="389" y="253"/>
      <point x="389" y="223" type="curve" smooth="yes"/>
      <point x="389" y="189"/>
      <point x="363" y="176"/>
      <point x="278" y="176" type="curve" smooth="yes"/>
      <point x="213" y="176"/>
      <point x="140" y="186"/>
      <point x="90" y="204" type="curve"/>
    </contour>
  </outline>
</glyph>
<glyph name="five" format="2">
  <advance width="672.0"/>
  <unicode hex="0035"/>
  <outline>
    <contour>
      <point x="40.8" y="34.2" type="line"/>
      <point x="118.8" y="2.1999999999999993"/>
      <point x="201.00000000000003" y="-10.0"/>
      <point x="295.4" y="-10.0" type="curve" smooth="yes"/>
      <point x="494.2" y="-10.0"/>
      <point x="629.6" y="70.0"/>
      <point x="629.6" y="238.0" type="curve" smooth="yes"/>
      <point x="629.6" y="385.2"/>
      <point x="527.8" y="434.0"/>
      <point x="351.4" y="438.20000000000005" type="curve" smooth="yes"/>
      <point x="290.0" y="439.40000000000003" type="line"/>
      <point x="298.0" y="515.8" type="line"/>
      <point x="594.4" y="515.8" type="line"/>
      <point x="594.4" y="700.0" type="line"/>
      <point x="131.4" y="700.0" type="line"/>
      <point x="80.0" y="287.6" type="line"/>
      <point x="89.2" y="277.0" type="line"/>
      <point x="249.80000000000004" y="277.0" type="line" smooth="yes"/>
      <point x="377.79999999999995" y="277.0"/>
      <point x="402.79999999999995" y="259.40000000000003"/>
      <point x="402.79999999999995" y="228.0" type="curve" smooth="yes"/>
      <point x="402.79999999999995" y="199.2"/>
      <point x="371.8" y="180.4"/>
      <point x="275.59999999999997" y="180.4" type="curve" smooth="yes"/>
      <point x="202.20000000000002" y="180.4"/>
      <point x="126.99999999999999" y="191.2"/>
      <point x="81.39999999999999" y="205.8" type="curve"/>
    </contour>
  </outline>
</glyph>
<glyph name="six" format="2">
  <advance width="672"/>
  <unicode hex="0036"/>
  <outline>
    <contour>
      <point x="343" y="-10" type="curve" smooth="yes"/>
      <point x="546" y="-10"/>
      <point x="649" y="73"/>
      <point x="649" y="242" type="curve" smooth="yes"/>
      <point x="649" y="384"/>
      <point x="571" y="461"/>
      <point x="419" y="461" type="curve" smooth="yes"/>
      <point x="344" y="461"/>
      <point x="288" y="449"/>
      <point x="237" y="419" type="curve"/>
      <point x="234" y="266" type="line"/>
      <point x="277" y="287"/>
      <point x="309" y="295"/>
      <point x="339" y="295" type="curve" smooth="yes"/>
      <point x="395" y="295"/>
      <point x="428" y="273"/>
      <point x="428" y="231" type="curve" smooth="yes"/>
      <point x="428" y="181"/>
      <point x="399" y="162"/>
      <point x="355" y="162" type="curve" smooth="yes"/>
      <point x="293" y="162"/>
      <point x="257" y="189"/>
      <point x="257" y="354" type="curve" smooth="yes"/>
      <point x="257" y="467"/>
      <point x="287" y="521"/>
      <point x="425" y="521" type="curve" smooth="yes"/>
      <point x="478" y="521"/>
      <point x="523" y="512"/>
      <point x="581" y="495" type="curve"/>
      <point x="631" y="670" type="line"/>
      <point x="579" y="693"/>
      <point x="488" y="710"/>
      <point x="390" y="710" type="curve" smooth="yes"/>
      <point x="152" y="710"/>
      <point x="29" y="574"/>
      <point x="29" y="326" type="curve" smooth="yes"/>
      <point x="29" y="99"/>
      <point x="133" y="-10"/>
    </contour>
  </outline>
</glyph>
<glyph name="seven" format="2">
  <advance width="672.0"/>
  <unicode hex="0037"/>
  <outline>
    <contour>
      <point x="153.6" y="0.0" type="curve"/>
      <point x="395.4" y="0.0" type="line"/>
      <point x="398.6" y="111.0"/>
      <point x="429.8" y="196.0"/>
      <point x="504.40000000000003" y="332.8" type="curve" smooth="yes"/>
      <point x="625.6" y="553.6" type="line"/>
      <point x="625.6" y="700.0" type="line"/>
      <point x="59.0" y="700.0" type="line"/>
      <point x="59.0" y="517.0" type="line"/>
      <point x="367.2" y="517.0" type="line"/>
      <point x="256.6" y="344.6" type="line" smooth="yes"/>
      <point x="182.2" y="228.79999999999998"/>
      <point x="153.6" y="127.80000000000001"/>
    </contour>
  </outline>
</glyph>
<glyph name="eight" format="2">
  <advance width="672.4"/>
  <unicode hex="0038"/>
  <outline>
    <contour>
      <point x="342.4" y="419.0" type="curve"/>
      <point x="485.0" y="362.2" type="line"/>
      <point x="574.2" y="402.0"/>
      <point x="615.6" y="463.2"/>
      <point x="615.6" y="523.8" type="curve" smooth="yes"/>
      <point x="615.6" y="645.4"/>
      <point x="515.2" y="710.0"/>
      <point x="337.6" y="710.0" type="curve" smooth="yes"/>
      <point x="154.4" y="710.0"/>
      <point x="50.8" y="636.4"/>
      <point x="50.8" y="501.6" type="curve" smooth="yes"/>
      <point x="50.8" y="241.4"/>
      <point x="411.4" y="297.0"/>
      <point x="411.4" y="185.6" type="curve" smooth="yes"/>
      <point x="411.4" y="165.0"/>
      <point x="393.4" y="155.6"/>
      <point x="348.8" y="155.6" type="curve" smooth="yes"/>
      <point x="283.4" y="155.6"/>
      <point x="247.2" y="175.8"/>
      <point x="247.2" y="210.0" type="curve" smooth="yes"/>
      <point x="247.2" y="242.4"/>
      <point x="261.6" y="255.4"/>
      <point x="300.0" y="278.2" type="curve"/>
      <point x="162.8" y="356.2" type="line"/>
      <point x="64.8" y="331.2"/>
      <point x="22.8" y="266.6"/>
      <point x="22.8" y="194.8" type="curve" smooth="yes"/>
      <point x="22.8" y="64.0"/>
      <point x="133.0" y="-10.0"/>
      <point x="339.8" y="-10.0" type="curve" smooth="yes"/>
      <point x="552.4" y="-10.0"/>
      <point x="649.0" y="58.8"/>
      <point x="649.0" y="201.4" type="curve" smooth="yes"/>
      <point x="649.0" y="453.8"/>
      <point x="266.8" y="403.6"/>
      <point x="266.8" y="506.4" type="curve" smooth="yes"/>
      <point x="266.8" y="525.8"/>
      <point x="282.0" y="542.8"/>
      <point x="335.4" y="542.8" type="curve" smooth="yes"/>
      <point x="388.0" y="542.8"/>
      <point x="408.0" y="528.0"/>
      <point x="408.0" y="490.8" type="curve" smooth="yes"/>
      <point x="408.0" y="457.4"/>
      <point x="387.2" y="441.0"/>
    </contour>
  </outline>
</glyph>
<glyph name="less" format="2">
  <advance width="564.8"/>
  <unicode hex="003C"/>
  <outline>
    <contour>
      <point x="528.2" y="73.2" type="line"/>
      <point x="528.2" y="243.6" type="line"/>
      <point x="233.4" y="314.40000000000003" type="line"/>
      <point x="528.2" y="385.4" type="line"/>
      <point x="528.2" y="556.0" type="line"/>
      <point x="36.6" y="402.20000000000005" type="line"/>
      <point x="36.6" y="225.4" type="line"/>
    </contour>
  </outline>
</glyph>
<glyph name="equal" format="2">
  <advance width="552.8"/>
  <unicode hex="003D"/>
  <outline>
    <contour>
      <point x="503.59999999999997" y="286.6" type="line"/>
      <point x="49.2" y="286.6" type="line"/>
      <point x="49.2" y="108.6" type="line"/>
      <point x="503.59999999999997" y="108.6" type="line"/>
    </contour>
    <contour>
      <point x="503.59999999999997" y="521.2" type="line"/>
      <point x="49.2" y="521.2" type="line"/>
      <point x="49.2" y="343.2" type="line"/>
      <point x="503.59999999999997" y="343.2" type="line"/>
    </contour>
  </outline>
</glyph>
<glyph name="greater" format="2">
  <advance width="564.8"/>
  <unicode hex="003E"/>
  <outline>
    <contour>
      <point x="528.2" y="225.4" type="line"/>
      <point x="528.2" y="402.2" type="line"/>
      <point x="36.6" y="556.0" type="line"/>
      <point x="36.6" y="385.40000000000003" type="line"/>
      <point x="331.4" y="314.4" type="line"/>
      <point x="36.6" y="243.6" type="line"/>
      <point x="36.6" y="73.2" type="line"/>
    </contour>
  </outline>
</glyph>
<glyph name="question" format="2">
  <advance width="518.8000000000001"/>
  <unicode hex="003F"/>
  <outline>
    <contour>
      <point x="147.2" y="259.0" type="line"/>
      <point x="339.4" y="259.0" type="line"/>
      <point x="340.2" y="320.4" type="line"/>
      <point x="464.79999999999995" y="360.0"/>
      <point x="507.40000000000003" y="437.8"/>
      <point x="507.40000000000003" y="535.8" type="curve" smooth="yes"/>
      <point x="507.40000000000003" y="681.0"/>
      <point x="396.2" y="749.4"/>
      <point x="246.2" y="749.4" type="curve" smooth="yes"/>
      <point x="167.0" y="749.4"/>
      <point x="70.8" y="722.5999999999999"/>
      <point x="12.4" y="684.6" type="curve"/>
      <point x="77.0" y="507.00000000000006" type="line"/>
      <point x="128.8" y="534.2"/>
      <point x="170.4" y="545.8000000000001"/>
      <point x="208.39999999999998" y="545.8000000000001" type="curve" smooth="yes"/>
      <point x="252.8" y="545.8000000000001"/>
      <point x="273.4" y="531.0"/>
      <point x="273.4" y="507.8" type="curve" smooth="yes"/>
      <point x="273.4" y="482.2"/>
      <point x="263.0" y="453.6"/>
      <point x="142.0" y="420.0" type="curve"/>
    </contour>
    <contour>
      <point x="122.0" y="105.4" type="curve" smooth="yes"/>
      <point x="122.0" y="28.6"/>
      <point x="156.20000000000002" y="-10.4"/>
      <point x="243.0" y="-10.4" type="curve" smooth="yes"/>
      <point x="328.6" y="-10.4"/>
      <point x="364.0" y="28.6"/>
      <point x="364.0" y="105.4" type="curve" smooth="yes"/>
      <point x="364.0" y="183.2"/>
      <point x="328.6" y="222.2"/>
      <point x="243.0" y="222.2" type="curve" smooth="yes"/>
      <point x="156.2" y="222.2"/>
      <point x="122.0" y="183.2"/>
    </contour>
  </outline>
</glyph>
<glyph name="at" format="2">
  <advance width="931.9999999999999"/>
  <unicode hex="0040"/>
  <outline>
    <contour>
      <point x="448.00000000000006" y="-124.6" type="curve" smooth="yes"/>
      <point x="513.8" y="-124.6"/>
      <point x="602.8" y="-112.2"/>
      <point x="661.8" y="-91.8" type="curve"/>
      <point x="637.8000000000001" y="-6.6" type="line"/>
      <point x="581.4" y="-21.6"/>
      <point x="515.8" y="-30.0"/>
      <point x="455.80000000000007" y="-30.0" type="curve" smooth="yes"/>
      <point x="276.8" y="-30.0"/>
      <point x="132.4" y="39.6"/>
      <point x="132.4" y="260.0" type="curve" smooth="yes"/>
      <point x="132.4" y="468.6"/>
      <point x="260.0" y="620.0"/>
      <point x="484.8" y="620.0" type="curve" smooth="yes"/>
      <point x="706.0" y="620.0"/>
      <point x="807.2" y="519.4"/>
      <point x="807.2" y="329.0" type="curve" smooth="yes"/>
      <point x="807.2" y="217.0"/>
      <point x="764.2" y="155.2"/>
      <point x="722.4" y="157.2" type="curve" smooth="yes"/>
      <point x="691.4" y="157.2"/>
      <point x="672.8" y="178.6"/>
      <point x="678.0" y="238.6" type="curve" smooth="yes"/>
      <point x="700.8000000000001" y="501.20000000000005" type="line"/>
      <point x="635.8" y="526.8"/>
      <point x="563.6" y="541.1999999999999"/>
      <point x="490.6" y="541.1999999999999" type="curve" smooth="yes"/>
      <point x="319.20000000000005" y="541.1999999999999"/>
      <point x="227.0" y="421.40000000000003"/>
      <point x="227.0" y="251.79999999999998" type="curve" smooth="yes"/>
      <point x="227.0" y="112.6"/>
      <point x="292.40000000000003" y="50.4"/>
      <point x="382.8" y="50.4" type="curve" smooth="yes"/>
      <point x="448.20000000000005" y="50.4"/>
      <point x="499.20000000000005" y="82.2"/>
      <point x="538.5999999999999" y="138.60000000000002" type="curve"/>
      <point x="559.0" y="84.6"/>
      <point x="601.6" y="40.8"/>
      <point x="688.0" y="40.8" type="curve" smooth="yes"/>
      <point x="833.4" y="36.8"/>
      <point x="909.2" y="170.4"/>
      <point x="909.2" y="340.2" type="curve" smooth="yes"/>
      <point x="909.2" y="584.1999999999999"/>
      <point x="741.8" y="710.0"/>
      <point x="502.0" y="710.0" type="curve" smooth="yes"/>
      <point x="196.39999999999998" y="710.0"/>
      <point x="23.999999999999996" y="526.0"/>
      <point x="23.999999999999996" y="267.6" type="curve" smooth="yes"/>
      <point x="23.999999999999996" y="-9.200000000000003"/>
      <point x="201.2" y="-124.6"/>
    </contour>
    <contour>
      <point x="451.79999999999995" y="206.8" type="curve" smooth="yes"/>
      <point x="430.0" y="206.8"/>
      <point x="413.0" y="223.8"/>
      <point x="413.0" y="255.79999999999998" type="curve" smooth="yes"/>
      <point x="413.0" y="339.8"/>
      <point x="446.20000000000005" y="417.4"/>
      <point x="484.0" y="417.4" type="curve" smooth="yes"/>
      <point x="500.20000000000005" y="417.4"/>
      <point x="512.2" y="414.6"/>
      <point x="526.4000000000001" y="408.6" type="curve"/>
      <point x="509.2" y="239.4" type="line" smooth="yes"/>
      <point x="494.6" y="220.00000000000003"/>
      <point x="475.79999999999995" y="206.8"/>
    </contour>
  </outline>
</glyph>
<glyph name="A" format="2">
  <advance width="713.4000000000001"/>
  <unicode hex="0041"/>
  <anchor x="710.2" y="0.0" name="ogonek"/>
  <anchor x="349.80000000000007" y="0.0" name="bottom"/>
  <anchor x="356.6" y="700.0" name="top"/>
  <outline>
    <contour>
      <point x="3.2" y="0.0" type="line"/>
      <point x="246.8" y="0.0" type="line"/>
      <point x="266.6" y="91.0" type="line"/>
      <point x="434.0" y="91.0" type="line"/>
      <point x="455.0" y="0.0" type="line"/>
      <point x="710.2" y="0.0" type="line"/>
      <point x="498.00000000000006" y="700.0" type="line"/>
      <point x="212.4" y="700.0" type="line"/>
    </contour>
    <contour>
      <point x="308.0" y="281.0" type="line"/>
      <point x="350.59999999999997" y="531.8" type="line"/>
      <point x="392.6" y="281.0" type="line"/>
    </contour>
  </outline>
</glyph>
<glyph name="B" format="2">
  <advance width="686.6"/>
  <unicode hex="0042"/>
  <anchor x="342.4" y="700.0" name="top"/>
  <anchor x="342.4" y="0.0" name="bottom"/>
  <outline>
    <contour>
      <point x="43.2" y="5.0" type="line"/>
      <point x="222.6" y="-8.0"/>
      <point x="226.4" y="-10.0"/>
      <point x="346.2" y="-10.0" type="curve" smooth="yes"/>
      <point x="595.8000000000001" y="-10.0"/>
      <point x="678.2" y="50.0"/>
      <point x="678.2" y="211.39999999999998" type="curve" smooth="yes"/>
      <point x="678.2" y="296.6"/>
      <point x="627.6000000000001" y="362.59999999999997"/>
      <point x="541.8" y="390.8" type="curve"/>
      <point x="541.8" y="392.79999999999995" type="line"/>
      <point x="611.0000000000001" y="425.4"/>
      <point x="639.4" y="472.0"/>
      <point x="639.4" y="541.6" type="curve" smooth="yes"/>
      <point x="639.4" y="659.8"/>
      <point x="557.5999999999999" y="710.0"/>
      <point x="346.2" y="710.0" type="curve" smooth="yes"/>
      <point x="268.00000000000006" y="710.0"/>
      <point x="168.0" y="705.0"/>
      <point x="43.2" y="695.0" type="curve"/>
    </contour>
    <contour>
      <point x="276.8" y="428.4" type="line"/>
      <point x="276.8" y="523.4" type="line"/>
      <point x="307.6" y="526.4000000000001"/>
      <point x="314.40000000000003" y="527.4000000000001"/>
      <point x="341.80000000000007" y="527.4000000000001" type="curve" smooth="yes"/>
      <point x="403.8" y="527.4000000000001"/>
      <point x="420.79999999999995" y="512.1999999999999"/>
      <point x="420.79999999999995" y="475.4" type="curve" smooth="yes"/>
      <point x="420.79999999999995" y="441.8"/>
      <point x="404.0" y="428.4"/>
      <point x="371.4" y="428.4" type="curve" smooth="yes"/>
    </contour>
    <contour>
      <point x="276.8" y="175.4" type="curve"/>
      <point x="276.8" y="272.59999999999997" type="line"/>
      <point x="367.2" y="272.59999999999997" type="line" smooth="yes"/>
      <point x="422.8" y="272.59999999999997"/>
      <point x="438.80000000000007" y="259.6"/>
      <point x="438.80000000000007" y="222.4" type="curve" smooth="yes"/>
      <point x="438.80000000000007" y="185.20000000000002"/>
      <point x="419.8" y="172.0"/>
      <point x="336.8" y="172.0" type="curve" smooth="yes"/>
      <point x="321.79999999999995" y="172.0"/>
      <point x="293.40000000000003" y="173.4"/>
    </contour>
  </outline>
</glyph>
<glyph name="C" format="2">
  <advance width="646.8000000000001"/>
  <unicode hex="0043"/>
  <anchor x="357.8" y="700.0" name="top"/>
  <anchor x="355.2" y="0.0" name="bottom"/>
  <outline>
    <contour>
      <point x="19.8" y="340.79999999999995" type="curve" smooth="yes"/>
      <point x="19.8" y="86.8"/>
      <point x="132.2" y="-10.0"/>
      <point x="363.8" y="-10.0" type="curve" smooth="yes"/>
      <point x="486.79999999999995" y="-10.0"/>
      <point x="555.8000000000001" y="5.4"/>
      <point x="623.0" y="27.599999999999994" type="curve"/>
      <point x="582.6" y="208.2" type="line"/>
      <point x="525.8000000000001" y="194.8"/>
      <point x="459.4" y="185.0"/>
      <point x="403.59999999999997" y="185.0" type="curve" smooth="yes"/>
      <point x="293.8" y="185.0"/>
      <point x="257.6" y="223.4"/>
      <point x="257.6" y="342.2" type="curve" smooth="yes"/>
      <point x="257.6" y="470.8"/>
      <point x="292.6" y="513.6"/>
      <point x="404.20000000000005" y="513.6" type="curve" smooth="yes"/>
      <point x="453.6" y="513.6"/>
      <point x="506.99999999999994" y="506.2"/>
      <point x="570.2" y="492.79999999999995" type="curve"/>
      <point x="616.0" y="676.2" type="line"/>
      <point x="548.0000000000001" y="699.0"/>
      <point x="485.20000000000005" y="710.0"/>
      <point x="382.0" y="710.0" type="curve" smooth="yes"/>
      <point x="138.20000000000002" y="710.0"/>
      <point x="19.8" y="603.0"/>
    </contour>
  </outline>
</glyph>
<glyph name="D" format="2">
  <advance width="716.6"/>
  <unicode hex="0044"/>
  <anchor x="355.79999999999995" y="700.0" name="top"/>
  <outline>
    <contour>
      <point x="345.0" y="-10.0" type="curve" smooth="yes"/>
      <point x="582.8000000000001" y="-10.0"/>
      <point x="696.8000000000001" y="101.8"/>
      <point x="696.8000000000001" y="350.0" type="curve" smooth="yes"/>
      <point x="696.8000000000001" y="601.8"/>
      <point x="596.4" y="710.0"/>
      <point x="335.0" y="710.0" type="curve" smooth="yes"/>
      <point x="227.4" y="710.0"/>
      <point x="145.79999999999998" y="707.0"/>
      <point x="43.2" y="698.8" type="curve"/>
      <point x="43.2" y="0.0" type="line"/>
      <point x="130.60000000000002" y="-5.8"/>
      <point x="219.0" y="-10.0"/>
    </contour>
    <contour>
      <point x="367.40000000000003" y="171.0" type="curve" smooth="yes"/>
      <point x="325.40000000000003" y="171.0"/>
      <point x="308.4" y="172.8"/>
      <point x="276.2" y="174.2" type="curve"/>
      <point x="276.2" y="524.8" type="line"/>
      <point x="296.0" y="527.1999999999999"/>
      <point x="325.0" y="528.2"/>
      <point x="363.0" y="528.2" type="curve" smooth="yes"/>
      <point x="425.6" y="528.2"/>
      <point x="457.6000000000001" y="488.0"/>
      <point x="457.6000000000001" y="348.8" type="curve" smooth="yes"/>
      <point x="457.6000000000001" y="219.8"/>
      <point x="424.0" y="171.0"/>
    </contour>
  </outline>
</glyph>
<glyph name="E" format="2">
  <advance width="631.2"/>
  <unicode hex="0045"/>
  <anchor x="606.8000000000001" y="0.0" name="ogonek"/>
  <anchor x="324.59999999999997" y="0.0" name="bottom"/>
  <anchor x="330.2" y="700.0" name="top"/>
  <outline>
    <contour>
      <point x="43.2" y="0.0" type="line"/>
      <point x="606.8000000000001" y="0.0" type="line"/>
      <point x="606.8000000000001" y="188.8" type="line"/>
      <point x="272.8" y="188.8" type="line"/>
      <point x="272.8" y="262.8" type="line"/>
      <point x="562.0" y="262.8" type="line"/>
      <point x="562.0" y="435.6" type="line"/>
      <point x="272.8" y="435.6" type="line"/>
      <point x="272.8" y="508.2" type="line"/>
      <point x="588.6" y="508.2" type="line"/>
      <point x="588.6" y="700.0" type="line"/>
      <point x="43.2" y="700.0" type="line"/>
    </contour>
  </outline>
</glyph>
<glyph name="F" format="2">
  <advance width="601.2"/>
  <unicode hex="0046"/>
  <outline>
    <contour>
      <point x="43.2" y="0.0" type="line"/>
      <point x="277.4" y="0.0" type="line"/>
      <point x="277.4" y="195.2" type="line"/>
      <point x="541.6" y="195.2" type="line"/>
      <point x="541.6" y="389.0" type="line"/>
      <point x="276.2" y="389.0" type="line"/>
      <point x="276.2" y="502.2" type="line"/>
      <point x="584.0" y="502.2" type="line"/>
      <point x="584.0" y="700.0" type="line"/>
      <point x="43.2" y="700.0" type="line"/>
    </contour>
  </outline>
</glyph>
<glyph name="G" format="2">
  <advance width="685.2"/>
  <unicode hex="0047"/>
  <anchor x="360.0" y="700.0" name="top"/>
  <anchor x="354.4" y="0.0" name="bottom"/>
  <outline>
    <contour>
      <point x="19.8" y="342.0" type="curve" smooth="yes"/>
      <point x="19.8" y="100.8"/>
      <point x="124.6" y="-10.0"/>
      <point x="347.4" y="-10.0" type="curve" smooth="yes"/>
      <point x="467.4" y="-10.0"/>
      <point x="565.1999999999999" y="9.599999999999998"/>
      <point x="653.0" y="52.0" type="curve"/>
      <point x="653.0" y="422.59999999999997" type="line"/>
      <point x="361.4" y="422.59999999999997" type="line"/>
      <point x="361.4" y="244.0" type="line"/>
      <point x="444.40000000000003" y="244.0" type="line"/>
      <point x="444.40000000000003" y="180.2" type="line"/>
      <point x="428.2" y="175.6"/>
      <point x="402.59999999999997" y="172.60000000000002"/>
      <point x="376.0" y="172.60000000000002" type="curve" smooth="yes"/>
      <point x="293.8" y="172.60000000000002"/>
      <point x="256.4" y="210.79999999999998"/>
      <point x="256.4" y="338.0" type="curve" smooth="yes"/>
      <point x="256.4" y="464.8"/>
      <point x="297.2" y="514.8000000000001"/>
      <point x="403.0" y="514.8000000000001" type="curve" smooth="yes"/>
      <point x="453.40000000000003" y="514.8000000000001"/>
      <point x="521.2" y="505.8"/>
      <point x="584.5999999999999" y="492.2" type="curve"/>
      <point x="626.8000000000001" y="676.8000000000001" type="line"/>
      <point x="554.4" y="698.6"/>
      <point x="478.40000000000003" y="710.0"/>
      <point x="383.79999999999995" y="710.0" type="curve" smooth="yes"/>
      <point x="135.4" y="710.0"/>
      <point x="19.8" y="592.2"/>
    </contour>
  </outline>
</glyph>
<glyph name="H" format="2">
  <advance width="722.2"/>
  <unicode hex="0048"/>
  <anchor x="361.4" y="700.0" name="top"/>
  <outline>
    <contour>
      <point x="43.2" y="0.0" type="line"/>
      <point x="276.2" y="0.0" type="line"/>
      <point x="276.2" y="221.2" type="line"/>
      <point x="445.99999999999994" y="221.2" type="line"/>
      <point x="445.99999999999994" y="0.0" type="line"/>
      <point x="679.0" y="0.0" type="line"/>
      <point x="679.0" y="700.0" type="line"/>
      <point x="445.99999999999994" y="700.0" type="line"/>
      <point x="445.99999999999994" y="428.2" type="line"/>
      <point x="276.2" y="428.2" type="line"/>
      <point x="276.2" y="700.0" type="line"/>
      <point x="43.2" y="700.0" type="line"/>
    </contour>
  </outline>
</glyph>
<glyph name="I" format="2">
  <advance width="319.4"/>
  <unicode hex="0049"/>
  <anchor x="276.2" y="0.0" name="ogonek"/>
  <anchor x="160.0" y="0.0" name="bottom"/>
  <anchor x="160.0" y="700.0" name="top"/>
  <outline>
    <contour>
      <point x="43.2" y="0.0" type="line"/>
      <point x="276.2" y="0.0" type="line"/>
      <point x="276.2" y="700.0" type="line"/>
      <point x="43.2" y="700.0" type="line"/>
    </contour>
  </outline>
</glyph>
<glyph name="J" format="2">
  <advance width="552.5999999999999"/>
  <unicode hex="004A"/>
  <anchor x="287.6" y="700.0" name="top"/>
  <outline>
    <contour>
      <point x="4.800000000000001" y="30.800000000000004" type="line"/>
      <point x="88.4" y="4.8"/>
      <point x="174.8" y="-10.0"/>
      <point x="262.0" y="-10.0" type="curve" smooth="yes"/>
      <point x="435.79999999999995" y="-10.0"/>
      <point x="513.4000000000001" y="71.60000000000001"/>
      <point x="513.4000000000001" y="239.4" type="curve" smooth="yes"/>
      <point x="513.4000000000001" y="700.0" type="line"/>
      <point x="60.800000000000004" y="700.0" type="line"/>
      <point x="60.800000000000004" y="497.6" type="line"/>
      <point x="280.40000000000003" y="497.6" type="line"/>
      <point x="280.40000000000003" y="296.4" type="line" smooth="yes"/>
      <point x="280.40000000000003" y="208.6"/>
      <point x="255.2" y="185.2"/>
      <point x="192.20000000000002" y="185.2" type="curve" smooth="yes"/>
      <point x="157.4" y="185.2"/>
      <point x="107.60000000000001" y="194.6"/>
      <point x="47.4" y="208.0" type="curve"/>
    </contour>
  </outline>
</glyph>
<glyph name="K" format="2">
  <advance width="791.0"/>
  <unicode hex="004B"/>
  <anchor x="395.0" y="700.0" name="top"/>
  <anchor x="387.0" y="0.0" name="bottom"/>
  <outline>
    <contour>
      <point x="726.0" y="-10.0" type="curve" smooth="yes"/>
      <point x="735.0" y="-10.0"/>
      <point x="745.0" y="-10.0"/>
      <point x="756.0" y="-8.0" type="curve"/>
      <point x="756.0" y="212.0" type="line"/>
      <point x="751.0" y="212.0"/>
      <point x="746.0" y="212.0"/>
      <point x="742.0" y="212.0" type="curve" smooth="yes"/>
      <point x="700.0" y="213.0"/>
      <point x="658.0" y="233.0"/>
      <point x="559.0" y="292.0" type="curve" smooth="yes"/>
      <point x="238.0" y="485.0" type="line"/>
      <point x="238.0" y="700.0" type="line"/>
      <point x="62.0" y="700.0" type="line"/>
      <point x="62.0" y="0.0" type="line"/>
      <point x="238.0" y="0.0" type="line"/>
      <point x="238.0" y="211.0" type="line"/>
      <point x="499.0" y="60.0" type="line" smooth="yes"/>
      <point x="580.0" y="13.0"/>
      <point x="644.0" y="-10.0"/>
    </contour>
    <contour>
      <point x="391.0" y="275.0" type="line"/>
      <point x="549.0" y="386.0"/>
      <point x="707.0" y="505.0"/>
      <point x="774.0" y="661.0" type="curve"/>
      <point x="610.0" y="702.0" type="line"/>
      <point x="549.0" y="580.0"/>
      <point x="383.0" y="461.0"/>
      <point x="291.0" y="415.0" type="curve"/>
    </contour>
  </outline>
</glyph>
<glyph name="L" format="2">
  <advance width="593.4000000000001"/>
  <unicode hex="004C"/>
  <anchor x="297.0" y="350.0" name="center"/>
  <anchor x="160.0" y="700.0" name="top"/>
  <anchor x="357.4" y="700.0" name="topright"/>
  <anchor x="309.6" y="0.0" name="bottom"/>
  <outline>
    <contour>
      <point x="43.2" y="0.0" type="line"/>
      <point x="573.4" y="0.0" type="line"/>
      <point x="573.4" y="202.8" type="line"/>
      <point x="276.8" y="202.8" type="line"/>
      <point x="276.8" y="700.0" type="line"/>
      <point x="43.2" y="700.0" type="line"/>
    </contour>
  </outline>
</glyph>
<glyph name="M" format="2">
  <advance width="818.8"/>
  <unicode hex="004D"/>
  <outline>
    <contour>
      <point x="43.599999999999994" y="0.0" type="line"/>
      <point x="255.8" y="0.0" type="line"/>
      <point x="255.8" y="373.6" type="line"/>
      <point x="352.2" y="114.0" type="line"/>
      <point x="461.4" y="114.0" type="line"/>
      <point x="563.0" y="380.4" type="line"/>
      <point x="563.0" y="0.0" type="line"/>
      <point x="775.2" y="0.0" type="line"/>
      <point x="775.2" y="700.0" type="line"/>
      <point x="544.0" y="700.0" type="line"/>
      <point x="413.8" y="380.6" type="line"/>
      <point x="285.8" y="700.0" type="line"/>
      <point x="43.599999999999994" y="700.0" type="line"/>
    </contour>
  </outline>
</glyph>
<glyph name="P" format="2">
  <advance width="714.0"/>
  <unicode hex="0050"/>
  <outline>
    <contour>
      <point x="43.2" y="0.0" type="line"/>
      <point x="276.8" y="0.0" type="line"/>
      <point x="276.8" y="161.0" type="line"/>
      <point x="358.0" y="157.0"/>
      <point x="334.0" y="157.0"/>
      <point x="414.4" y="157.0" type="curve" smooth="yes"/>
      <point x="626.4" y="157.0"/>
      <point x="697.8000000000001" y="244.4"/>
      <point x="697.8000000000001" y="438.0" type="curve" smooth="yes"/>
      <point x="697.8000000000001" y="630.4"/>
      <point x="625.8000000000001" y="710.0"/>
      <point x="354.80000000000007" y="710.0" type="curve" smooth="yes"/>
      <point x="314.6" y="710.0"/>
      <point x="204.4" y="708.2"/>
      <point x="43.2" y="701.1999999999999" type="curve"/>
    </contour>
    <contour>
      <point x="277.4" y="523.8" type="line"/>
      <point x="328.8" y="527.1999999999999"/>
      <point x="339.6" y="527.2"/>
      <point x="372.8" y="527.2" type="curve" smooth="yes"/>
      <point x="442.80000000000007" y="527.2"/>
      <point x="461.40000000000003" y="500.2"/>
      <point x="461.40000000000003" y="444.8" type="curve" smooth="yes"/>
      <point x="461.40000000000003" y="367.0"/>
      <point x="451.4" y="339.2"/>
      <point x="338.2" y="339.2" type="curve" smooth="yes"/>
      <point x="320.4" y="339.2"/>
      <point x="308.6" y="339.6"/>
      <point x="277.4" y="342.4" type="curve"/>
    </contour>
  </outline>
</glyph>
<glyph name="Q" format="2">
  <advance width="710.6"/>
  <unicode hex="0051"/>
  <outline>
    <contour>
      <point x="540.4" y="52.8" type="curve"/>
      <point x="345.0" y="10.4" type="line"/>
      <point x="387.2" y="-118.0"/>
      <point x="448.8" y="-180.2"/>
      <point x="558.0" y="-180.2" type="curve" smooth="yes"/>
      <point x="592.8" y="-180.2"/>
      <point x="628.2" y="-174.2"/>
      <point x="660.8" y="-163.6" type="curve"/>
      <point x="637.0" y="25.599999999999998" type="line"/>
      <point x="626.4" y="21.6"/>
      <point x="614.0" y="19.8"/>
      <point x="600.0" y="19.8" type="curve" smooth="yes"/>
      <point x="575.4" y="19.8"/>
      <point x="556.0" y="32.8"/>
    </contour>
    <component base="O"/>
  </outline>
</glyph>
<glyph name="R" format="2">
  <advance width="795.0"/>
  <unicode hex="0052"/>
  <anchor x="380.0" y="700.0" name="top"/>
  <anchor x="388.0" y="0.0" name="bottom"/>
  <outline>
    <contour>
      <point x="724.0" y="-10.0" type="curve" smooth="yes"/>
      <point x="752.0" y="-10.0"/>
      <point x="768.0" y="-9.0"/>
      <point x="780.0" y="-7.0" type="curve"/>
      <point x="782.0" y="195.0" type="line"/>
      <point x="777.0" y="195.0"/>
      <point x="770.0" y="195.0"/>
      <point x="766.0" y="195.0" type="curve" smooth="yes"/>
      <point x="696.0" y="195.0"/>
      <point x="603.0" y="268.0"/>
      <point x="544.0" y="267.0" type="curve"/>
      <point x="663.0" y="289.0"/>
      <point x="713.0" y="373.0"/>
      <point x="713.0" y="478.0" type="curve" smooth="yes"/>
      <point x="713.0" y="637.0"/>
      <point x="604.0" y="709.0"/>
      <point x="375.0" y="709.0" type="curve" smooth="yes"/>
      <point x="248.0" y="709.0"/>
      <point x="166.0" y="705.0"/>
      <point x="62.0" y="698.0" type="curve"/>
      <point x="62.0" y="0.0" type="line"/>
      <point x="236.0" y="0.0" type="line"/>
      <point x="236.0" y="207.0" type="line"/>
      <point x="285.0" y="206.0"/>
      <point x="326.0" y="205.0"/>
      <point x="366.0" y="205.0" type="curve" smooth="yes"/>
      <point x="376.0" y="205.0"/>
      <point x="385.0" y="205.0"/>
      <point x="396.0" y="204.0" type="curve"/>
      <point x="496.0" y="59.0"/>
      <point x="624.0" y="-10.0"/>
    </contour>
    <contour>
      <point x="383.0" y="339.0" type="curve" smooth="yes"/>
      <point x="334.0" y="339.0"/>
      <point x="289.0" y="341.0"/>
      <point x="236.0" y="343.0" type="curve"/>
      <point x="236.0" y="536.0" type="line"/>
      <point x="291.0" y="540.0"/>
      <point x="316.0" y="541.0"/>
      <point x="369.0" y="541.0" type="curve" smooth="yes"/>
      <point x="496.0" y="541.0"/>
      <point x="537.0" y="518.0"/>
      <point x="537.0" y="450.0" type="curve" smooth="yes"/>
      <point x="537.0" y="373.0"/>
      <point x="501.0" y="339.0"/>
    </contour>
  </outline>
</glyph>
<glyph name="S" format="2">
  <advance width="660.0"/>
  <unicode hex="0053"/>
  <anchor x="334.0" y="700.0" name="top"/>
  <anchor x="321.4" y="0.0" name="bottom"/>
  <outline>
    <contour>
      <point x="619.4" y="672.4" type="line"/>
      <point x="567.4" y="690.0"/>
      <point x="456.2" y="710.0"/>
      <point x="349.0" y="710.0" type="curve" smooth="yes"/>
      <point x="115.0" y="710.0"/>
      <point x="19.2" y="602.6"/>
      <point x="19.2" y="469.4" type="curve" smooth="yes"/>
      <point x="19.2" y="378.0"/>
      <point x="34.0" y="318.2"/>
      <point x="187.2" y="277.2" type="curve" smooth="yes"/>
      <point x="375.6" y="233.0"/>
      <point x="403.8" y="231.2"/>
      <point x="403.8" y="215.8" type="curve" smooth="yes"/>
      <point x="403.8" y="192.6"/>
      <point x="388.6" y="167.2"/>
      <point x="316.2" y="167.2" type="curve" smooth="yes"/>
      <point x="251.2" y="167.2"/>
      <point x="149.6" y="178.4"/>
      <point x="44.2" y="214.0" type="curve"/>
      <point x="1.3999999999999986" y="38.2" type="line"/>
      <point x="110.8" y="-1.200000000000001"/>
      <point x="225.4" y="-10.0"/>
      <point x="302.4" y="-10.0" type="curve" smooth="yes"/>
      <point x="534.0" y="-10.0"/>
      <point x="649.6" y="86.2"/>
      <point x="649.6" y="233.0" type="curve" smooth="yes"/>
      <point x="649.6" y="335.6"/>
      <point x="627.2" y="389.8"/>
      <point x="435.8" y="430.0" type="curve" smooth="yes"/>
      <point x="263.2" y="465.0"/>
      <point x="267.0" y="467.8"/>
      <point x="267.0" y="477.6" type="curve" smooth="yes"/>
      <point x="267.0" y="508.6"/>
      <point x="297.6" y="526.6"/>
      <point x="350.4" y="526.6" type="curve" smooth="yes"/>
      <point x="425.2" y="526.6"/>
      <point x="524.2" y="514.6"/>
      <point x="578.6" y="495.0" type="curve"/>
    </contour>
  </outline>
</glyph>
<glyph name="T" format="2">
  <advance width="671.1999999999999"/>
  <unicode hex="0054"/>
  <anchor x="335.59999999999997" y="700.0" name="top"/>
  <anchor x="335.59999999999997" y="0.0" name="bottom"/>
  <outline>
    <contour>
      <point x="651.1999999999999" y="494.8" type="line"/>
      <point x="651.1999999999999" y="700.0" type="line"/>
      <point x="20.0" y="700.0" type="line"/>
      <point x="20.0" y="494.8" type="line"/>
      <point x="219.4" y="494.8" type="line"/>
      <point x="219.4" y="0.0" type="line"/>
      <point x="452.4" y="0.0" type="line"/>
      <point x="452.4" y="494.8" type="line"/>
    </contour>
  </outline>
</glyph>
<glyph name="U" format="2">
  <advance width="710.2"/>
  <unicode hex="0055"/>
  <anchor x="458.6" y="1.2" name="ogonek"/>
  <anchor x="355.4" y="700.0" name="top"/>
  <anchor x="671.0" y="700.0" name="topright"/>
  <anchor x="355.4" y="0.0" name="bottom"/>
  <outline>
    <contour>
      <point x="39.2" y="239.2" type="line"/>
      <point x="39.2" y="66.4"/>
      <point x="139.8" y="-10.0"/>
      <point x="354.2" y="-10.0" type="curve" smooth="yes"/>
      <point x="572.8" y="-10.0"/>
      <point x="671.0" y="66.4"/>
      <point x="671.0" y="239.2" type="curve" smooth="yes"/>
      <point x="671.0" y="700.0" type="line"/>
      <point x="440.0" y="700.0" type="line"/>
      <point x="440.0" y="237.0" type="line" smooth="yes"/>
      <point x="440.0" y="200.0"/>
      <point x="416.79999999999995" y="176.4"/>
      <point x="355.4" y="176.4" type="curve" smooth="yes"/>
      <point x="297.4" y="176.4"/>
      <point x="269.0" y="196.4"/>
      <point x="269.0" y="237.0" type="curve" smooth="yes"/>
      <point x="269.0" y="700.0" type="line"/>
      <point x="39.2" y="700.0" type="line"/>
    </contour>
  </outline>
</glyph>
<glyph name="V" format="2">
  <advance width="698.2"/>
  <unicode hex="0056"/>
  <outline>
    <contour>
      <point x="211.4" y="0.0" type="line"/>
      <point x="491.0" y="0.0" type="line"/>
      <point x="702.2" y="700.0" type="line"/>
      <point x="445.4" y="700.4" type="line"/>
      <point x="352.0" y="183.0" type="line"/>
      <point x="255.0" y="700.4" type="line"/>
      <point x="-4.0" y="700.0" type="line"/>
    </contour>
  </outline>
</glyph>
<glyph name="W" format="2">
  <advance width="854.0"/>
  <unicode hex="0057"/>
  <anchor x="427.0" y="700.0" name="top"/>
  <anchor x="427.0" y="0.0" name="bottom"/>
  <outline>
    <contour>
      <point x="718.8" y="0.0" type="line"/>
      <point x="856.4" y="700.2" type="line"/>
      <point x="604.8" y="700.2" type="line"/>
      <point x="590.4" y="207.2" type="line"/>
      <point x="531.4" y="651.4" type="line"/>
      <point x="327.0" y="651.4" type="line"/>
      <point x="261.2" y="206.6" type="line"/>
      <point x="246.8" y="700.2" type="line"/>
      <point x="-2.4000000000000004" y="700.2" type="line"/>
      <point x="130.2" y="0.0" type="line"/>
      <point x="365.0" y="0.0" type="line"/>
      <point x="424.8" y="358.0" type="line"/>
      <point x="475.6" y="0.0" type="line"/>
    </contour>
  </outline>
</glyph>
<glyph name="X" format="2">
  <advance width="676.8"/>
  <unicode hex="0058"/>
  <outline>
    <contour>
      <point x="-4.2" y="-0.40000000000000036" type="line"/>
      <point x="286.2" y="-0.3999999999999999" type="line"/>
      <point x="344.6" y="233.8" type="line"/>
      <point x="404.0" y="-0.3999999999999999" type="line"/>
      <point x="681.6" y="-0.40000000000000036" type="line"/>
      <point x="505.0" y="360.6" type="line"/>
      <point x="670.6" y="700.4" type="line"/>
      <point x="401.6" y="700.4" type="line"/>
      <point x="341.8" y="479.0" type="line"/>
      <point x="287.8" y="700.4" type="line"/>
      <point x="12.2" y="700.4" type="line"/>
      <point x="176.8" y="356.2" type="line"/>
    </contour>
  </outline>
</glyph>
<glyph name="Y" format="2">
  <advance width="698.8"/>
  <unicode hex="0059"/>
  <anchor x="349.4" y="700.0" name="top"/>
  <anchor x="349.40000000000003" y="0.0" name="bottom"/>
  <outline>
    <contour>
      <point x="232.60000000000002" y="0.0" type="line"/>
      <point x="465.6" y="0.0" type="line"/>
      <point x="465.6" y="215.2" type="line"/>
      <point x="703.2" y="700.0" type="line"/>
      <point x="440.19999999999993" y="700.0" type="line"/>
      <point x="350.2" y="355.2" type="line"/>
      <point x="260.2" y="700.0" type="line"/>
      <point x="-4.4" y="700.0" type="line"/>
      <point x="232.60000000000002" y="215.2" type="line"/>
    </contour>
  </outline>
</glyph>
<glyph name="Z" format="2">
  <advance width="654.0000000000001"/>
  <unicode hex="005A"/>
  <anchor x="327.0" y="350.0" name="center"/>
  <anchor x="327.0" y="0.0" name="bottom"/>
  <anchor x="330.59999999999997" y="700.0" name="top"/>
  <outline>
    <contour>
      <point x="20.8" y="0.0" type="line"/>
      <point x="631.4" y="0.0" type="line"/>
      <point x="631.4" y="187.20000000000002" type="line"/>
      <point x="320.6" y="187.20000000000002" type="line"/>
      <point x="320.6" y="188.6" type="line"/>
      <point x="615.4" y="516.0" type="line"/>
      <point x="615.4" y="700.0" type="line"/>
      <point x="37.599999999999994" y="700.0" type="line"/>
      <point x="37.599999999999994" y="512.8000000000001" type="line"/>
      <point x="323.0" y="512.8000000000001" type="line"/>
      <point x="323.0" y="511.40000000000003" type="line"/>
      <point x="20.8" y="184.0" type="line"/>
    </contour>
  </outline>
</glyph>
<glyph name="bracketleft" format="2">
  <advance width="343.4"/>
  <unicode hex="005B"/>
  <outline>
    <contour>
      <point x="195.4" y="-58.0" type="line"/>
      <point x="195.4" y="588.0" type="line"/>
      <point x="323.4" y="588.0" type="line"/>
      <point x="323.4" y="740.0" type="line"/>
      <point x="23.6" y="740.0" type="line"/>
      <point x="23.6" y="-210.0" type="line"/>
      <point x="323.4" y="-210.0" type="line"/>
      <point x="323.4" y="-58.0" type="line"/>
    </contour>
  </outline>
</glyph>
<glyph name="backslash" format="2">
  <advance width="492.0"/>
  <unicode hex="005C"/>
  <outline>
    <contour>
      <point x="178.0" y="740.0" type="line"/>
      <point x="-1.9999999999999991" y="740.0" type="line"/>
      <point x="314.59999999999997" y="-210.0" type="line"/>
      <point x="494.0" y="-210.0" type="line"/>
    </contour>
  </outline>
</glyph>
<glyph name="bracketright" format="2">
  <advance width="343.4"/>
  <unicode hex="005D"/>
  <outline>
    <contour>
      <point x="20.0" y="-58.0" type="line"/>
      <point x="20.0" y="-210.0" type="line"/>
      <point x="319.79999999999995" y="-210.0" type="line"/>
      <point x="319.79999999999995" y="740.0" type="line"/>
      <point x="20.0" y="740.0" type="line"/>
      <point x="20.0" y="588.0" type="line"/>
      <point x="148.0" y="588.0" type="line"/>
      <point x="148.0" y="-58.0" type="line"/>
    </contour>
  </outline>
</glyph>
<glyph name="asciicircum" format="2">
  <advance width="564.8"/>
  <unicode hex="005E"/>
  <outline>
    <contour>
      <point x="47.4" y="226.0" type="line"/>
      <point x="216.39999999999998" y="226.0" type="line"/>
      <point x="282.4" y="472.40000000000003" type="line"/>
      <point x="349.40000000000003" y="226.0" type="line"/>
      <point x="517.4000000000001" y="226.0" type="line"/>
      <point x="383.8" y="700.0" type="line"/>
      <point x="181.0" y="700.0" type="line"/>
    </contour>
  </outline>
</glyph>
<glyph name="underscore" format="2">
  <advance width="791.5999999999999"/>
  <unicode hex="005F"/>
  <outline>
    <contour>
      <point x="20.0" y="-209.4" type="line"/>
      <point x="771.5999999999999" y="-209.4" type="line"/>
      <point x="771.5999999999999" y="-41.4" type="line"/>
      <point x="20.0" y="-41.4" type="line"/>
    </contour>
  </outline>
</glyph>
<glyph name="a" format="2">
  <advance width="640.0"/>
  <unicode hex="0061"/>
  <anchor x="628.0" y="15.0" name="ogonek"/>
  <anchor x="327.0" y="0.0" name="bottom"/>
  <anchor x="316.0" y="550.0" name="top"/>
  <outline>
    <contour>
      <point x="32.0" y="170.0" type="curve" smooth="yes"/>
      <point x="32.0" y="78.0"/>
      <point x="77.0" y="-10.0"/>
      <point x="186.0" y="-10.0" type="curve" smooth="yes"/>
      <point x="288.0" y="-10.0"/>
      <point x="354.0" y="27.0"/>
      <point x="405.0" y="72.0" type="curve"/>
      <point x="424.0" y="13.0"/>
      <point x="459.0" y="-10.0"/>
      <point x="525.0" y="-10.0" type="curve" smooth="yes"/>
      <point x="573.0" y="-10.0"/>
      <point x="603.0" y="2.0"/>
      <point x="628.0" y="15.0" type="curve"/>
      <point x="618.0" y="175.0" type="line"/>
      <point x="614.0" y="174.0"/>
      <point x="607.0" y="173.0"/>
      <point x="601.0" y="173.0" type="curve" smooth="yes"/>
      <point x="581.0" y="173.0"/>
      <point x="566.0" y="185.0"/>
      <point x="566.0" y="235.0" type="curve" smooth="yes"/>
      <point x="566.0" y="322.0" type="line" smooth="yes"/>
      <point x="566.0" y="478.0"/>
      <point x="478.0" y="560.0"/>
      <point x="290.0" y="560.0" type="curve" smooth="yes"/>
      <point x="222.0" y="560.0"/>
      <point x="127.0" y="542.0"/>
      <point x="58.0" y="518.0" type="curve"/>
      <point x="94.0" y="349.0" type="line"/>
      <point x="179.0" y="374.0"/>
      <point x="231.0" y="380.0"/>
      <point x="275.0" y="380.0" type="curve" smooth="yes"/>
      <point x="346.0" y="380.0"/>
      <point x="395.0" y="359.0"/>
      <point x="395.0" y="319.0" type="curve" smooth="yes"/>
      <point x="395.0" y="352.0" type="line"/>
      <point x="147.0" y="337.0"/>
      <point x="32.0" y="315.0"/>
    </contour>
    <contour>
      <point x="203.0" y="188.0" type="curve" smooth="yes"/>
      <point x="203.0" y="249.0"/>
      <point x="269.0" y="247.0"/>
      <point x="395.0" y="245.0" type="curve"/>
      <point x="395.0" y="165.0" type="line"/>
      <point x="350.0" y="135.0"/>
      <point x="297.0" y="125.0"/>
      <point x="257.0" y="125.0" type="curve" smooth="yes"/>
      <point x="226.0" y="125.0"/>
      <point x="203.0" y="137.0"/>
    </contour>
  </outline>
</glyph>
<glyph name="b" format="2">
  <advance width="620.6"/>
  <unicode hex="0062"/>
  <outline>
    <contour>
      <point x="33.0" y="20.6" type="line"/>
      <point x="128.8" y="1.6"/>
      <point x="224.60000000000002" y="-10.0"/>
      <point x="300.0" y="-10.0" type="curve" smooth="yes"/>
      <point x="516.2" y="-10.0"/>
      <point x="603.0" y="73.4"/>
      <point x="603.0" y="288.0" type="curve" smooth="yes"/>
      <point x="603.0" y="469.79999999999995"/>
      <point x="536.8" y="560.0"/>
      <point x="408.8" y="560.0" type="curve" smooth="yes"/>
      <point x="357.79999999999995" y="560.0"/>
      <point x="306.4" y="545.0"/>
      <point x="258.0" y="516.6" type="curve"/>
      <point x="258.0" y="740.0" type="line"/>
      <point x="33.0" y="740.0" type="line"/>
    </contour>
    <contour>
      <point x="258.0" y="157.8" type="curve"/>
      <point x="258.0" y="358.8" type="line"/>
      <point x="282.40000000000003" y="368.4"/>
      <point x="303.79999999999995" y="373.2"/>
      <point x="321.8" y="373.2" type="curve" smooth="yes"/>
      <point x="355.00000000000006" y="373.2"/>
      <point x="369.8" y="351.2"/>
      <point x="369.8" y="269.8" type="curve" smooth="yes"/>
      <point x="369.8" y="175.20000000000002"/>
      <point x="351.0" y="150.0"/>
      <point x="310.8" y="150.0" type="curve" smooth="yes"/>
      <point x="293.4" y="150.0"/>
      <point x="274.8" y="152.6"/>
    </contour>
  </outline>
</glyph>
<glyph name="c" format="2">
  <advance width="545.6"/>
  <unicode hex="0063"/>
  <anchor x="313.20000000000005" y="550.0" name="top"/>
  <anchor x="316.2" y="0.0" name="bottom"/>
  <outline>
    <contour>
      <point x="17.6" y="266.59999999999997" type="curve" smooth="yes"/>
      <point x="17.6" y="80.6"/>
      <point x="109.99999999999999" y="-10.0"/>
      <point x="305.2" y="-10.0" type="curve" smooth="yes"/>
      <point x="382.8" y="-10.0"/>
      <point x="469.8" y="2.0"/>
      <point x="533.2" y="19.599999999999998" type="curve"/>
      <point x="499.0" y="196.79999999999998" type="line"/>
      <point x="443.4" y="186.8"/>
      <point x="404.0" y="182.0"/>
      <point x="356.2" y="182.0" type="curve" smooth="yes"/>
      <point x="288.59999999999997" y="182.0"/>
      <point x="250.8" y="212.2"/>
      <point x="250.8" y="275.6" type="curve" smooth="yes"/>
      <point x="250.8" y="336.6"/>
      <point x="281.4" y="365.40000000000003"/>
      <point x="350.4" y="365.40000000000003" type="curve" smooth="yes"/>
      <point x="393.6" y="365.40000000000003"/>
      <point x="440.79999999999995" y="361.0"/>
      <point x="491.4" y="351.2" type="curve"/>
      <point x="522.0" y="537.8" type="line"/>
      <point x="470.79999999999995" y="551.4"/>
      <point x="395.6" y="560.0"/>
      <point x="323.8" y="560.0" type="curve" smooth="yes"/>
      <point x="123.4" y="560.0"/>
      <point x="17.6" y="458.20000000000005"/>
    </contour>
  </outline>
</glyph>
<glyph name="d" format="2">
  <advance width="621.6"/>
  <unicode hex="0064"/>
  <anchor x="311.59999999999997" y="275.0" name="center"/>
  <anchor x="303.0" y="740.0" name="top"/>
  <anchor x="622.6" y="740.0" name="topright"/>
  <anchor x="311.59999999999997" y="0.0" name="bottom"/>
  <outline>
    <contour>
      <point x="391.20000000000005" y="-1.6" type="line"/>
      <point x="588.6" y="-1.6" type="line"/>
      <point x="588.6" y="740.0" type="line"/>
      <point x="363.0" y="740.0" type="line"/>
      <point x="363.0" y="555.8" type="line"/>
      <point x="341.8" y="558.4000000000001"/>
      <point x="317.00000000000006" y="560.0"/>
      <point x="294.79999999999995" y="560.0" type="curve" smooth="yes"/>
      <point x="106.80000000000001" y="560.0"/>
      <point x="17.6" y="462.2"/>
      <point x="17.6" y="267.4" type="curve" smooth="yes"/>
      <point x="17.6" y="87.2"/>
      <point x="85.4" y="-10.0"/>
      <point x="208.20000000000002" y="-10.0" type="curve" smooth="yes"/>
      <point x="264.6" y="-10.0"/>
      <point x="316.59999999999997" y="5.0"/>
      <point x="365.6" y="34.599999999999994" type="curve"/>
    </contour>
    <contour>
      <point x="362.6" y="187.6" type="line"/>
      <point x="340.00000000000006" y="179.8"/>
      <point x="317.40000000000003" y="175.0"/>
      <point x="300.0" y="175.0" type="curve" smooth="yes"/>
      <point x="266.2" y="175.0"/>
      <point x="251.4" y="200.0"/>
      <point x="251.4" y="290.4" type="curve" smooth="yes"/>
      <point x="251.4" y="374.8"/>
      <point x="270.20000000000005" y="398.2"/>
      <point x="309.79999999999995" y="398.2" type="curve" smooth="yes"/>
      <point x="328.2" y="398.2"/>
      <point x="345.8" y="395.59999999999997"/>
      <point x="362.6" y="388.59999999999997" type="curve"/>
    </contour>
  </outline>
</glyph>
<glyph name="e" format="2">
  <advance width="588.8000000000001"/>
  <unicode hex="0065"/>
  <anchor x="508.6" y="11.800000000000002" name="ogonek"/>
  <anchor x="295.8" y="0.0" name="bottom"/>
  <anchor x="303.6" y="550.0" name="top"/>
  <outline>
    <contour>
      <point x="310.59999999999997" y="-10.0" type="curve" smooth="yes"/>
      <point x="408.6" y="-10.0"/>
      <point x="482.4" y="0.7999999999999989"/>
      <point x="564.4" y="27.199999999999996" type="curve"/>
      <point x="538.4" y="185.79999999999998" type="line"/>
      <point x="467.2" y="171.4"/>
      <point x="403.6" y="162.6"/>
      <point x="352.8" y="162.6" type="curve" smooth="yes"/>
      <point x="272.4" y="162.6"/>
      <point x="250.0" y="179.2"/>
      <point x="249.2" y="200.4" type="curve" smooth="yes"/>
      <point x="249.2" y="202.6"/>
      <point x="249.20000000000002" y="203.79999999999998"/>
      <point x="249.20000000000002" y="206.0" type="curve"/>
      <point x="363.4" y="209.79999999999998"/>
      <point x="486.79999999999995" y="221.2"/>
      <point x="563.4" y="227.4" type="curve"/>
      <point x="564.8000000000001" y="247.6"/>
      <point x="565.4" y="278.0"/>
      <point x="565.4" y="293.8" type="curve" smooth="yes"/>
      <point x="565.4" y="481.4"/>
      <point x="485.6" y="560.0"/>
      <point x="309.0" y="560.0" type="curve" smooth="yes"/>
      <point x="138.0" y="560.0"/>
      <point x="17.6" y="478.40000000000003"/>
      <point x="17.6" y="267.40000000000003" type="curve" smooth="yes"/>
      <point x="17.6" y="65.8"/>
      <point x="127.40000000000002" y="-10.0"/>
    </contour>
    <contour>
      <point x="249.6" y="326.79999999999995" type="curve"/>
      <point x="256.0" y="390.6"/>
      <point x="270.0" y="405.8"/>
      <point x="297.6" y="405.8" type="curve" smooth="yes"/>
      <point x="327.4" y="405.8"/>
      <point x="339.79999999999995" y="390.8"/>
      <point x="343.0" y="330.0" type="curve"/>
      <point x="313.20000000000005" y="328.59999999999997"/>
      <point x="277.0" y="327.59999999999997"/>
    </contour>
  </outline>
</glyph>
<glyph name="f" format="2">
  <advance width="429.0"/>
  <unicode hex="0066"/>
  <outline>
    <contour>
      <point x="76.0" y="0.0" type="line"/>
      <point x="297.0" y="0.0" type="line"/>
      <point x="297.0" y="349.40000000000003" type="line"/>
      <point x="404.4" y="349.40000000000003" type="line"/>
      <point x="404.4" y="511.0" type="line"/>
      <point x="297.6" y="511.0" type="line"/>
      <point x="297.6" y="522.8000000000001" type="line" smooth="yes"/>
      <point x="297.6" y="560.1999999999999"/>
      <point x="318.8" y="574.6"/>
      <point x="355.8" y="574.6" type="curve" smooth="yes"/>
      <point x="378.40000000000003" y="574.6"/>
      <point x="409.40000000000003" y="570.2"/>
      <point x="434.2" y="563.0" type="curve"/>
      <point x="463.20000000000005" y="719.4" type="line"/>
      <point x="412.0" y="740.4"/>
      <point x="357.79999999999995" y="750.0"/>
      <point x="300.8" y="750.0" type="curve" smooth="yes"/>
      <point x="155.20000000000002" y="750.0"/>
      <point x="76.0" y="668.8"/>
      <point x="76.0" y="526.4" type="curve" smooth="yes"/>
      <point x="76.0" y="511.0" type="line"/>
      <point x="8.600000000000001" y="498.79999999999995" type="line"/>
      <point x="8.600000000000001" y="349.40000000000003" type="line"/>
      <point x="76.0" y="349.40000000000003" type="line"/>
    </contour>
  </outline>
</glyph>
<glyph name="g" format="2">
  <advance width="608.1999999999999"/>
  <unicode hex="0067"/>
  <anchor x="279.40000000000003" y="550.0" name="top"/>
  <anchor x="285.4" y="-214.0" name="bottom"/>
  <outline>
    <contour>
      <point x="256.8" y="-220.0" type="curve" smooth="yes"/>
      <point x="478.00000000000006" y="-220.0"/>
      <point x="587.6" y="-145.8"/>
      <point x="587.6" y="-10.0" type="curve" smooth="yes"/>
      <point x="587.6" y="86.8"/>
      <point x="520.0" y="146.8"/>
      <point x="406.6" y="146.8" type="curve" smooth="yes"/>
      <point x="229.8" y="146.8" type="line" smooth="yes"/>
      <point x="206.2" y="146.8"/>
      <point x="194.2" y="154.0"/>
      <point x="194.2" y="170.0" type="curve" smooth="yes"/>
      <point x="194.2" y="185.6"/>
      <point x="200.0" y="194.8"/>
      <point x="218.20000000000002" y="206.6" type="curve"/>
      <point x="111.8" y="231.0" type="line"/>
      <point x="61.0" y="206.0"/>
      <point x="25.200000000000003" y="166.4"/>
      <point x="25.200000000000003" y="105.19999999999999" type="curve" smooth="yes"/>
      <point x="25.200000000000003" y="15.999999999999996"/>
      <point x="109.4" y="-22.4"/>
      <point x="235.60000000000002" y="-22.4" type="curve" smooth="yes"/>
      <point x="329.2" y="-22.4" type="line" smooth="yes"/>
      <point x="374.6" y="-22.4"/>
      <point x="377.6" y="-24.8"/>
      <point x="377.6" y="-38.4" type="curve" smooth="yes"/>
      <point x="377.6" y="-55.6"/>
      <point x="342.8" y="-64.4"/>
      <point x="272.40000000000003" y="-64.4" type="curve" smooth="yes"/>
      <point x="192.20000000000002" y="-64.4"/>
      <point x="173.20000000000002" y="-58.8"/>
      <point x="173.20000000000002" y="-35.4" type="curve" smooth="yes"/>
      <point x="173.20000000000002" y="-22.799999999999997"/>
      <point x="178.4" y="-17.799999999999997"/>
      <point x="190.6" y="-10.0" type="curve"/>
      <point x="90.6" y="28.8" type="line"/>
      <point x="34.0" y="5.9999999999999964"/>
      <point x="4.2" y="-32.6"/>
      <point x="4.2" y="-87.39999999999999" type="curve" smooth="yes"/>
      <point x="4.2" y="-176.0"/>
      <point x="90.6" y="-220.0"/>
    </contour>
    <contour>
      <point x="280.0" y="172.39999999999998" type="curve" smooth="yes"/>
      <point x="448.8" y="172.39999999999998"/>
      <point x="534.1999999999999" y="237.6"/>
      <point x="534.1999999999999" y="366.4" type="curve" smooth="yes"/>
      <point x="534.1999999999999" y="495.2"/>
      <point x="448.8" y="560.4"/>
      <point x="280.0" y="560.4" type="curve" smooth="yes"/>
      <point x="111.19999999999999" y="560.4"/>
      <point x="25.800000000000004" y="495.2"/>
      <point x="25.800000000000004" y="366.4" type="curve" smooth="yes"/>
      <point x="25.800000000000004" y="237.6"/>
      <point x="111.19999999999999" y="172.39999999999998"/>
    </contour>
    <contour>
      <point x="280.0" y="308.0" type="curve" smooth="yes"/>
      <point x="249.0" y="308.0"/>
      <point x="235.8" y="318.8"/>
      <point x="235.8" y="366.4" type="curve" smooth="yes"/>
      <point x="235.8" y="414.0"/>
      <point x="249.0" y="424.8"/>
      <point x="280.0" y="424.8" type="curve" smooth="yes"/>
      <point x="311.0" y="424.8"/>
      <point x="324.2" y="414.0"/>
      <point x="324.2" y="366.4" type="curve" smooth="yes"/>
      <point x="324.2" y="318.8"/>
      <point x="311.0" y="308.0"/>
    </contour>
    <contour>
      <point x="508.0" y="396.2" type="line"/>
      <point x="517.0" y="409.8"/>
      <point x="528.8" y="417.0"/>
      <point x="543.4000000000001" y="417.0" type="curve" smooth="yes"/>
      <point x="557.2" y="417.0"/>
      <point x="571.4" y="415.0"/>
      <point x="583.4" y="412.2" type="curve"/>
      <point x="609.4" y="578.8" type="line"/>
      <point x="592.6" y="585.4"/>
      <point x="571.0" y="589.4000000000001"/>
      <point x="547.2" y="589.4000000000001" type="curve" smooth="yes"/>
      <point x="486.00000000000006" y="589.4000000000001"/>
      <point x="445.6" y="563.1999999999999"/>
      <point x="426.0" y="508.6" type="curve"/>
    </contour>
  </outline>
</glyph>
<glyph name="h" format="2">
  <advance width="606.4"/>
  <unicode hex="0068"/>
  <anchor x="299.2" y="395.0" name="center"/>
  <anchor x="303.2" y="0.0" name="bottom"/>
  <anchor x="306.40000000000003" y="740.0" name="top"/>
  <outline>
    <contour>
      <point x="33.0" y="0.0" type="line"/>
      <point x="258.0" y="0.0" type="line"/>
      <point x="258.0" y="358.8" type="line"/>
      <point x="278.0" y="367.0"/>
      <point x="294.40000000000003" y="371.8"/>
      <point x="310.20000000000005" y="371.8" type="curve" smooth="yes"/>
      <point x="331.8" y="371.8"/>
      <point x="349.0" y="360.2"/>
      <point x="349.0" y="320.2" type="curve" smooth="yes"/>
      <point x="349.0" y="0.0" type="line"/>
      <point x="574.5999999999999" y="0.0" type="line"/>
      <point x="574.5999999999999" y="393.40000000000003" type="line" smooth="yes"/>
      <point x="574.5999999999999" y="497.6"/>
      <point x="518.2" y="560.0"/>
      <point x="408.0" y="560.0" type="curve" smooth="yes"/>
      <point x="357.2" y="560.0"/>
      <point x="310.40000000000003" y="544.6"/>
      <point x="258.0" y="508.8" type="curve"/>
      <point x="258.0" y="740.0" type="line"/>
      <point x="33.0" y="740.0" type="line"/>
    </contour>
  </outline>
</glyph>
<glyph name="i" format="2">
  <advance width="291.0"/>
  <unicode hex="0069"/>
  <anchor x="258.0" y="0.0" name="ogonek"/>
  <anchor x="145.8" y="0.0" name="bottom"/>
  <outline>
    <contour>
      <point x="145.8" y="569.4" type="curve" smooth="yes"/>
      <point x="236.20000000000002" y="569.4"/>
      <point x="276.6" y="606.8"/>
      <point x="276.6" y="679.4" type="curve" smooth="yes"/>
      <point x="276.6" y="753.2"/>
      <point x="235.0" y="790.0"/>
      <point x="145.8" y="790.0" type="curve" smooth="yes"/>
      <point x="56.0" y="790.0"/>
      <point x="14.399999999999995" y="753.2"/>
      <point x="14.399999999999995" y="679.4" type="curve" smooth="yes"/>
      <point x="14.399999999999995" y="606.2"/>
      <point x="56.0" y="569.4"/>
    </contour>
    <contour>
      <point x="33.0" y="0.0" type="line"/>
      <point x="258.0" y="0.0" type="line"/>
      <point x="258.0" y="550.0" type="line"/>
      <point x="33.0" y="550.0" type="line"/>
    </contour>
  </outline>
</glyph>
<glyph name="j" format="2">
  <advance width="302.2"/>
  <unicode hex="006A"/>
  <outline>
    <contour>
      <point x="269.2" y="550.0" type="line"/>
      <point x="44.2" y="550.0" type="line"/>
      <point x="44.2" y="46.6" type="line" smooth="yes"/>
      <point x="44.2" y="-7.4"/>
      <point x="28.400000000000006" y="-23.4"/>
      <point x="-12.0" y="-23.4" type="curve" smooth="yes"/>
      <point x="-21.2" y="-23.4"/>
      <point x="-29.2" y="-21.6"/>
      <point x="-40.2" y="-18.6" type="curve"/>
      <point x="-60.4" y="-207.20000000000002" type="line"/>
      <point x="-26.8" y="-215.2"/>
      <point x="15.200000000000001" y="-220.0"/>
      <point x="44.8" y="-220.0" type="curve" smooth="yes"/>
      <point x="205.8" y="-220.0"/>
      <point x="269.2" y="-133.2"/>
      <point x="269.2" y="34.2" type="curve" smooth="yes"/>
    </contour>
    <contour>
      <point x="157.0" y="569.4" type="curve" smooth="yes"/>
      <point x="247.4" y="569.4"/>
      <point x="287.8" y="606.8"/>
      <point x="287.8" y="679.4" type="curve" smooth="yes"/>
      <point x="287.8" y="753.2"/>
      <point x="246.2" y="790.0"/>
      <point x="157.0" y="790.0" type="curve" smooth="yes"/>
      <point x="67.2" y="790.0"/>
      <point x="25.6" y="753.2"/>
      <point x="25.6" y="679.4" type="curve" smooth="yes"/>
      <point x="25.6" y="606.2"/>
      <point x="67.2" y="569.4"/>
    </contour>
  </outline>
</glyph>
<glyph name="k" format="2">
  <advance width="625.0"/>
  <unicode hex="006B"/>
  <anchor x="133.0" y="740.0" name="top"/>
  <anchor x="311.0" y="0.0" name="bottom"/>
  <outline>
    <contour>
      <point x="558.0" y="-12.0" type="curve" smooth="yes"/>
      <point x="572.0" y="-12.0"/>
      <point x="586.0" y="-11.0"/>
      <point x="603.0" y="-8.0" type="curve"/>
      <point x="602.0" y="181.0" type="line"/>
      <point x="598.0" y="181.0"/>
      <point x="596.0" y="181.0"/>
      <point x="594.0" y="181.0" type="curve" smooth="yes"/>
      <point x="554.0" y="181.0"/>
      <point x="506.0" y="213.0"/>
      <point x="399.0" y="303.0" type="curve" smooth="yes"/>
      <point x="215.0" y="459.0" type="line"/>
      <point x="215.0" y="740.0" type="line"/>
      <point x="51.0" y="740.0" type="line"/>
      <point x="51.0" y="0.0" type="line"/>
      <point x="215.0" y="0.0" type="line"/>
      <point x="215.0" y="189.0" type="line"/>
      <point x="357.0" y="81.0" type="line" smooth="yes"/>
      <point x="454.0" y="7.0"/>
      <point x="500.0" y="-12.0"/>
    </contour>
    <contour>
      <point x="354.0" y="223.0" type="line"/>
      <point x="466.0" y="327.0"/>
      <point x="572.0" y="451.0"/>
      <point x="604.0" y="547.0" type="curve"/>
      <point x="437.0" y="559.0" type="line"/>
      <point x="412.0" y="470.0"/>
      <point x="339.0" y="409.0"/>
      <point x="246.0" y="331.0" type="curve"/>
    </contour>
  </outline>
</glyph>
<glyph name="l" format="2">
  <advance width="354.2"/>
  <unicode hex="006C"/>
  <anchor x="177.0" y="395.0" name="center"/>
  <anchor x="145.8" y="740.0" name="top"/>
  <anchor x="292.0" y="740.0" name="topright"/>
  <anchor x="191.6" y="0.0" name="bottom"/>
  <outline>
    <contour>
      <point x="258.0" y="740.0" type="line"/>
      <point x="33.0" y="740.0" type="line"/>
      <point x="33.0" y="203.8" type="line" smooth="yes"/>
      <point x="33.0" y="49.0"/>
      <point x="94.2" y="-10.0"/>
      <point x="223.60000000000002" y="-10.0" type="curve" smooth="yes"/>
      <point x="277.8" y="-10.0"/>
      <point x="322.4" y="4.0"/>
      <point x="356.40000000000003" y="19.6" type="curve"/>
      <point x="336.8" y="189.4" type="line"/>
      <point x="319.0" y="185.20000000000002"/>
      <point x="305.0" y="182.6"/>
      <point x="294.2" y="182.6" type="curve" smooth="yes"/>
      <point x="271.2" y="182.6"/>
      <point x="258.0" y="190.4"/>
      <point x="258.0" y="225.6" type="curve" smooth="yes"/>
    </contour>
  </outline>
</glyph>
<glyph name="m" format="2">
  <advance width="895.6"/>
  <unicode hex="006D"/>
  <outline>
    <contour>
      <point x="33.0" y="0.0" type="line"/>
      <point x="258.6" y="0.0" type="line"/>
      <point x="258.6" y="358.8" type="line"/>
      <point x="272.8" y="365.59999999999997"/>
      <point x="286.2" y="369.8"/>
      <point x="298.8" y="369.8" type="curve" smooth="yes"/>
      <point x="320.8" y="369.8"/>
      <point x="335.6" y="355.4"/>
      <point x="335.6" y="320.2" type="curve" smooth="yes"/>
      <point x="335.6" y="0.0" type="line"/>
      <point x="561.2" y="0.0" type="line"/>
      <point x="561.2" y="338.6" type="line" smooth="yes"/>
      <point x="561.2" y="345.0"/>
      <point x="561.1999999999999" y="352.4"/>
      <point x="560.8" y="358.8" type="curve"/>
      <point x="578.5999999999999" y="366.4"/>
      <point x="591.1999999999999" y="370.2"/>
      <point x="603.0" y="370.2" type="curve" smooth="yes"/>
      <point x="624.6" y="370.2"/>
      <point x="638.2" y="356.2"/>
      <point x="638.2" y="320.2" type="curve" smooth="yes"/>
      <point x="638.2" y="0.0" type="line"/>
      <point x="863.8" y="0.0" type="line"/>
      <point x="863.8" y="396.4" type="line" smooth="yes"/>
      <point x="863.8" y="498.2"/>
      <point x="806.8" y="560.0"/>
      <point x="710.0000000000001" y="560.0" type="curve" smooth="yes"/>
      <point x="654.4" y="560.0"/>
      <point x="606.8000000000001" y="547.0"/>
      <point x="528.6" y="497.79999999999995" type="curve"/>
      <point x="504.0" y="540.2"/>
      <point x="465.8" y="560.0"/>
      <point x="401.4" y="560.0" type="curve" smooth="yes"/>
      <point x="351.4" y="560.0"/>
      <point x="298.59999999999997" y="545.4"/>
      <point x="236.0" y="502.8" type="curve"/>
      <point x="236.0" y="550.0" type="line"/>
      <point x="33.0" y="550.0" type="line"/>
    </contour>
  </outline>
</glyph>
<glyph name="n" format="2">
  <advance width="607.0"/>
  <unicode hex="006E"/>
  <anchor x="299.8" y="550.0" name="top"/>
  <anchor x="299.8" y="0.0" name="bottom"/>
  <outline>
    <contour>
      <point x="33.0" y="0.0" type="line"/>
      <point x="258.6" y="0.0" type="line"/>
      <point x="258.6" y="358.8" type="line"/>
      <point x="278.0" y="366.4"/>
      <point x="295.0" y="371.8"/>
      <point x="310.80000000000007" y="371.8" type="curve" smooth="yes"/>
      <point x="332.40000000000003" y="371.8"/>
      <point x="349.6" y="360.2"/>
      <point x="349.6" y="320.2" type="curve" smooth="yes"/>
      <point x="349.6" y="0.0" type="line"/>
      <point x="575.1999999999999" y="0.0" type="line"/>
      <point x="575.1999999999999" y="396.40000000000003" type="line" smooth="yes"/>
      <point x="575.1999999999999" y="492.2"/>
      <point x="523.0" y="560.0"/>
      <point x="408.59999999999997" y="560.0" type="curve" smooth="yes"/>
      <point x="350.59999999999997" y="560.0"/>
      <point x="301.8" y="545.0"/>
      <point x="236.0" y="502.8" type="curve"/>
      <point x="236.0" y="550.0" type="line"/>
      <point x="33.0" y="550.0" type="line"/>
    </contour>
  </outline>
</glyph>
<glyph name="o" format="2">
  <advance width="607.5999999999999"/>
  <unicode hex="006F"/>
  <anchor x="417.2" y="6.4" name="ogonek"/>
  <anchor x="303.79999999999995" y="550.0" name="top"/>
  <anchor x="479.59999999999997" y="540.0" name="topright"/>
  <anchor x="304.2" y="0.0" name="bottom"/>
  <outline>
    <contour>
      <point x="17.6" y="276.40000000000003" type="curve" smooth="yes"/>
      <point x="17.6" y="106.6"/>
      <point x="87.6" y="-10.0"/>
      <point x="304.2" y="-10.0" type="curve" smooth="yes"/>
      <point x="520.0" y="-10.0"/>
      <point x="590.0" y="106.6"/>
      <point x="590.0" y="276.40000000000003" type="curve" smooth="yes"/>
      <point x="590.0" y="441.0"/>
      <point x="527.2" y="560.0"/>
      <point x="304.2" y="560.0" type="curve" smooth="yes"/>
      <point x="80.4" y="560.0"/>
      <point x="17.6" y="441.0"/>
    </contour>
    <contour>
      <point x="250.0" y="276.0" type="curve" smooth="yes"/>
      <point x="250.0" y="367.4"/>
      <point x="262.40000000000003" y="391.59999999999997"/>
      <point x="303.79999999999995" y="391.59999999999997" type="curve" smooth="yes"/>
      <point x="345.0" y="391.59999999999997"/>
      <point x="357.6" y="367.4"/>
      <point x="357.6" y="276.0" type="curve" smooth="yes"/>
      <point x="357.6" y="182.6"/>
      <point x="342.6" y="159.0"/>
      <point x="303.79999999999995" y="159.0" type="curve" smooth="yes"/>
      <point x="264.4" y="159.0"/>
      <point x="250.0" y="182.6"/>
    </contour>
  </outline>
</glyph>
<glyph name="p" format="2">
  <advance width="621.2"/>
  <unicode hex="0070"/>
  <outline>
    <contour>
      <point x="33.0" y="-210.0" type="line"/>
      <point x="259.0" y="-210.0" type="line"/>
      <point x="259.0" y="-5.8" type="line"/>
      <point x="281.0" y="-8.399999999999999"/>
      <point x="305.8" y="-10.0"/>
      <point x="326.40000000000003" y="-10.0" type="curve" smooth="yes"/>
      <point x="514.4" y="-10.0"/>
      <point x="603.6" y="88.4"/>
      <point x="603.6" y="283.20000000000005" type="curve" smooth="yes"/>
      <point x="603.6" y="463.79999999999995"/>
      <point x="536.1999999999999" y="560.0"/>
      <point x="413.0" y="560.0" type="curve" smooth="yes"/>
      <point x="355.0" y="560.0"/>
      <point x="301.4" y="544.4"/>
      <point x="243.2" y="509.8" type="curve"/>
      <point x="236.0" y="550.0" type="line"/>
      <point x="33.0" y="550.0" type="line"/>
    </contour>
    <contour>
      <point x="311.40000000000003" y="152.4" type="curve" smooth="yes"/>
      <point x="293.4" y="152.4"/>
      <point x="274.8" y="155.6"/>
      <point x="258.6" y="162.0" type="curve"/>
      <point x="258.6" y="363.0" type="line"/>
      <point x="281.8" y="371.4"/>
      <point x="303.79999999999995" y="375.59999999999997"/>
      <point x="321.2" y="375.59999999999997" type="curve" smooth="yes"/>
      <point x="355.00000000000006" y="375.59999999999997"/>
      <point x="369.8" y="352.4"/>
      <point x="369.8" y="260.20000000000005" type="curve" smooth="yes"/>
      <point x="369.8" y="176.4"/>
      <point x="351.0" y="152.4"/>
    </contour>
  </outline>
</glyph>
<glyph name="q" format="2">
  <advance width="621.8"/>
  <unicode hex="0071"/>
  <outline>
    <contour>
      <point x="588.8" y="531.8" type="line"/>
      <point x="497.79999999999995" y="549.6"/>
      <point x="401.4" y="560.0"/>
      <point x="321.79999999999995" y="560.0" type="curve" smooth="yes"/>
      <point x="111.60000000000001" y="560.0"/>
      <point x="17.6" y="472.40000000000003"/>
      <point x="17.6" y="278.79999999999995" type="curve" smooth="yes"/>
      <point x="17.6" y="83.2"/>
      <point x="83.20000000000002" y="-10.0"/>
      <point x="213.0" y="-10.0" type="curve" smooth="yes"/>
      <point x="265.20000000000005" y="-10.0"/>
      <point x="316.6" y="5.000000000000001"/>
      <point x="363.8" y="32.800000000000004" type="curve"/>
      <point x="363.8" y="-210.0" type="line"/>
      <point x="588.8" y="-210.0" type="line"/>
    </contour>
    <contour>
      <point x="363.2" y="391.0" type="curve"/>
      <point x="363.2" y="190.0" type="line"/>
      <point x="340.00000000000006" y="181.0"/>
      <point x="318.0" y="175.60000000000002"/>
      <point x="300.0" y="175.60000000000002" type="curve" smooth="yes"/>
      <point x="266.8" y="175.60000000000002"/>
      <point x="252.0" y="197.6"/>
      <point x="252.0" y="279.0" type="curve" smooth="yes"/>
      <point x="252.0" y="373.59999999999997"/>
      <point x="270.8" y="398.8"/>
      <point x="311.0" y="398.8" type="curve" smooth="yes"/>
      <point x="328.20000000000005" y="398.8"/>
      <point x="347.00000000000006" y="396.2"/>
    </contour>
  </outline>
</glyph>
<glyph name="r" format="2">
  <advance width="444.8"/>
  <unicode hex="0072"/>
  <anchor x="227.0" y="550.0" name="top"/>
  <anchor x="145.2" y="0.0" name="bottom"/>
  <outline>
    <contour>
      <point x="235.4" y="550.0" type="line"/>
      <point x="33.0" y="550.0" type="line"/>
      <point x="33.0" y="0.0" type="line"/>
      <point x="257.4" y="0.0" type="line"/>
      <point x="257.4" y="335.8" type="line"/>
      <point x="289.8" y="350.0"/>
      <point x="314.4" y="353.59999999999997"/>
      <point x="339.0" y="353.59999999999997" type="curve" smooth="yes"/>
      <point x="357.8" y="353.59999999999997"/>
      <point x="381.0" y="351.2"/>
      <point x="406.0" y="345.2" type="curve"/>
      <point x="440.6" y="549.4" type="line"/>
      <point x="414.40000000000003" y="557.4000000000001"/>
      <point x="393.2" y="560.0"/>
      <point x="375.40000000000003" y="560.0" type="curve" smooth="yes"/>
      <point x="318.8" y="560.0"/>
      <point x="290.0" y="541.0"/>
      <point x="235.4" y="489.0" type="curve"/>
    </contour>
  </outline>
</glyph>
<glyph name="t" format="2">
  <advance width="432.2"/>
  <unicode hex="0074"/>
  <anchor x="208.79999999999998" y="275.0" name="center"/>
  <anchor x="196.4" y="658.4" name="top"/>
  <anchor x="327.4" y="775.0" name="topright"/>
  <anchor x="237.79999999999998" y="0.0" name="bottom"/>
  <outline>
    <contour>
      <point x="251.99999999999997" y="-10.0" type="curve" smooth="yes"/>
      <point x="307.8" y="-10.0"/>
      <point x="364.20000000000005" y="-2.9999999999999996"/>
      <point x="425.40000000000003" y="17.8" type="curve"/>
      <point x="396.2" y="188.0" type="line"/>
      <point x="368.2" y="182.8"/>
      <point x="349.4" y="179.4"/>
      <point x="333.6" y="179.4" type="curve" smooth="yes"/>
      <point x="309.0" y="179.4"/>
      <point x="296.0" y="189.20000000000002"/>
      <point x="296.0" y="229.20000000000002" type="curve" smooth="yes"/>
      <point x="296.0" y="388.40000000000003" type="line"/>
      <point x="400.8" y="388.40000000000003" type="line"/>
      <point x="400.8" y="550.0" type="line"/>
      <point x="296.0" y="550.0" type="line"/>
      <point x="296.0" y="658.4" type="line"/>
      <point x="96.8" y="658.4" type="line"/>
      <point x="71.0" y="550.0" type="line"/>
      <point x="4.6" y="538.4" type="line"/>
      <point x="4.6" y="389.0" type="line"/>
      <point x="71.0" y="389.0" type="line"/>
      <point x="71.0" y="210.4" type="line" smooth="yes"/>
      <point x="71.0" y="51.6"/>
      <point x="137.2" y="-10.0"/>
    </contour>
  </outline>
</glyph>
<glyph name="u" format="2">
  <advance width="626.1999999999999"/>
  <unicode hex="0075"/>
  <anchor x="625.0" y="23.8" name="ogonek"/>
  <anchor x="307.8" y="550.0" name="top"/>
  <anchor x="573.4" y="550.0" name="topright"/>
  <anchor x="313.8" y="0.0" name="bottom"/>
  <outline>
    <contour>
      <point x="203.8" y="-10.0" type="curve" smooth="yes"/>
      <point x="268.6" y="-10.0"/>
      <point x="321.0" y="9.199999999999998"/>
      <point x="375.40000000000003" y="43.8" type="curve"/>
      <point x="401.6" y="10.6"/>
      <point x="434.4" y="-10.0"/>
      <point x="493.6" y="-10.0" type="curve" smooth="yes"/>
      <point x="547.2" y="-10.0"/>
      <point x="596.2" y="5.6"/>
      <point x="625.0" y="23.8" type="curve"/>
      <point x="608.8000000000001" y="184.4" type="line"/>
      <point x="603.4" y="182.2"/>
      <point x="597.0" y="181.2"/>
      <point x="591.0" y="181.2" type="curve" smooth="yes"/>
      <point x="580.4" y="181.2"/>
      <point x="573.4" y="187.6"/>
      <point x="573.4" y="208.6" type="curve" smooth="yes"/>
      <point x="573.4" y="550.0" type="line"/>
      <point x="348.40000000000003" y="550.0" type="line"/>
      <point x="348.40000000000003" y="188.79999999999998" type="line"/>
      <point x="327.0" y="179.4"/>
      <point x="313.79999999999995" y="176.60000000000002"/>
      <point x="297.4" y="176.60000000000002" type="curve" smooth="yes"/>
      <point x="275.0" y="176.60000000000002"/>
      <point x="257.4" y="188.2"/>
      <point x="257.4" y="224.2" type="curve" smooth="yes"/>
      <point x="257.4" y="550.0" type="line"/>
      <point x="31.8" y="550.0" type="line"/>
      <point x="31.8" y="168.6" type="line" smooth="yes"/>
      <point x="31.8" y="45.2"/>
      <point x="102.39999999999999" y="-10.0"/>
    </contour>
  </outline>
</glyph>
<glyph name="w" format="2">
  <advance width="855.8"/>
  <unicode hex="0077"/>
  <anchor x="427.6" y="550.0" name="top"/>
  <anchor x="427.6" y="0.0" name="bottom"/>
  <outline>
    <contour>
      <point x="114.6" y="0.0" type="line"/>
      <point x="383.2" y="0.0" type="line"/>
      <point x="424.4" y="309.4" type="line"/>
      <point x="471.2" y="0.0" type="line"/>
      <point x="732.8" y="0.0" type="line"/>
      <point x="848.2" y="549.8" type="line"/>
      <point x="626.6" y="550.4" type="line"/>
      <point x="596.8" y="191.0" type="line"/>
      <point x="547.4" y="550.0" type="line"/>
      <point x="307.4" y="550.0" type="line"/>
      <point x="259.0" y="191.2" type="line"/>
      <point x="233.8" y="550.4" type="line"/>
      <point x="6.6" y="549.8" type="line"/>
    </contour>
  </outline>
</glyph>
<glyph name="x" format="2">
  <advance width="630.2"/>
  <unicode hex="0078"/>
  <outline>
    <contour>
      <point x="1.1999999999999993" y="0.39999999999999947" type="line"/>
      <point x="273.8" y="0.19999999999999996" type="line"/>
      <point x="321.0" y="171.8" type="line"/>
      <point x="368.8" y="0.19999999999999996" type="line"/>
      <point x="630.6" y="0.39999999999999947" type="line"/>
      <point x="474.6" y="283.6" type="line"/>
      <point x="622.4" y="550.4" type="line"/>
      <point x="367.6" y="550.6" type="line"/>
      <point x="319.6" y="376.8" type="line"/>
      <point x="275.6" y="550.0" type="line"/>
      <point x="15.0" y="550.0" type="line"/>
      <point x="160.8" y="278.8" type="line"/>
    </contour>
  </outline>
</glyph>
<glyph name="z" format="2">
  <advance width="556.4"/>
  <unicode hex="007A"/>
  <anchor x="280.0" y="550.0" name="top"/>
  <outline>
    <contour>
      <point x="23.200000000000003" y="0.0" type="line"/>
      <point x="531.8" y="0.0" type="line"/>
      <point x="531.8" y="172.20000000000002" type="line"/>
      <point x="301.4" y="172.20000000000002" type="line"/>
      <point x="519.2" y="399.0" type="line"/>
      <point x="519.2" y="550.0" type="line"/>
      <point x="37.6" y="550.0" type="line"/>
      <point x="37.6" y="379.0" type="line"/>
      <point x="244.99999999999997" y="379.0" type="line"/>
      <point x="23.200000000000003" y="152.8" type="line"/>
    </contour>
  </outline>
</glyph>
<glyph name="braceleft" format="2">
  <advance width="343.40000000000003"/>
  <unicode hex="007B"/>
  <outline>
    <contour>
      <point x="40.800000000000004" y="-33.6" type="curve" smooth="yes"/>
      <point x="40.800000000000004" y="-163.6"/>
      <point x="124.0" y="-210.6"/>
      <point x="215.2" y="-210.6" type="curve" smooth="yes"/>
      <point x="323.4" y="-210.6" type="line"/>
      <point x="323.4" y="-58.6" type="line"/>
      <point x="275.2" y="-58.6" type="line" smooth="yes"/>
      <point x="245.2" y="-58.6"/>
      <point x="231.6" y="-39.6"/>
      <point x="231.6" y="-6.6" type="curve" smooth="yes"/>
      <point x="231.6" y="36.4"/>
      <point x="262.0" y="80.39999999999999"/>
      <point x="262.0" y="132.4" type="curve" smooth="yes"/>
      <point x="262.0" y="180.4"/>
      <point x="248.0" y="227.20000000000002"/>
      <point x="184.0" y="265.0" type="curve"/>
      <point x="248.0" y="301.8"/>
      <point x="262.0" y="349.0"/>
      <point x="262.0" y="397.0" type="curve" smooth="yes"/>
      <point x="262.0" y="449.0"/>
      <point x="231.6" y="493.0"/>
      <point x="231.6" y="536.0" type="curve" smooth="yes"/>
      <point x="231.6" y="569.0"/>
      <point x="245.2" y="588.0"/>
      <point x="275.2" y="588.0" type="curve" smooth="yes"/>
      <point x="323.4" y="588.0" type="line"/>
      <point x="323.4" y="740.0" type="line"/>
      <point x="215.2" y="740.0" type="line" smooth="yes"/>
      <point x="124.0" y="740.0"/>
      <point x="40.800000000000004" y="693.0"/>
      <point x="40.800000000000004" y="563.0" type="curve" smooth="yes"/>
      <point x="40.800000000000004" y="476.0"/>
      <point x="78.2" y="432.0"/>
      <point x="78.2" y="390.0" type="curve" smooth="yes"/>
      <point x="78.2" y="358.0"/>
      <point x="70.4" y="343.0"/>
      <point x="40.4" y="343.0" type="curve" smooth="yes"/>
      <point x="23.599999999999998" y="343.0" type="line"/>
      <point x="23.599999999999998" y="186.4" type="line"/>
      <point x="40.4" y="186.4" type="line" smooth="yes"/>
      <point x="70.4" y="186.4"/>
      <point x="78.2" y="171.4"/>
      <point x="78.2" y="139.4" type="curve" smooth="yes"/>
      <point x="78.2" y="97.39999999999999"/>
      <point x="40.800000000000004" y="53.400000000000006"/>
    </contour>
  </outline>
</glyph>
<glyph name="bar" format="2">
  <advance width="246.0"/>
  <unicode hex="007C"/>
  <outline>
    <contour>
      <point x="214.0" y="790.6" type="line"/>
      <point x="32.0" y="790.6" type="line"/>
      <point x="32.0" y="-210.0" type="line"/>
      <point x="214.0" y="-210.0" type="line"/>
    </contour>
  </outline>
</glyph>
<glyph name="braceright" format="2">
  <advance width="343.40000000000003"/>
  <unicode hex="007D"/>
  <outline>
    <contour>
      <point x="20.0" y="-58.6" type="line"/>
      <point x="20.0" y="-210.6" type="line"/>
      <point x="128.2" y="-210.6" type="line" smooth="yes"/>
      <point x="219.4" y="-210.6"/>
      <point x="302.6" y="-163.6"/>
      <point x="302.6" y="-33.6" type="curve" smooth="yes"/>
      <point x="302.6" y="53.400000000000006"/>
      <point x="265.2" y="97.39999999999999"/>
      <point x="265.2" y="139.4" type="curve" smooth="yes"/>
      <point x="265.2" y="171.4"/>
      <point x="273.0" y="186.4"/>
      <point x="303.0" y="186.4" type="curve" smooth="yes"/>
      <point x="319.8" y="186.4" type="line"/>
      <point x="319.8" y="343.0" type="line"/>
      <point x="303.0" y="343.0" type="line" smooth="yes"/>
      <point x="273.0" y="343.0"/>
      <point x="265.2" y="358.0"/>
      <point x="265.2" y="390.0" type="curve" smooth="yes"/>
      <point x="265.2" y="432.0"/>
      <point x="302.6" y="476.0"/>
      <point x="302.6" y="563.0" type="curve" smooth="yes"/>
      <point x="302.6" y="693.0"/>
      <point x="219.4" y="740.0"/>
      <point x="128.2" y="740.0" type="curve" smooth="yes"/>
      <point x="20.0" y="740.0" type="line"/>
      <point x="20.0" y="588.0" type="line"/>
      <point x="58.0" y="588.0" type="line" smooth="yes"/>
      <point x="88.0" y="588.0"/>
      <point x="101.6" y="569.0"/>
      <point x="101.6" y="536.0" type="curve" smooth="yes"/>
      <point x="101.6" y="493.0"/>
      <point x="71.2" y="449.0"/>
      <point x="71.2" y="397.0" type="curve" smooth="yes"/>
      <point x="71.2" y="349.0"/>
      <point x="85.2" y="301.8"/>
      <point x="149.2" y="265.0" type="curve"/>
      <point x="85.19999999999999" y="227.20000000000002"/>
      <point x="71.2" y="180.4"/>
      <point x="71.2" y="132.4" type="curve" smooth="yes"/>
      <point x="71.2" y="80.39999999999999"/>
      <point x="101.6" y="36.4"/>
      <point x="101.6" y="-6.6" type="curve" smooth="yes"/>
      <point x="101.6" y="-39.6"/>
      <point x="88.0" y="-58.6"/>
      <point x="58.0" y="-58.6" type="curve" smooth="yes"/>
    </contour>
  </outline>
</glyph>
<glyph name="asciitilde" format="2">
  <advance width="564.8"/>
  <unicode hex="007E"/>
  <outline>
    <contour>
      <point x="509.6" y="228.6" type="curve"/>
      <point x="509.6" y="404.6" type="line"/>
      <point x="481.2" y="378.6"/>
      <point x="447.6" y="368.6"/>
      <point x="407.8" y="368.6" type="curve" smooth="yes"/>
      <point x="300.6" y="368.6"/>
      <point x="251.0" y="440.6"/>
      <point x="163.6" y="440.6" type="curve" smooth="yes"/>
      <point x="101.6" y="440.6"/>
      <point x="63.8" y="411.6"/>
      <point x="55.6" y="404.59999999999997" type="curve"/>
      <point x="55.6" y="228.6" type="line"/>
      <point x="74.6" y="242.0"/>
      <point x="108.39999999999999" y="263.0"/>
      <point x="159.2" y="263.0" type="curve" smooth="yes"/>
      <point x="251.0" y="263.0"/>
      <point x="305.4" y="190.6"/>
      <point x="408.20000000000005" y="190.6" type="curve" smooth="yes"/>
      <point x="446.4" y="190.6"/>
      <point x="483.2" y="204.2"/>
    </contour>
  </outline>
</glyph>
<glyph name="exclamdown" format="2">
  <advance width="276.0"/>
  <unicode hex="00A1"/>
  <outline>
    <contour>
      <point x="235.8" y="290.6" type="line"/>
      <point x="44.2" y="290.6" type="line"/>
      <point x="26.600000000000005" y="-190.4" type="line"/>
      <point x="251.6" y="-190.4" type="line"/>
    </contour>
    <contour>
      <point x="259.0" y="444.2" type="curve" smooth="yes"/>
      <point x="259.0" y="521.0"/>
      <point x="224.2" y="560.0"/>
      <point x="138.0" y="560.0" type="curve" smooth="yes"/>
      <point x="51.8" y="560.0"/>
      <point x="17.0" y="521.0"/>
      <point x="17.0" y="444.2" type="curve" smooth="yes"/>
      <point x="17.0" y="366.4"/>
      <point x="51.8" y="327.4"/>
      <point x="138.0" y="327.4" type="curve" smooth="yes"/>
      <point x="224.2" y="327.4"/>
      <point x="259.0" y="366.4"/>
    </contour>
  </outline>
</glyph>
<glyph name="cent" format="2">
  <advance width="672.0"/>
  <unicode hex="00A2"/>
  <outline>
    <contour>
      <point x="360.00000000000006" y="-10.6" type="curve" smooth="yes"/>
      <point x="437.8" y="-10.6"/>
      <point x="518.0" y="0.20000000000000018"/>
      <point x="581.2" y="19.6" type="curve"/>
      <point x="547.4000000000001" y="196.8" type="line"/>
      <point x="494.79999999999995" y="186.20000000000002"/>
      <point x="457.2" y="182.0"/>
      <point x="416.79999999999995" y="182.0" type="curve" smooth="yes"/>
      <point x="353.4" y="182.0"/>
      <point x="317.0" y="210.0"/>
      <point x="317.0" y="272.0" type="curve" smooth="yes"/>
      <point x="317.0" y="338.8"/>
      <point x="347.0" y="365.40000000000003"/>
      <point x="408.0" y="365.40000000000003" type="curve" smooth="yes"/>
      <point x="452.79999999999995" y="365.40000000000003"/>
      <point x="496.6" y="359.8"/>
      <point x="540.2" y="351.2" type="curve"/>
      <point x="570.4" y="537.8" type="line"/>
      <point x="517.5999999999999" y="549.8"/>
      <point x="456.00000000000006" y="561.2"/>
      <point x="372.2" y="561.2" type="curve" smooth="yes"/>
      <point x="158.79999999999998" y="561.2"/>
      <point x="89.4" y="422.8"/>
      <point x="89.4" y="266.0" type="curve" smooth="yes"/>
      <point x="89.4" y="84.60000000000001"/>
      <point x="182.20000000000002" y="-10.6"/>
    </contour>
    <contour>
      <point x="262.40000000000003" y="-105.6" type="line"/>
      <point x="439.40000000000003" y="-105.6" type="line"/>
      <point x="439.40000000000003" y="11.6" type="line"/>
      <point x="262.40000000000003" y="19.4" type="line"/>
    </contour>
    <contour>
      <point x="262.40000000000003" y="527.4000000000001" type="line"/>
      <point x="439.40000000000003" y="540.6" type="line"/>
      <point x="439.40000000000003" y="654.4" type="line"/>
      <point x="262.40000000000003" y="654.4" type="line"/>
    </contour>
  </outline>
</glyph>
<glyph name="sterling" format="2">
  <advance width="672.0"/>
  <unicode hex="00A3"/>
  <outline>
    <contour>
      <point x="81.0" y="0.0" type="line"/>
      <point x="595.2" y="0.0" type="line"/>
      <point x="595.2" y="176.0" type="line"/>
      <point x="336.0" y="176.0" type="line"/>
      <point x="365.20000000000005" y="196.6"/>
      <point x="394.8" y="233.20000000000002"/>
      <point x="394.8" y="278.59999999999997" type="curve" smooth="yes"/>
      <point x="394.8" y="338.2"/>
      <point x="345.0" y="403.2"/>
      <point x="345.0" y="450.0" type="curve" smooth="yes"/>
      <point x="345.0" y="501.2"/>
      <point x="385.0" y="517.0"/>
      <point x="426.0" y="517.0" type="curve" smooth="yes"/>
      <point x="481.40000000000003" y="517.0"/>
      <point x="524.8" y="510.40000000000003"/>
      <point x="564.5999999999999" y="498.0" type="curve"/>
      <point x="594.8" y="671.4" type="line"/>
      <point x="532.2" y="697.0"/>
      <point x="473.40000000000003" y="710.0"/>
      <point x="391.0" y="710.0" type="curve" smooth="yes"/>
      <point x="207.8" y="710.0"/>
      <point x="113.20000000000002" y="634.6"/>
      <point x="113.20000000000002" y="517.6" type="curve" smooth="yes"/>
      <point x="113.20000000000002" y="412.59999999999997"/>
      <point x="181.00000000000003" y="354.6"/>
      <point x="181.00000000000003" y="266.8" type="curve" smooth="yes"/>
      <point x="181.00000000000003" y="221.4"/>
      <point x="152.8" y="180.6"/>
      <point x="81.0" y="138.0" type="curve"/>
    </contour>
    <contour>
      <point x="76.2" y="298.4" type="line"/>
      <point x="528.8" y="298.4" type="line"/>
      <point x="528.8" y="397.4" type="line"/>
      <point x="76.2" y="397.4" type="line"/>
    </contour>
  </outline>
</glyph>
<glyph name="currency" format="2">
  <advance width="500.0"/>
  <unicode hex="00A4"/>
  <outline>
    <contour>
      <point x="38.2" y="399.8" type="line"/>
      <point x="87.8" y="349.2" type="line"/>
      <point x="83.8" y="334.6"/>
      <point x="81.6" y="319.6"/>
      <point x="81.6" y="303.8" type="curve" smooth="yes"/>
      <point x="81.6" y="287.0"/>
      <point x="83.8" y="270.4"/>
      <point x="88.8" y="255.2" type="curve"/>
      <point x="38.2" y="204.6" type="line"/>
      <point x="152.4" y="90.4" type="line"/>
      <point x="215.2" y="152.8" type="line"/>
      <point x="225.8" y="150.8"/>
      <point x="238.0" y="150.8"/>
      <point x="250.6" y="150.8" type="curve" smooth="yes"/>
      <point x="262.8" y="150.8"/>
      <point x="273.6" y="151.2"/>
      <point x="284.4" y="152.6" type="curve"/>
      <point x="347.6" y="90.4" type="line"/>
      <point x="461.8" y="204.6" type="line"/>
      <point x="411.6" y="254.2" type="line"/>
      <point x="416.4" y="270.2"/>
      <point x="419.2" y="286.6"/>
      <point x="419.2" y="303.8" type="curve" smooth="yes"/>
      <point x="419.2" y="319.4"/>
      <point x="416.8" y="334.8"/>
      <point x="412.2" y="350.2" type="curve"/>
      <point x="461.8" y="399.8" type="line"/>
      <point x="347.6" y="514.0" type="line"/>
      <point x="286.8" y="453.2" type="line"/>
      <point x="275.4" y="455.0"/>
      <point x="263.4" y="456.0"/>
      <point x="250.6" y="456.0" type="curve" smooth="yes"/>
      <point x="236.8" y="456.0"/>
      <point x="224.6" y="454.4"/>
      <point x="212.8" y="453.0" type="curve"/>
      <point x="152.4" y="514.0" type="line"/>
    </contour>
    <contour>
      <point x="250.2" y="271.8" type="curve" smooth="yes"/>
      <point x="230.8" y="271.8"/>
      <point x="218.8" y="283.4"/>
      <point x="218.8" y="303.2" type="curve" smooth="yes"/>
      <point x="218.8" y="320.6"/>
      <point x="230.4" y="334.4"/>
      <point x="250.2" y="334.4" type="curve" smooth="yes"/>
      <point x="270.0" y="334.4"/>
      <point x="282.0" y="320.6"/>
      <point x="282.0" y="303.2" type="curve" smooth="yes"/>
      <point x="282.0" y="283.4"/>
      <point x="269.6" y="271.8"/>
    </contour>
  </outline>
</glyph>
<glyph name="yen" format="2">
  <advance width="734.0"/>
  <unicode hex="00A5"/>
  <outline>
    <contour>
      <point x="70.0" y="285.0" type="line"/>
      <point x="281.0" y="285.0" type="line"/>
      <point x="281.0" y="250.0" type="line"/>
      <point x="70.0" y="250.0" type="line"/>
      <point x="70.0" y="159.0" type="line"/>
      <point x="281.0" y="159.0" type="line"/>
      <point x="281.0" y="0.0" type="line"/>
      <point x="456.0" y="0.0" type="line"/>
      <point x="456.0" y="159.0" type="line"/>
      <point x="667.0" y="159.0" type="line"/>
      <point x="667.0" y="250.0" type="line"/>
      <point x="456.0" y="250.0" type="line"/>
      <point x="456.0" y="285.0" type="line"/>
      <point x="667.0" y="285.0" type="line"/>
      <point x="667.0" y="376.0" type="line"/>
      <point x="456.0" y="376.0" type="line"/>
      <point x="723.0" y="698.0" type="line"/>
      <point x="531.0" y="702.0" type="line"/>
      <point x="369.0" y="480.0" type="line"/>
      <point x="203.0" y="702.0" type="line"/>
      <point x="11.0" y="698.0" type="line"/>
      <point x="281.0" y="376.0" type="line"/>
      <point x="70.0" y="376.0" type="line"/>
    </contour>
  </outline>
</glyph>
<glyph name="brokenbar" format="2">
  <advance width="245.4"/>
  <unicode hex="00A6"/>
  <outline>
    <contour>
      <point x="213.39999999999998" y="391.0" type="line"/>
      <point x="213.39999999999998" y="790.6" type="line"/>
      <point x="32.0" y="790.6" type="line"/>
      <point x="32.0" y="391.0" type="line"/>
    </contour>
    <contour>
      <point x="32.0" y="190.6" type="line"/>
      <point x="32.0" y="-210.0" type="line"/>
      <point x="213.39999999999998" y="-210.0" type="line"/>
      <point x="213.39999999999998" y="190.6" type="line"/>
    </contour>
  </outline>
</glyph>
<glyph name="section" format="2">
  <advance width="618.2"/>
  <unicode hex="00A7"/>
  <outline>
    <contour>
      <point x="241.8" y="-220.6" type="curve" smooth="yes"/>
      <point x="447.2" y="-220.6"/>
      <point x="568.4" y="-100.60000000000001"/>
      <point x="568.4" y="80.0" type="curve" smooth="yes"/>
      <point x="568.4" y="159.0"/>
      <point x="544.6" y="245.0"/>
      <point x="482.79999999999995" y="343.79999999999995" type="curve" smooth="yes"/>
      <point x="436.79999999999995" y="427.0"/>
      <point x="416.8" y="466.6"/>
      <point x="416.8" y="494.2" type="curve" smooth="yes"/>
      <point x="416.8" y="522.4"/>
      <point x="435.40000000000003" y="540.4"/>
      <point x="466.6" y="540.4" type="curve" smooth="yes"/>
      <point x="479.4" y="540.4"/>
      <point x="491.0" y="538.4"/>
      <point x="505.8" y="531.8" type="curve"/>
      <point x="540.4" y="723.8000000000001" type="line"/>
      <point x="493.4" y="741.2"/>
      <point x="437.0" y="750.0"/>
      <point x="383.2" y="750.0" type="curve" smooth="yes"/>
      <point x="167.0" y="750.0"/>
      <point x="47.2" y="641.2"/>
      <point x="51.4" y="465.0" type="curve" smooth="yes"/>
      <point x="53.2" y="385.6"/>
      <point x="70.4" y="316.4"/>
      <point x="139.79999999999998" y="187.0" type="curve" smooth="yes"/>
      <point x="186.2" y="99.79999999999998"/>
      <point x="208.4" y="64.2"/>
      <point x="208.4" y="30.200000000000003" type="curve" smooth="yes"/>
      <point x="208.4" y="1.2000000000000006"/>
      <point x="186.8" y="-13.8"/>
      <point x="150.8" y="-13.8" type="curve" smooth="yes"/>
      <point x="129.79999999999998" y="-13.8"/>
      <point x="109.8" y="-9.0"/>
      <point x="88.2" y="1.8000000000000007" type="curve"/>
      <point x="51.400000000000006" y="-184.60000000000002" type="line"/>
      <point x="105.60000000000001" y="-207.20000000000002"/>
      <point x="171.8" y="-220.6"/>
    </contour>
    <contour>
      <point x="247.39999999999998" y="-99.8" type="curve" smooth="yes"/>
      <point x="224.60000000000002" y="-99.8"/>
      <point x="199.4" y="-95.2"/>
      <point x="176.0" y="-82.60000000000001" type="curve"/>
      <point x="216.8" y="-111.39999999999999" type="line"/>
      <point x="306.40000000000003" y="-112.6"/>
      <point x="375.40000000000003" y="-55.0"/>
      <point x="375.40000000000003" y="33.0" type="curve" smooth="yes"/>
      <point x="375.40000000000003" y="89.0"/>
      <point x="353.4" y="152.0"/>
      <point x="296.2" y="260.0" type="curve" smooth="yes"/>
      <point x="242.20000000000002" y="362.6"/>
      <point x="220.60000000000002" y="420.6"/>
      <point x="220.60000000000002" y="481.0" type="curve" smooth="yes"/>
      <point x="220.60000000000002" y="553.1999999999999"/>
      <point x="269.2" y="607.4000000000001"/>
      <point x="330.8" y="607.4000000000001" type="curve" smooth="yes"/>
      <point x="358.6" y="607.4000000000001"/>
      <point x="376.40000000000003" y="602.0"/>
      <point x="397.0" y="586.4" type="curve"/>
      <point x="366.59999999999997" y="625.4000000000001" type="line"/>
      <point x="310.4" y="620.8"/>
      <point x="252.39999999999998" y="573.0"/>
      <point x="252.4" y="501.6" type="curve" smooth="yes"/>
      <point x="252.4" y="445.4"/>
      <point x="269.0" y="393.59999999999997"/>
      <point x="324.6" y="284.8" type="curve" smooth="yes"/>
      <point x="390.00000000000006" y="159.2"/>
      <point x="408.00000000000006" y="105.80000000000001"/>
      <point x="408.00000000000006" y="55.6" type="curve" smooth="yes"/>
      <point x="408.0" y="-25.6"/>
      <point x="357.8" y="-99.8"/>
    </contour>
  </outline>
</glyph>
<glyph name="copyright" format="2">
  <advance width="801.2"/>
  <unicode hex="00A9"/>
  <outline>
    <contour>
      <point x="400.6" y="58.6" type="curve" smooth="yes"/>
      <point x="209.4" y="58.6"/>
      <point x="115.0" y="178.79999999999998"/>
      <point x="115.0" y="349.8" type="curve" smooth="yes"/>
      <point x="115.0" y="521.6"/>
      <point x="209.8" y="639.8"/>
      <point x="400.6" y="639.8" type="curve" smooth="yes"/>
      <point x="593.1999999999999" y="639.8"/>
      <point x="685.5999999999999" y="521.6"/>
      <point x="685.5999999999999" y="349.8" type="curve" smooth="yes"/>
      <point x="685.5999999999999" y="178.79999999999998"/>
      <point x="593.5999999999999" y="58.6"/>
    </contour>
    <contour>
      <point x="400.6" y="710.0" type="curve" smooth="yes"/>
      <point x="168.0" y="710.0"/>
      <point x="39.0" y="554.2"/>
      <point x="39.0" y="349.8" type="curve" smooth="yes"/>
      <point x="39.0" y="146.79999999999998"/>
      <point x="166.8" y="-10.0"/>
      <point x="400.6" y="-10.0" type="curve" smooth="yes"/>
      <point x="634.4" y="-10.0"/>
      <point x="762.2" y="146.79999999999998"/>
      <point x="762.2" y="349.8" type="curve" smooth="yes"/>
      <point x="762.2" y="554.2"/>
      <point x="633.1999999999999" y="710.0"/>
    </contour>
    <contour>
      <point x="229.2" y="350.4" type="curve" smooth="yes"/>
      <point x="229.2" y="201.20000000000002"/>
      <point x="300.2" y="139.6"/>
      <point x="405.0" y="139.6" type="curve" smooth="yes"/>
      <point x="452.4" y="139.6"/>
      <point x="499.80000000000007" y="147.8"/>
      <point x="540.1999999999999" y="167.4" type="curve"/>
      <point x="521.2" y="274.4" type="line"/>
      <point x="492.5999999999999" y="265.59999999999997"/>
      <point x="460.2" y="258.4"/>
      <point x="428.0" y="258.4" type="curve" smooth="yes"/>
      <point x="383.8" y="258.4"/>
      <point x="367.4" y="278.0"/>
      <point x="367.4" y="348.2" type="curve" smooth="yes"/>
      <point x="367.4" y="427.0"/>
      <point x="385.79999999999995" y="450.6"/>
      <point x="432.20000000000005" y="450.6" type="curve" smooth="yes"/>
      <point x="457.99999999999994" y="450.6"/>
      <point x="495.6" y="442.6"/>
      <point x="518.5999999999999" y="436.20000000000005" type="curve"/>
      <point x="541.0" y="542.8" type="line"/>
      <point x="506.4" y="561.4"/>
      <point x="456.20000000000005" y="570.1999999999999"/>
      <point x="409.8" y="570.1999999999999" type="curve" smooth="yes"/>
      <point x="305.0" y="570.1999999999999"/>
      <point x="229.2" y="513.0"/>
    </contour>
  </outline>
</glyph>
<glyph name="ordfeminine" format="2">
  <advance width="430.0"/>
  <unicode hex="00AA"/>
  <outline>
    <contour>
      <point x="41.2" y="201.0" type="line"/>
      <point x="404.6" y="201.0" type="line"/>
      <point x="404.6" y="314.2" type="line"/>
      <point x="41.2" y="314.2" type="line"/>
    </contour>
    <component base="a.superior" xOffset="7.999999999999999"/>
  </outline>
</glyph>
<glyph name="logicalnot" format="2">
  <advance width="564.8"/>
  <unicode hex="00AC"/>
  <outline>
    <contour>
      <point x="49.2" y="284.6" type="line"/>
      <point x="337.6" y="284.6" type="line"/>
      <point x="337.6" y="168.2" type="line"/>
      <point x="515.6" y="168.2" type="line"/>
      <point x="515.6" y="462.6" type="line"/>
      <point x="49.2" y="462.6" type="line"/>
    </contour>
  </outline>
</glyph>
<glyph name="degree" format="2">
  <advance width="392.0"/>
  <unicode hex="00B0"/>
  <outline>
    <contour>
      <point x="196.0" y="348.0" type="curve" smooth="yes"/>
      <point x="313.0" y="348.0"/>
      <point x="364.8" y="433.0"/>
      <point x="364.8" y="529.0" type="curve" smooth="yes"/>
      <point x="364.8" y="618.0"/>
      <point x="320.2" y="710.0"/>
      <point x="196.0" y="710.0" type="curve" smooth="yes"/>
      <point x="71.8" y="710.0"/>
      <point x="27.2" y="618.0"/>
      <point x="27.2" y="529.0" type="curve" smooth="yes"/>
      <point x="27.2" y="433.0"/>
      <point x="79.0" y="348.0"/>
    </contour>
    <contour>
      <point x="196.0" y="482.4" type="curve" smooth="yes"/>
      <point x="174.8" y="482.4"/>
      <point x="161.6" y="500.0"/>
      <point x="161.6" y="528.0" type="curve" smooth="yes"/>
      <point x="161.6" y="554.0"/>
      <point x="173.4" y="571.6"/>
      <point x="196.0" y="571.6" type="curve" smooth="yes"/>
      <point x="218.6" y="571.6"/>
      <point x="230.4" y="554.0"/>
      <point x="230.4" y="528.0" type="curve" smooth="yes"/>
      <point x="230.4" y="500.0"/>
      <point x="217.2" y="482.4"/>
    </contour>
  </outline>
</glyph>
<glyph name="plusminus" format="2">
  <advance width="564.8"/>
  <unicode hex="00B1"/>
  <outline>
    <contour>
      <point x="49.2" y="-0.4" type="line"/>
      <point x="515.6" y="-0.4" type="line"/>
      <point x="515.6" y="177.6" type="line"/>
      <point x="379.20000000000005" y="177.6" type="line"/>
      <point x="379.20000000000005" y="268.2" type="line"/>
      <point x="515.6" y="268.2" type="line"/>
      <point x="515.6" y="446.2" type="line"/>
      <point x="379.20000000000005" y="446.2" type="line"/>
      <point x="379.20000000000005" y="550.2" type="line"/>
      <point x="185.2" y="550.2" type="line"/>
      <point x="185.2" y="446.2" type="line"/>
      <point x="49.2" y="446.2" type="line"/>
      <point x="49.2" y="268.2" type="line"/>
      <point x="185.2" y="268.2" type="line"/>
      <point x="185.2" y="177.6" type="line"/>
      <point x="49.2" y="177.6" type="line"/>
    </contour>
  </outline>
</glyph>
<glyph name="uni00B2" format="2">
  <advance width="403.40000000000003"/>
  <unicode hex="00B2"/>
  <outline>
    <contour>
      <point x="31.799999999999997" y="370.0" type="line"/>
      <point x="376.8" y="370.0" type="line"/>
      <point x="376.8" y="474.6" type="line"/>
      <point x="249.0" y="474.6" type="line"/>
      <point x="329.2" y="541.2"/>
      <point x="351.2" y="579.4"/>
      <point x="351.2" y="637.6" type="curve" smooth="yes"/>
      <point x="351.2" y="724.1999999999999"/>
      <point x="286.8" y="774.2"/>
      <point x="185.4" y="774.2" type="curve" smooth="yes"/>
      <point x="128.4" y="774.2"/>
      <point x="65.6" y="757.8"/>
      <point x="21.199999999999996" y="732.4" type="curve"/>
      <point x="64.8" y="618.8000000000001" type="line"/>
      <point x="103.19999999999999" y="635.4"/>
      <point x="122.79999999999998" y="641.4"/>
      <point x="147.8" y="641.4" type="curve" smooth="yes"/>
      <point x="173.0" y="641.4"/>
      <point x="188.40000000000003" y="625.4"/>
      <point x="188.40000000000003" y="605.1999999999999" type="curve" smooth="yes"/>
      <point x="188.40000000000003" y="570.0"/>
      <point x="135.2" y="522.4000000000001"/>
      <point x="31.799999999999997" y="463.8" type="curve"/>
    </contour>
  </outline>
</glyph>
<glyph name="uni00B3" format="2">
  <advance width="416.8"/>
  <unicode hex="00B3"/>
  <outline>
    <contour>
      <point x="21.2" y="392.8" type="line"/>
      <point x="77.8" y="370.59999999999997"/>
      <point x="130.0" y="364.8"/>
      <point x="189.4" y="364.8" type="curve" smooth="yes"/>
      <point x="310.2" y="364.8"/>
      <point x="390.6" y="405.2"/>
      <point x="390.6" y="489.0" type="curve" smooth="yes"/>
      <point x="390.6" y="532.6"/>
      <point x="368.0" y="564.0"/>
      <point x="320.20000000000005" y="584.0" type="curve"/>
      <point x="356.0" y="601.0"/>
      <point x="381.80000000000007" y="633.5999999999999"/>
      <point x="381.80000000000007" y="673.2" type="curve" smooth="yes"/>
      <point x="381.80000000000007" y="735.8"/>
      <point x="323.2" y="775.4000000000001"/>
      <point x="197.39999999999998" y="775.4000000000001" type="curve" smooth="yes"/>
      <point x="124.4" y="775.4000000000001"/>
      <point x="60.6" y="764.8000000000001"/>
      <point x="22.599999999999998" y="745.8000000000001" type="curve"/>
      <point x="55.800000000000004" y="643.4" type="line"/>
      <point x="61.800000000000004" y="647.0"/>
      <point x="91.6" y="657.4"/>
      <point x="156.20000000000002" y="657.4" type="curve" smooth="yes"/>
      <point x="197.79999999999998" y="657.4"/>
      <point x="232.0" y="648.8"/>
      <point x="232.0" y="635.4" type="curve" smooth="yes"/>
      <point x="232.0" y="623.4"/>
      <point x="219.0" y="617.0"/>
      <point x="192.0" y="617.0" type="curve" smooth="yes"/>
      <point x="105.60000000000001" y="617.0" type="line"/>
      <point x="105.60000000000001" y="521.8000000000001" type="line"/>
      <point x="179.6" y="521.8000000000001" type="line" smooth="yes"/>
      <point x="227.79999999999998" y="521.8000000000001"/>
      <point x="235.79999999999998" y="513.6"/>
      <point x="235.79999999999998" y="501.0" type="curve" smooth="yes"/>
      <point x="235.79999999999998" y="485.2"/>
      <point x="216.2" y="475.40000000000003"/>
      <point x="170.20000000000002" y="475.40000000000003" type="curve" smooth="yes"/>
      <point x="109.39999999999999" y="475.40000000000003"/>
      <point x="85.0" y="480.40000000000003"/>
      <point x="58.2" y="491.2" type="curve"/>
    </contour>
  </outline>
</glyph>
<glyph name="uni00B5" format="2">
  <advance width="627.4"/>
  <unicode hex="00B5"/>
  <outline>
    <contour>
      <point x="33.0" y="-210.0" type="line"/>
      <point x="252.6" y="-210.0" type="line"/>
      <point x="252.6" y="-5.400000000000002" type="line"/>
      <point x="261.40000000000003" y="-7.200000000000001"/>
      <point x="271.4" y="-8.8"/>
      <point x="283.6" y="-8.8" type="curve" smooth="yes"/>
      <point x="322.40000000000003" y="-8.8"/>
      <point x="354.79999999999995" y="9.199999999999998"/>
      <point x="383.20000000000005" y="36.6" type="curve"/>
      <point x="408.8" y="7.6"/>
      <point x="430.79999999999995" y="-10.0"/>
      <point x="494.8" y="-10.0" type="curve" smooth="yes"/>
      <point x="548.4" y="-10.0"/>
      <point x="597.4" y="5.6"/>
      <point x="626.1999999999999" y="23.8" type="curve"/>
      <point x="610.0" y="177.79999999999998" type="line"/>
      <point x="604.5999999999999" y="175.6"/>
      <point x="598.2" y="174.6"/>
      <point x="592.2" y="174.6" type="curve" smooth="yes"/>
      <point x="581.6" y="174.6"/>
      <point x="574.6" y="181.0"/>
      <point x="574.6" y="202.0" type="curve" smooth="yes"/>
      <point x="574.6" y="550.0" type="line"/>
      <point x="349.6" y="550.0" type="line"/>
      <point x="349.6" y="185.79999999999998" type="line"/>
      <point x="328.20000000000005" y="176.4"/>
      <point x="315.0" y="173.60000000000002"/>
      <point x="298.59999999999997" y="173.60000000000002" type="curve" smooth="yes"/>
      <point x="276.2" y="173.60000000000002"/>
      <point x="258.6" y="185.2"/>
      <point x="258.6" y="221.2" type="curve" smooth="yes"/>
      <point x="258.6" y="550.0" type="line"/>
      <point x="33.0" y="550.0" type="line"/>
    </contour>
  </outline>
</glyph>
<glyph name="paragraph" format="2">
  <advance width="729.0"/>
  <unicode hex="00B6"/>
  <outline>
    <contour>
      <point x="500.40000000000003" y="-210.0" type="line"/>
      <point x="674.0" y="-210.0" type="line"/>
      <point x="674.0" y="740.0" type="line"/>
      <point x="500.40000000000003" y="740.0" type="line"/>
    </contour>
    <contour>
      <point x="284.6" y="361.0" type="line"/>
      <point x="263.2" y="368.0"/>
      <point x="239.4" y="406.6"/>
      <point x="239.4" y="468.6" type="curve" smooth="yes"/>
      <point x="239.4" y="530.8"/>
      <point x="260.0" y="560.8"/>
      <point x="299.0" y="560.8000000000001" type="curve"/>
      <point x="299.0" y="-210.0" type="line"/>
      <point x="472.59999999999997" y="-210.0" type="line"/>
      <point x="472.59999999999997" y="740.0" type="line"/>
      <point x="354.2" y="740.0" type="line" smooth="yes"/>
      <point x="118.2" y="740.0"/>
      <point x="46.2" y="635.4"/>
      <point x="46.2" y="485.20000000000005" type="curve" smooth="yes"/>
      <point x="46.2" y="348.0"/>
      <point x="114.6" y="255.8"/>
      <point x="262.4" y="233.2" type="curve"/>
    </contour>
  </outline>
</glyph>
<glyph name="periodcentered" format="2">
  <advance width="276.0"/>
  <unicode hex="00B7"/>
  <outline>
    <contour>
      <point x="17.0" y="323.2" type="curve" smooth="yes"/>
      <point x="17.0" y="246.4"/>
      <point x="51.8" y="207.4"/>
      <point x="138.0" y="207.4" type="curve" smooth="yes"/>
      <point x="224.2" y="207.4"/>
      <point x="259.0" y="246.4"/>
      <point x="259.0" y="323.2" type="curve" smooth="yes"/>
      <point x="259.0" y="401.0"/>
      <point x="224.2" y="440.0"/>
      <point x="138.0" y="440.0" type="curve" smooth="yes"/>
      <point x="51.8" y="440.0"/>
      <point x="17.0" y="401.0"/>
    </contour>
  </outline>
</glyph>
<glyph name="uni00B9" format="2">
  <advance width="383.40000000000003"/>
  <unicode hex="00B9"/>
  <outline>
    <contour>
      <point x="46.2" y="370.0" type="line"/>
      <point x="368.00000000000006" y="370.0" type="line"/>
      <point x="368.00000000000006" y="476.6" type="line"/>
      <point x="292.40000000000003" y="476.6" type="line"/>
      <point x="292.40000000000003" y="767.0" type="line"/>
      <point x="212.20000000000002" y="767.0" type="line"/>
      <point x="20.4" y="714.0" type="line"/>
      <point x="53.8" y="594.6" type="line"/>
      <point x="130.4" y="612.8000000000001" type="line"/>
      <point x="130.4" y="476.6" type="line"/>
      <point x="46.2" y="476.6" type="line"/>
    </contour>
  </outline>
</glyph>
<glyph name="ordmasculine" format="2">
  <advance width="425.2"/>
  <unicode hex="00BA"/>
  <outline>
    <contour>
      <point x="31.400000000000002" y="201.0" type="line"/>
      <point x="394.8" y="201.0" type="line"/>
      <point x="394.8" y="314.2" type="line"/>
      <point x="31.400000000000002" y="314.2" type="line"/>
    </contour>
    <component base="o.superior" xOffset="8.0"/>
  </outline>
</glyph>
<glyph name="questiondown" format="2">
  <advance width="527.4"/>
  <unicode hex="00BF"/>
  <outline>
    <contour>
      <point x="390.4" y="284.0" type="line"/>
      <point x="198.2" y="284.0" type="line"/>
      <point x="197.4" y="222.6" type="line"/>
      <point x="72.8" y="183.0"/>
      <point x="30.2" y="105.2"/>
      <point x="30.2" y="7.200000000000001" type="curve" smooth="yes"/>
      <point x="30.2" y="-138.0"/>
      <point x="141.4" y="-206.4"/>
      <point x="291.4" y="-206.4" type="curve" smooth="yes"/>
      <point x="370.6" y="-206.4"/>
      <point x="466.8" y="-179.60000000000002"/>
      <point x="525.1999999999999" y="-141.6" type="curve"/>
      <point x="460.6" y="36.0" type="line"/>
      <point x="408.79999999999995" y="8.800000000000002"/>
      <point x="367.2" y="-2.799999999999999"/>
      <point x="329.2" y="-2.799999999999999" type="curve" smooth="yes"/>
      <point x="284.8" y="-2.799999999999999"/>
      <point x="264.2" y="12.0"/>
      <point x="264.2" y="35.2" type="curve" smooth="yes"/>
      <point x="264.2" y="60.8"/>
      <point x="274.6" y="89.4"/>
      <point x="395.59999999999997" y="122.99999999999999" type="curve"/>
    </contour>
    <contour>
      <point x="415.59999999999997" y="437.6" type="curve" smooth="yes"/>
      <point x="415.59999999999997" y="514.4"/>
      <point x="381.40000000000003" y="553.4"/>
      <point x="294.6" y="553.4" type="curve" smooth="yes"/>
      <point x="209.0" y="553.4"/>
      <point x="173.6" y="514.4"/>
      <point x="173.6" y="437.6" type="curve" smooth="yes"/>
      <point x="173.6" y="359.8"/>
      <point x="209.0" y="320.8"/>
      <point x="294.6" y="320.8" type="curve" smooth="yes"/>
      <point x="381.4" y="320.8"/>
      <point x="415.59999999999997" y="359.8"/>
    </contour>
  </outline>
</glyph>
<glyph name="AE" format="2">
  <advance width="1046.4"/>
  <unicode hex="00C6"/>
  <anchor x="579.8" y="700.0" name="top"/>
  <outline>
    <contour>
      <point x="1.2000000000000002" y="0.0" type="line"/>
      <point x="257.0" y="0.0" type="line"/>
      <point x="317.4" y="121.0" type="line"/>
      <point x="474.4" y="121.0" type="line"/>
      <point x="474.4" y="0.0" type="line"/>
      <point x="1021.9999999999999" y="0.0" type="line"/>
      <point x="1021.9999999999999" y="188.8" type="line"/>
      <point x="686.6" y="188.8" type="line"/>
      <point x="686.6" y="262.8" type="line"/>
      <point x="977.2" y="262.8" type="line"/>
      <point x="977.2" y="435.6" type="line"/>
      <point x="686.6" y="435.6" type="line"/>
      <point x="686.6" y="508.2" type="line"/>
      <point x="1003.8" y="508.2" type="line"/>
      <point x="1003.8" y="700.0" type="line"/>
      <point x="347.2" y="700.0" type="line"/>
    </contour>
    <contour>
      <point x="393.6" y="302.0" type="line"/>
      <point x="473.2" y="541.1999999999999" type="line"/>
      <point x="473.2" y="302.0" type="line"/>
    </contour>
  </outline>
</glyph>
<glyph name="multiply" format="2">
  <advance width="524.8"/>
  <unicode hex="00D7"/>
  <outline>
    <contour>
      <point x="155.2" y="117.19999999999999" type="line"/>
      <point x="262.40000000000003" y="211.20000000000002" type="line"/>
      <point x="369.6" y="117.19999999999999" type="line"/>
      <point x="489.0" y="249.0" type="line"/>
      <point x="395.40000000000003" y="331.8" type="line"/>
      <point x="489.0" y="415.0" type="line"/>
      <point x="369.59999999999997" y="546.8" type="line"/>
      <point x="262.40000000000003" y="452.40000000000003" type="line"/>
      <point x="155.2" y="546.8" type="line"/>
      <point x="35.8" y="415.0" type="line"/>
      <point x="129.0" y="331.8" type="line"/>
      <point x="35.800000000000004" y="249.0" type="line"/>
    </contour>
  </outline>
</glyph>
<glyph name="Oslash" format="2">
  <advance width="805.0"/>
  <unicode hex="00D8"/>
  <anchor x="402.0" y="700.0" name="top"/>
  <outline>
    <contour>
      <point x="118.0" y="-10.0" type="line"/>
      <point x="219.0" y="140.0" type="line"/>
      <point x="220.0" y="129.0" type="line"/>
      <point x="644.0" y="566.0" type="line"/>
      <point x="645.0" y="553.0" type="line"/>
      <point x="761.0" y="720.0" type="line"/>
      <point x="687.0" y="720.0" type="line"/>
      <point x="595.0" y="590.0" type="line"/>
      <point x="593.0" y="600.0" type="line"/>
      <point x="167.0" y="157.0" type="line"/>
      <point x="165.0" y="166.0" type="line"/>
      <point x="44.0" y="-10.0" type="line"/>
    </contour>
    <contour>
      <point x="402.0" y="151.0" type="curve" smooth="yes"/>
      <point x="310.0" y="151.0"/>
      <point x="207.0" y="179.0"/>
      <point x="207.0" y="349.0" type="curve" smooth="yes"/>
      <point x="207.0" y="524.0"/>
      <point x="311.0" y="549.0"/>
      <point x="402.0" y="549.0" type="curve" smooth="yes"/>
      <point x="494.0" y="549.0"/>
      <point x="598.0" y="527.0"/>
      <point x="598.0" y="351.0" type="curve" smooth="yes"/>
      <point x="598.0" y="175.0"/>
      <point x="493.0" y="151.0"/>
    </contour>
    <contour>
      <point x="401.0" y="-10.0" type="curve" smooth="yes"/>
      <point x="606.0" y="-10.0"/>
      <point x="770.0" y="72.0"/>
      <point x="770.0" y="354.0" type="curve" smooth="yes"/>
      <point x="770.0" y="630.0"/>
      <point x="602.0" y="710.0"/>
      <point x="402.0" y="710.0" type="curve" smooth="yes"/>
      <point x="200.0" y="710.0"/>
      <point x="35.0" y="627.0"/>
      <point x="35.0" y="348.0" type="curve" smooth="yes"/>
      <point x="35.0" y="77.0"/>
      <point x="199.0" y="-10.0"/>
    </contour>
  </outline>
</glyph>
<glyph name="Thorn" format="2">
  <advance width="720.6"/>
  <unicode hex="00DE"/>
  <outline>
    <contour>
      <point x="43.2" y="0.0" type="line"/>
      <point x="276.8" y="0.0" type="line"/>
      <point x="276.8" y="96.0" type="line"/>
      <point x="358.0" y="92.0"/>
      <point x="334.0" y="92.0"/>
      <point x="414.4" y="92.0" type="curve" smooth="yes"/>
      <point x="626.4" y="92.0"/>
      <point x="697.8000000000001" y="179.4"/>
      <point x="697.8000000000001" y="373.0" type="curve" smooth="yes"/>
      <point x="697.8000000000001" y="565.4"/>
      <point x="625.8000000000001" y="645.0"/>
      <point x="354.80000000000007" y="645.0" type="curve" smooth="yes"/>
      <point x="338.4" y="645.0"/>
      <point x="307.40000000000003" y="644.6"/>
      <point x="277.4" y="644.2" type="curve"/>
      <point x="277.4" y="700.0" type="line"/>
      <point x="43.2" y="700.0" type="line"/>
    </contour>
    <contour>
      <point x="338.2" y="280.2" type="curve" smooth="yes"/>
      <point x="321.6" y="280.2"/>
      <point x="310.40000000000003" y="280.59999999999997"/>
      <point x="277.4" y="283.4" type="curve"/>
      <point x="277.4" y="458.8" type="line"/>
      <point x="328.8" y="462.20000000000005"/>
      <point x="339.6" y="462.2"/>
      <point x="372.8" y="462.2" type="curve" smooth="yes"/>
      <point x="442.80000000000007" y="462.2"/>
      <point x="461.40000000000003" y="435.2"/>
      <point x="461.40000000000003" y="379.79999999999995" type="curve" smooth="yes"/>
      <point x="461.40000000000003" y="323.0"/>
      <point x="454.99999999999994" y="280.2"/>
    </contour>
  </outline>
</glyph>
<glyph name="germandbls" format="2">
  <advance width="787.8"/>
  <unicode hex="00DF"/>
  <outline>
    <contour>
      <point x="74.6" y="0.0" type="line"/>
      <point x="299.6" y="0.0" type="line"/>
      <point x="299.6" y="482.4" type="line" smooth="yes"/>
      <point x="299.6" y="547.4"/>
      <point x="347.8" y="579.4"/>
      <point x="428.8" y="579.4" type="curve" smooth="yes"/>
      <point x="502.2" y="579.4"/>
      <point x="520.0" y="569.4"/>
      <point x="520.0" y="546.0" type="curve" smooth="yes"/>
      <point x="520.0" y="526.2"/>
      <point x="506.4" y="522.4"/>
      <point x="464.2" y="506.4" type="curve" smooth="yes"/>
      <point x="388.4" y="488.0"/>
      <point x="350.0" y="435.4"/>
      <point x="350.0" y="360.0" type="curve" smooth="yes"/>
      <point x="350.0" y="250.2"/>
      <point x="391.6" y="200.4"/>
      <point x="509.0" y="191.2" type="curve" smooth="yes"/>
      <point x="569.6" y="187.8"/>
      <point x="578.8" y="191.4"/>
      <point x="578.8" y="174.6" type="curve" smooth="yes"/>
      <point x="578.8" y="154.6"/>
      <point x="555.4" y="150.0"/>
      <point x="527.8" y="150.0" type="curve" smooth="yes"/>
      <point x="473.0" y="150.0"/>
      <point x="400.6" y="161.0"/>
      <point x="346.6" y="174.2" type="curve"/>
      <point x="326.2" y="17.4" type="line"/>
      <point x="391.4" y="-2.8000000000000007"/>
      <point x="453.6" y="-9.6"/>
      <point x="523.2" y="-9.6" type="curve" smooth="yes"/>
      <point x="657.0" y="-9.6"/>
      <point x="786.2" y="37.0"/>
      <point x="786.2" y="189.8" type="curve" smooth="yes"/>
      <point x="786.2" y="300.2"/>
      <point x="735.0" y="346.4"/>
      <point x="628.4" y="354.6" type="curve" smooth="yes"/>
      <point x="565.8" y="356.2"/>
      <point x="555.8" y="361.6"/>
      <point x="555.8" y="371.0" type="curve" smooth="yes"/>
      <point x="555.8" y="384.0"/>
      <point x="565.4" y="380.6"/>
      <point x="594.4" y="388.4" type="curve" smooth="yes"/>
      <point x="689.2" y="415.4"/>
      <point x="738.6" y="456.6"/>
      <point x="738.6" y="549.0" type="curve" smooth="yes"/>
      <point x="738.6" y="687.6"/>
      <point x="626.2" y="750.0"/>
      <point x="419.0" y="750.0" type="curve" smooth="yes"/>
      <point x="192.4" y="750.0"/>
      <point x="74.4" y="678.4"/>
      <point x="74.6" y="522.2" type="curve" smooth="yes"/>
      <point x="74.6" y="510.4" type="line"/>
      <point x="9.0" y="497.8" type="line"/>
      <point x="9.0" y="348.8" type="line"/>
      <point x="74.6" y="348.8" type="line"/>
    </contour>
  </outline>
</glyph>
<glyph name="ae" format="2">
  <advance width="877.8"/>
  <unicode hex="00E6"/>
  <anchor x="442.6" y="550.0" name="top"/>
  <outline>
    <contour>
      <point x="185.2" y="-10.0" type="curve" smooth="yes"/>
      <point x="280.2" y="-10.0"/>
      <point x="336.6" y="27.0"/>
      <point x="386.6" y="60.8" type="curve"/>
      <point x="388.0" y="60.8" type="line"/>
      <point x="445.6" y="6.6"/>
      <point x="501.4" y="-10.0"/>
      <point x="614.4" y="-10.0" type="curve" smooth="yes"/>
      <point x="697.4" y="-10.0"/>
      <point x="770.4" y="0.0"/>
      <point x="854.8" y="26.2" type="curve"/>
      <point x="828.6" y="194.6" type="line"/>
      <point x="760.2" y="179.8"/>
      <point x="685.6" y="170.8"/>
      <point x="642.4" y="170.8" type="curve" smooth="yes"/>
      <point x="565.8" y="170.8"/>
      <point x="546.0" y="159.8"/>
      <point x="543.2" y="200.0" type="curve" smooth="yes"/>
      <point x="542.8" y="200.8"/>
      <point x="542.8" y="210.6"/>
      <point x="543.0" y="205.8" type="curve"/>
      <point x="664.0" y="210.8"/>
      <point x="782.6" y="221.2"/>
      <point x="852.0" y="227.0" type="curve"/>
      <point x="852.6" y="248.4"/>
      <point x="854.0" y="277.4"/>
      <point x="854.0" y="293.8" type="curve" smooth="yes"/>
      <point x="854.0" y="491.6"/>
      <point x="774.0" y="560.0"/>
      <point x="598.8" y="560.0" type="curve" smooth="yes"/>
      <point x="549.2" y="560.0"/>
      <point x="496.8" y="562.8"/>
      <point x="445.8" y="519.6" type="curve"/>
      <point x="444.4" y="519.6" type="line"/>
      <point x="384.2" y="551.0"/>
      <point x="339.2" y="560.0"/>
      <point x="258.6" y="560.0" type="curve" smooth="yes"/>
      <point x="192.8" y="560.0"/>
      <point x="106.0" y="546.4"/>
      <point x="39.0" y="526.0" type="curve"/>
      <point x="72.8" y="352.2" type="line"/>
      <point x="140.2" y="371.4"/>
      <point x="208.2" y="375.4"/>
      <point x="241.2" y="375.4" type="curve" smooth="yes"/>
      <point x="296.4" y="375.4"/>
      <point x="315.2" y="362.2"/>
      <point x="315.2" y="345.8" type="curve" smooth="yes"/>
      <point x="315.2" y="344.2" type="line"/>
      <point x="134.2" y="342.0"/>
      <point x="13.2" y="309.2"/>
      <point x="13.2" y="164.4" type="curve" smooth="yes"/>
      <point x="13.2" y="51.2"/>
      <point x="81.0" y="-10.0"/>
    </contour>
    <contour>
      <point x="268.2" y="135.8" type="curve" smooth="yes"/>
      <point x="254.4" y="135.8"/>
      <point x="238.8" y="146.0"/>
      <point x="238.8" y="176.0" type="curve" smooth="yes"/>
      <point x="238.8" y="232.6"/>
      <point x="305.0" y="229.8"/>
      <point x="316.0" y="228.2" type="curve"/>
      <point x="316.4" y="217.8"/>
      <point x="316.4" y="203.2"/>
      <point x="316.4" y="197.6" type="curve" smooth="yes"/>
      <point x="316.4" y="183.8"/>
      <point x="315.0" y="169.6"/>
      <point x="317.0" y="154.4" type="curve"/>
      <point x="313.4" y="154.4"/>
      <point x="289.8" y="135.8"/>
    </contour>
    <contour>
      <point x="542.0" y="327.2" type="curve"/>
      <point x="536.2" y="410.0"/>
      <point x="576.8" y="403.6"/>
      <point x="585.0" y="403.6" type="curve" smooth="yes"/>
      <point x="612.6" y="403.6"/>
      <point x="620.0" y="391.8"/>
      <point x="628.0" y="330.2" type="curve"/>
      <point x="598.0" y="331.0"/>
      <point x="570.0" y="327.6"/>
    </contour>
  </outline>
</glyph>
<glyph name="eth" format="2">
  <advance width="669.0"/>
  <unicode hex="00F0"/>
  <outline>
    <contour>
      <point x="479.0" y="360.0" type="curve"/>
      <point x="487.0" y="487.0" type="line"/>
      <point x="433.0" y="518.0"/>
      <point x="373.0" y="530.0"/>
      <point x="307.0" y="530.0" type="curve" smooth="yes"/>
      <point x="122.0" y="530.0"/>
      <point x="28.0" y="433.0"/>
      <point x="28.0" y="247.0" type="curve" smooth="yes"/>
      <point x="28.0" y="79.0"/>
      <point x="127.0" y="-10.0"/>
      <point x="314.0" y="-10.0" type="curve" smooth="yes"/>
      <point x="547.0" y="-10.0"/>
      <point x="639.0" y="95.0"/>
      <point x="639.0" y="364.0" type="curve" smooth="yes"/>
      <point x="639.0" y="610.0"/>
      <point x="493.0" y="750.0"/>
      <point x="251.0" y="750.0" type="curve" smooth="yes"/>
      <point x="174.0" y="750.0"/>
      <point x="105.0" y="735.0"/>
      <point x="40.0" y="714.0" type="curve"/>
      <point x="57.0" y="598.0" type="line"/>
      <point x="106.0" y="610.0"/>
      <point x="156.0" y="621.0"/>
      <point x="209.0" y="621.0" type="curve" smooth="yes"/>
      <point x="384.0" y="621.0"/>
      <point x="459.0" y="563.0"/>
      <point x="459.0" y="394.0" type="curve" smooth="yes"/>
      <point x="459.0" y="153.0"/>
      <point x="416.0" y="120.0"/>
      <point x="321.0" y="120.0" type="curve" smooth="yes"/>
      <point x="250.0" y="120.0"/>
      <point x="209.0" y="153.0"/>
      <point x="209.0" y="249.0" type="curve" smooth="yes"/>
      <point x="209.0" y="379.0"/>
      <point x="267.0" y="396.0"/>
      <point x="337.0" y="396.0" type="curve" smooth="yes"/>
      <point x="393.0" y="396.0"/>
      <point x="432.0" y="385.0"/>
    </contour>
    <contour>
      <point x="222.0" y="565.0" type="line"/>
      <point x="404.0" y="635.0" type="line"/>
      <point x="408.0" y="639.0" type="line"/>
      <point x="616.0" y="751.0" type="line"/>
      <point x="489.0" y="752.0" type="line"/>
      <point x="345.0" y="679.0" type="line"/>
      <point x="347.0" y="675.0" type="line"/>
      <point x="101.0" y="566.0" type="line"/>
    </contour>
  </outline>
</glyph>
<glyph name="divide" format="2">
  <advance width="564.8"/>
  <unicode hex="00F7"/>
  <outline>
    <contour>
      <point x="178.8" y="107.6" type="curve" smooth="yes"/>
      <point x="178.8" y="49.99999999999999"/>
      <point x="209.6" y="20.0"/>
      <point x="282.4" y="20.0" type="curve" smooth="yes"/>
      <point x="355.0" y="20.0"/>
      <point x="386.4" y="49.99999999999999"/>
      <point x="386.4" y="107.6" type="curve" smooth="yes"/>
      <point x="386.4" y="166.6"/>
      <point x="355.0" y="196.6"/>
      <point x="282.4" y="196.6" type="curve" smooth="yes"/>
      <point x="209.6" y="196.6"/>
      <point x="178.8" y="166.6"/>
    </contour>
    <contour>
      <point x="178.8" y="542.6" type="curve" smooth="yes"/>
      <point x="178.8" y="485.0"/>
      <point x="209.6" y="455.0"/>
      <point x="282.4" y="455.0" type="curve" smooth="yes"/>
      <point x="355.0" y="455.0"/>
      <point x="386.4" y="485.0"/>
      <point x="386.4" y="542.6" type="curve" smooth="yes"/>
      <point x="386.4" y="601.6"/>
      <point x="355.0" y="631.6"/>
      <point x="282.4" y="631.6" type="curve" smooth="yes"/>
      <point x="209.6" y="631.6"/>
      <point x="178.8" y="601.6"/>
    </contour>
    <contour>
      <point x="49.2" y="237.0" type="line"/>
      <point x="515.6" y="237.0" type="line"/>
      <point x="515.6" y="415.0" type="line"/>
      <point x="49.2" y="415.0" type="line"/>
    </contour>
  </outline>
</glyph>
<glyph name="oslash" format="2">
  <advance width="683.0"/>
  <unicode hex="00F8"/>
  <anchor x="340.0" y="550.0" name="top"/>
  <outline>
    <contour>
      <point x="340.0" y="-10.0" type="curve" smooth="yes"/>
      <point x="95.0" y="-10.0"/>
      <point x="28.0" y="135.0"/>
      <point x="28.0" y="277.0" type="curve" smooth="yes"/>
      <point x="28.0" y="413.0"/>
      <point x="88.0" y="560.0"/>
      <point x="340.0" y="560.0" type="curve" smooth="yes"/>
      <point x="593.0" y="560.0"/>
      <point x="654.0" y="413.0"/>
      <point x="654.0" y="277.0" type="curve" smooth="yes"/>
      <point x="654.0" y="135.0"/>
      <point x="586.0" y="-10.0"/>
    </contour>
    <contour>
      <point x="340.0" y="145.0" type="curve" smooth="yes"/>
      <point x="442.0" y="145.0"/>
      <point x="480.0" y="170.0"/>
      <point x="480.0" y="277.0" type="curve" smooth="yes"/>
      <point x="480.0" y="379.0"/>
      <point x="449.0" y="406.0"/>
      <point x="340.0" y="406.0" type="curve" smooth="yes"/>
      <point x="230.0" y="406.0"/>
      <point x="201.0" y="379.0"/>
      <point x="201.0" y="277.0" type="curve" smooth="yes"/>
      <point x="201.0" y="170.0"/>
      <point x="237.0" y="145.0"/>
    </contour>
    <contour>
      <point x="26.0" y="0.0" type="line"/>
      <point x="139.0" y="142.0" type="line"/>
      <point x="141.0" y="142.0" type="line"/>
      <point x="496.0" y="454.0" type="line"/>
      <point x="498.0" y="454.0" type="line"/>
      <point x="581.0" y="560.0" type="line"/>
      <point x="656.0" y="560.0" type="line"/>
      <point x="544.0" y="423.0" type="line"/>
      <point x="542.0" y="423.0" type="line"/>
      <point x="184.0" y="104.0" type="line"/>
      <point x="182.0" y="104.0" type="line"/>
      <point x="100.0" y="0.0" type="line"/>
    </contour>
  </outline>
</glyph>
<glyph name="thorn" format="2">
  <advance width="620.6"/>
  <unicode hex="00FE"/>
  <outline>
    <contour>
      <point x="33.0" y="-210.0" type="line"/>
      <point x="257.2" y="-210.0" type="line"/>
      <point x="257.2" y="-8.8" type="line"/>
      <point x="273.8" y="-9.6"/>
      <point x="290.2" y="-10.0"/>
      <point x="307.20000000000005" y="-10.0" type="curve" smooth="yes"/>
      <point x="518.0" y="-10.0"/>
      <point x="603.0" y="74.0"/>
      <point x="603.0" y="288.0" type="curve" smooth="yes"/>
      <point x="603.0" y="469.8"/>
      <point x="536.8" y="560.0"/>
      <point x="408.79999999999995" y="560.0" type="curve" smooth="yes"/>
      <point x="361.40000000000003" y="560.0"/>
      <point x="307.6" y="544.6"/>
      <point x="258.4" y="517.4" type="curve"/>
      <point x="258.4" y="740.0" type="line"/>
      <point x="33.0" y="740.0" type="line"/>
    </contour>
    <contour>
      <point x="310.8" y="150.0" type="curve" smooth="yes"/>
      <point x="294.0" y="150.0"/>
      <point x="275.40000000000003" y="152.6"/>
      <point x="258.6" y="157.8" type="curve"/>
      <point x="258.6" y="358.8" type="line"/>
      <point x="283.0" y="368.40000000000003"/>
      <point x="303.2" y="373.20000000000005"/>
      <point x="321.8" y="373.20000000000005" type="curve" smooth="yes"/>
      <point x="355.0" y="373.20000000000005"/>
      <point x="369.8" y="351.20000000000005"/>
      <point x="369.8" y="269.8" type="curve" smooth="yes"/>
      <point x="369.8" y="175.2"/>
      <point x="351.0" y="150.0"/>
    </contour>
  </outline>
</glyph>
<glyph name="Dcroat" format="2">
  <advance width="719.8000000000001"/>
  <unicode hex="0110"/>
  <outline>
    <contour>
      <point x="7.800000000000001" y="265.2" type="line"/>
      <point x="365.6" y="265.2" type="line"/>
      <point x="365.6" y="437.0" type="line"/>
      <point x="7.800000000000001" y="437.0" type="line"/>
    </contour>
    <component base="D" xOffset="3.1999999999999997"/>
  </outline>
</glyph>
<glyph name="dcroat" format="2">
  <advance width="629.8"/>
  <unicode hex="0111"/>
  <outline>
    <contour>
      <point x="225.59999999999997" y="597.0" type="line"/>
      <point x="639.0" y="597.0" type="line"/>
      <point x="639.0" y="701.0" type="line"/>
      <point x="225.59999999999997" y="701.0" type="line"/>
    </contour>
    <component base="d"/>
  </outline>
</glyph>
<glyph name="Hbar" format="2">
  <advance width="722.2"/>
  <unicode hex="0126"/>
  <outline>
    <contour>
      <point x="10.200000000000001" y="501.8" type="line"/>
      <point x="45.2" y="501.8" type="line"/>
      <point x="45.2" y="0.0" type="line"/>
      <point x="278.2" y="0.0" type="line"/>
      <point x="278.2" y="221.2" type="line"/>
      <point x="447.99999999999994" y="221.2" type="line"/>
      <point x="447.99999999999994" y="0.0" type="line"/>
      <point x="677.0" y="0.0" type="line"/>
      <point x="677.0" y="501.8" type="line"/>
      <point x="712.0" y="501.8" type="line"/>
      <point x="712.0" y="646.0" type="line"/>
      <point x="677.0" y="646.0" type="line"/>
      <point x="677.0" y="700.0" type="line"/>
      <point x="447.99999999999994" y="700.0" type="line"/>
      <point x="447.99999999999994" y="646.0" type="line"/>
      <point x="278.2" y="646.0" type="line"/>
      <point x="278.2" y="700.0" type="line"/>
      <point x="45.2" y="700.0" type="line"/>
      <point x="45.2" y="646.0" type="line"/>
      <point x="10.200000000000001" y="646.0" type="line"/>
    </contour>
    <contour>
      <point x="278.2" y="428.2" type="line"/>
      <point x="278.2" y="501.8" type="line"/>
      <point x="447.99999999999994" y="501.8" type="line"/>
      <point x="447.99999999999994" y="428.2" type="line"/>
    </contour>
  </outline>
</glyph>
<glyph name="hbar" format="2">
  <advance width="606.4"/>
  <unicode hex="0127"/>
  <outline>
    <contour>
      <point x="-7.200000000000001" y="597.0" type="line"/>
      <point x="394.00000000000006" y="597.0" type="line"/>
      <point x="394.00000000000006" y="701.0" type="line"/>
      <point x="-7.200000000000001" y="701.0" type="line"/>
    </contour>
    <component base="h"/>
  </outline>
</glyph>
<glyph name="Idotaccent" format="2">
  <advance width="319.4"/>
  <unicode hex="0130"/>
  <outline>
    <contour>
      <point x="160.6" y="719.4" type="curve" smooth="yes"/>
      <point x="251.0" y="719.4"/>
      <point x="291.40000000000003" y="756.8"/>
      <point x="291.40000000000003" y="829.4" type="curve" smooth="yes"/>
      <point x="291.40000000000003" y="903.2"/>
      <point x="249.8" y="940.0"/>
      <point x="160.6" y="940.0" type="curve" smooth="yes"/>
      <point x="70.80000000000001" y="940.0"/>
      <point x="29.200000000000003" y="903.2"/>
      <point x="29.200000000000003" y="829.4" type="curve" smooth="yes"/>
      <point x="29.200000000000003" y="756.2"/>
      <point x="70.80000000000001" y="719.4"/>
    </contour>
    <component base="I"/>
  </outline>
</glyph>
<glyph name="dotlessi" format="2">
  <advance width="292.8"/>
  <unicode hex="0131"/>
  <anchor x="245.4" y="10.0" name="ogonek"/>
  <anchor x="147.6" y="0.0" name="bottom"/>
  <anchor x="146.4" y="550.0" name="top"/>
  <outline>
    <contour>
      <point x="33.0" y="0.0" type="line"/>
      <point x="259.8" y="0.0" type="line"/>
      <point x="259.8" y="550.0" type="line"/>
      <point x="33.0" y="550.0" type="line"/>
    </contour>
  </outline>
</glyph>
<glyph name="kgreenlandic" format="2">
  <advance width="625.0"/>
  <unicode hex="0138"/>
  <anchor x="315.0" y="550.0" name="top"/>
  <anchor x="315.0" y="0.0" name="bottom"/>
  <outline>
    <contour>
      <point x="558.0" y="-12.0" type="curve" smooth="yes"/>
      <point x="572.0" y="-12.0"/>
      <point x="586.0" y="-11.0"/>
      <point x="603.0" y="-8.0" type="curve"/>
      <point x="602.0" y="181.0" type="line"/>
      <point x="598.0" y="181.0"/>
      <point x="596.0" y="181.0"/>
      <point x="594.0" y="181.0" type="curve" smooth="yes"/>
      <point x="554.0" y="181.0"/>
      <point x="506.0" y="213.0"/>
      <point x="399.0" y="303.0" type="curve" smooth="yes"/>
      <point x="215.0" y="459.0" type="line"/>
      <point x="215.0" y="550.0" type="line"/>
      <point x="51.0" y="550.0" type="line"/>
      <point x="51.0" y="0.0" type="line"/>
      <point x="215.0" y="0.0" type="line"/>
      <point x="215.0" y="189.0" type="line"/>
      <point x="357.0" y="81.0" type="line" smooth="yes"/>
      <point x="454.0" y="7.0"/>
      <point x="500.0" y="-12.0"/>
    </contour>
    <contour>
      <point x="354.0" y="223.0" type="line"/>
      <point x="466.0" y="327.0"/>
      <point x="572.0" y="442.0"/>
      <point x="604.0" y="538.0" type="curve"/>
      <point x="437.0" y="550.0" type="line"/>
      <point x="412.0" y="461.0"/>
      <point x="338.0" y="409.0"/>
      <point x="245.0" y="331.0" type="curve"/>
    </contour>
  </outline>
</glyph>
<glyph name="Ldot" format="2">
  <advance width="593.4000000000001"/>
  <unicode hex="013F"/>
  <outline>
    <contour>
      <point x="352.80000000000007" y="420.40000000000003" type="curve" smooth="yes"/>
      <point x="352.80000000000007" y="360.40000000000003"/>
      <point x="381.6" y="329.8"/>
      <point x="453.4" y="329.8" type="curve" smooth="yes"/>
      <point x="525.8000000000001" y="329.8"/>
      <point x="554.6" y="360.40000000000003"/>
      <point x="554.6" y="420.40000000000003" type="curve" smooth="yes"/>
      <point x="554.6" y="481.40000000000003"/>
      <point x="525.8000000000001" y="512.0"/>
      <point x="453.4" y="512.0" type="curve" smooth="yes"/>
      <point x="381.6" y="512.0"/>
      <point x="352.80000000000007" y="481.40000000000003"/>
    </contour>
    <component base="L"/>
  </outline>
</glyph>
<glyph name="ldot" format="2">
  <advance width="441.4"/>
  <unicode hex="0140"/>
  <outline>
    <contour>
      <point x="375.2" y="318.20000000000005" type="curve" smooth="yes"/>
      <point x="421.0" y="318.20000000000005"/>
      <point x="444.2" y="342.8"/>
      <point x="444.2" y="396.40000000000003" type="curve" smooth="yes"/>
      <point x="444.2" y="450.6"/>
      <point x="421.0" y="475.20000000000005"/>
      <point x="375.2" y="475.20000000000005" type="curve" smooth="yes"/>
      <point x="330.0" y="475.20000000000005"/>
      <point x="306.8" y="450.6"/>
      <point x="306.8" y="396.40000000000003" type="curve" smooth="yes"/>
      <point x="306.8" y="342.8"/>
      <point x="330.0" y="318.20000000000005"/>
    </contour>
    <component base="l"/>
  </outline>
</glyph>
<glyph name="Lslash" format="2">
  <advance width="603.5999999999999"/>
  <unicode hex="0141"/>
  <outline>
    <contour>
      <point x="2.8" y="182.2" type="line"/>
      <point x="53.4" y="206.4" type="line"/>
      <point x="53.4" y="0.0" type="line"/>
      <point x="583.5999999999999" y="0.0" type="line"/>
      <point x="583.5999999999999" y="202.8" type="line"/>
      <point x="287.0" y="202.8" type="line"/>
      <point x="287.0" y="315.40000000000003" type="line"/>
      <point x="455.0" y="392.2" type="line"/>
      <point x="455.0" y="587.8" type="line"/>
      <point x="287.0" y="511.0" type="line"/>
      <point x="287.0" y="700.0" type="line"/>
      <point x="53.4" y="700.0" type="line"/>
      <point x="53.4" y="402.0" type="line"/>
      <point x="2.8" y="377.8" type="line"/>
    </contour>
  </outline>
</glyph>
<glyph name="lslash" format="2">
  <advance width="382.59999999999997"/>
  <unicode hex="0142"/>
  <outline>
    <contour>
      <point x="219.4" y="-10.0" type="curve" smooth="yes"/>
      <point x="278.0" y="-10.0"/>
      <point x="335.0" y="4.0"/>
      <point x="376.20000000000005" y="19.599999999999998" type="curve"/>
      <point x="356.6" y="204.2" type="line"/>
      <point x="333.6" y="200.0"/>
      <point x="315.59999999999997" y="197.4"/>
      <point x="302.0" y="197.4" type="curve" smooth="yes"/>
      <point x="281.8" y="197.4"/>
      <point x="269.8" y="205.6"/>
      <point x="269.8" y="236.8" type="curve" smooth="yes"/>
      <point x="269.8" y="345.8" type="line"/>
      <point x="351.0" y="392.59999999999997" type="line"/>
      <point x="351.0" y="562.0" type="line"/>
      <point x="269.8" y="515.2" type="line"/>
      <point x="269.8" y="740.0" type="line"/>
      <point x="44.8" y="740.0" type="line"/>
      <point x="44.8" y="371.6" type="line"/>
      <point x="-0.5999999999999979" y="344.59999999999997" type="line"/>
      <point x="-0.5999999999999979" y="175.2" type="line"/>
      <point x="45.599999999999994" y="202.6" type="line"/>
      <point x="46.4" y="174.6" type="line" smooth="yes"/>
      <point x="53.2" y="42.199999999999996"/>
      <point x="106.0" y="-10.0"/>
    </contour>
  </outline>
</glyph>
<glyph name="Eng" format="2">
  <advance width="697"/>
  <unicode hex="014A"/>
  <outline>
    <contour>
      <point x="43" y="0" type="line"/>
      <point x="250" y="0" type="line"/>
      <point x="250" y="330" type="line"/>
      <point x="435" y="3" type="line"/>
      <point x="435" y="-2" type="line" smooth="yes"/>
      <point x="435" y="-16"/>
      <point x="418" y="-27"/>
      <point x="386" y="-27" type="curve" smooth="yes"/>
      <point x="367" y="-27"/>
      <point x="343" y="-25"/>
      <point x="311" y="-16" type="curve"/>
      <point x="274" y="-193" type="line"/>
      <point x="318" y="-209"/>
      <point x="364" y="-220"/>
      <point x="424" y="-220" type="curve" smooth="yes"/>
      <point x="562" y="-220"/>
      <point x="654" y="-153"/>
      <point x="654" y="-14" type="curve" smooth="yes"/>
      <point x="654" y="700" type="line"/>
      <point x="449" y="700" type="line"/>
      <point x="449" y="358" type="line"/>
      <point x="264" y="700" type="line"/>
      <point x="43" y="700" type="line"/>
    </contour>
  </outline>
</glyph>
<glyph name="eng" format="2">
  <advance width="607.0"/>
  <unicode hex="014B"/>
  <outline>
    <contour>
      <point x="575.1999999999999" y="35.0" type="curve"/>
      <point x="575.1999999999999" y="399.40000000000003" type="line" smooth="yes"/>
      <point x="575.1999999999999" y="490.40000000000003"/>
      <point x="523.6" y="560.0"/>
      <point x="408.59999999999997" y="560.0" type="curve" smooth="yes"/>
      <point x="345.8" y="560.0"/>
      <point x="296.4" y="540.8000000000001"/>
      <point x="236.0" y="502.8" type="curve"/>
      <point x="236.0" y="550.0" type="line"/>
      <point x="33.0" y="550.0" type="line"/>
      <point x="33.0" y="0.0" type="line"/>
      <point x="258.6" y="0.0" type="line"/>
      <point x="258.6" y="358.8" type="line"/>
      <point x="277.40000000000003" y="365.8"/>
      <point x="294.40000000000003" y="371.8"/>
      <point x="310.80000000000007" y="371.8" type="curve" smooth="yes"/>
      <point x="334.20000000000005" y="371.8"/>
      <point x="349.6" y="358.4"/>
      <point x="349.6" y="320.2" type="curve" smooth="yes"/>
      <point x="349.6" y="33.0" type="line" smooth="yes"/>
      <point x="349.6" y="-4.199999999999999"/>
      <point x="339.80000000000007" y="-13.799999999999999"/>
      <point x="319.6" y="-13.799999999999999" type="curve" smooth="yes"/>
      <point x="312.6" y="-13.8"/>
      <point x="302.2" y="-12.4"/>
      <point x="294.2" y="-11.0" type="curve"/>
      <point x="281.79999999999995" y="-212.20000000000002" type="line"/>
      <point x="307.4" y="-217.6"/>
      <point x="333.4" y="-220.0"/>
      <point x="361.6" y="-220.0" type="curve" smooth="yes"/>
      <point x="492.19999999999993" y="-220.0"/>
      <point x="575.1999999999999" y="-124.2"/>
    </contour>
  </outline>
</glyph>
<glyph name="OE" format="2">
  <advance width="1024.8000000000002"/>
  <unicode hex="0152"/>
  <outline>
    <contour>
      <point x="1000.4" y="0.0" type="line"/>
      <point x="1000.4" y="188.8" type="line"/>
      <point x="670.4000000000001" y="188.8" type="line"/>
      <point x="670.4000000000001" y="262.8" type="line"/>
      <point x="955.5999999999999" y="262.8" type="line"/>
      <point x="955.5999999999999" y="435.6" type="line"/>
      <point x="670.4000000000001" y="435.6" type="line"/>
      <point x="670.4000000000001" y="508.2" type="line"/>
      <point x="982.2" y="508.2" type="line"/>
      <point x="982.2" y="700.0" type="line"/>
      <point x="639.8000000000001" y="700.0" type="line"/>
      <point x="556.5999999999999" y="706.4"/>
      <point x="477.20000000000005" y="710.0"/>
      <point x="369.2" y="710.0" type="curve" smooth="yes"/>
      <point x="111.20000000000002" y="710.0"/>
      <point x="19.8" y="574.5999999999999"/>
      <point x="19.8" y="354.79999999999995" type="curve" smooth="yes"/>
      <point x="19.8" y="89.6"/>
      <point x="124.20000000000002" y="-10.0"/>
      <point x="376.79999999999995" y="-10.0" type="curve" smooth="yes"/>
      <point x="483.2" y="-10.0"/>
      <point x="574.6" y="-7.8"/>
      <point x="669.8000000000001" y="0.0" type="curve"/>
    </contour>
    <contour>
      <point x="440.4000000000001" y="174.6" type="line"/>
      <point x="422.4000000000001" y="172.6"/>
      <point x="394.4" y="170.60000000000002"/>
      <point x="352.4" y="170.60000000000002" type="curve" smooth="yes"/>
      <point x="293.8" y="170.60000000000002"/>
      <point x="259.0" y="221.6"/>
      <point x="259.0" y="351.2" type="curve" smooth="yes"/>
      <point x="259.0" y="479.4"/>
      <point x="291.2" y="527.8000000000001"/>
      <point x="349.20000000000005" y="527.8000000000001" type="curve" smooth="yes"/>
      <point x="390.0" y="527.8000000000001"/>
      <point x="405.20000000000005" y="525.4"/>
      <point x="440.4000000000001" y="523.4" type="curve"/>
    </contour>
  </outline>
</glyph>
<glyph name="oe" format="2">
  <advance width="930.2"/>
  <unicode hex="0153"/>
  <outline>
    <contour>
      <point x="17.6" y="276.6" type="curve" smooth="yes"/>
      <point x="17.6" y="106.6"/>
      <point x="87.4" y="-10.0"/>
      <point x="304.2" y="-10.0" type="curve" smooth="yes"/>
      <point x="375.2" y="-10.0"/>
      <point x="430.6" y="7.399999999999999"/>
      <point x="473.0" y="30.4" type="curve"/>
      <point x="525.6" y="9.399999999999999"/>
      <point x="582.0" y="-10.0"/>
      <point x="665.6" y="-10.0" type="curve" smooth="yes"/>
      <point x="758.2" y="-10.0"/>
      <point x="827.2" y="0.0"/>
      <point x="906.0" y="25.2" type="curve"/>
      <point x="879.8" y="194.8" type="line"/>
      <point x="799.0" y="178.0"/>
      <point x="725.6" y="170.2"/>
      <point x="690.8" y="170.2" type="curve" smooth="yes"/>
      <point x="616.8" y="170.2"/>
      <point x="589.8" y="179.2"/>
      <point x="589.8" y="200.8" type="curve" smooth="yes"/>
      <point x="589.8" y="201.0"/>
      <point x="589.4" y="204.2"/>
      <point x="590.0" y="206.4" type="curve"/>
      <point x="712.6" y="211.4"/>
      <point x="838.2" y="222.8"/>
      <point x="904.4" y="227.0" type="curve"/>
      <point x="905.4" y="246.8"/>
      <point x="906.4" y="276.4"/>
      <point x="906.4" y="293.8" type="curve" smooth="yes"/>
      <point x="906.4" y="470.8"/>
      <point x="834.4" y="560.0"/>
      <point x="643.8" y="560.0" type="curve" smooth="yes"/>
      <point x="582.4" y="560.0"/>
      <point x="529.6" y="534.8"/>
      <point x="483.4" y="511.0" type="curve"/>
      <point x="435.4" y="542.4"/>
      <point x="376.8" y="560.0"/>
      <point x="304.2" y="560.0" type="curve" smooth="yes"/>
      <point x="80.0" y="560.0"/>
      <point x="17.6" y="440.6"/>
    </contour>
    <contour>
      <point x="248.8" y="276.2" type="curve" smooth="yes"/>
      <point x="248.8" y="368.2"/>
      <point x="260.8" y="392.6"/>
      <point x="303.8" y="392.6" type="curve" smooth="yes"/>
      <point x="345.6" y="392.6"/>
      <point x="357.8" y="368.2"/>
      <point x="357.8" y="276.2" type="curve" smooth="yes"/>
      <point x="357.8" y="181.2"/>
      <point x="344.0" y="158.0"/>
      <point x="303.8" y="158.0" type="curve" smooth="yes"/>
      <point x="263.0" y="158.0"/>
      <point x="248.8" y="181.2"/>
    </contour>
    <contour>
      <point x="589.8" y="326.8" type="curve"/>
      <point x="596.2" y="396.4"/>
      <point x="610.4" y="403.6"/>
      <point x="635.6" y="403.6" type="curve" smooth="yes"/>
      <point x="658.6" y="403.6"/>
      <point x="673.2" y="388.8"/>
      <point x="679.2" y="330.2" type="curve"/>
      <point x="648.8" y="328.6"/>
      <point x="617.0" y="327.2"/>
    </contour>
  </outline>
</glyph>
<glyph name="uni0162" format="2">
  <advance width="663.1999999999999"/>
  <unicode hex="0162"/>
  <outline>
    <contour>
      <point x="199.8" y="-78.2" type="curve"/>
      <point x="198.0" y="-209.20000000000002" type="line"/>
      <point x="230.0" y="-217.2"/>
      <point x="257.8" y="-220.0"/>
      <point x="284.6" y="-220.0" type="curve" smooth="yes"/>
      <point x="398.0" y="-220.0"/>
      <point x="437.00000000000006" y="-161.60000000000002"/>
      <point x="437.00000000000006" y="-92.4" type="curve" smooth="yes"/>
      <point x="437.00000000000006" y="-60.39999999999999"/>
      <point x="424.2" y="-15.2"/>
      <point x="411.6" y="7.6" type="curve"/>
      <point x="254.39999999999998" y="7.6" type="line"/>
      <point x="266.79999999999995" y="-6.999999999999999"/>
      <point x="275.2" y="-31.8"/>
      <point x="275.2" y="-45.6" type="curve" smooth="yes"/>
      <point x="275.2" y="-69.6"/>
      <point x="258.20000000000005" y="-81.39999999999999"/>
      <point x="231.4" y="-81.39999999999999" type="curve" smooth="yes"/>
      <point x="223.20000000000002" y="-81.39999999999999"/>
      <point x="212.2" y="-80.4"/>
    </contour>
    <component base="T"/>
  </outline>
</glyph>
<glyph name="Tbar" format="2">
  <advance width="671.1999999999999"/>
  <unicode hex="0166"/>
  <outline>
    <contour>
      <point x="97.60000000000001" y="217.0" type="line"/>
      <point x="219.4" y="217.0" type="line"/>
      <point x="219.4" y="0.0" type="line"/>
      <point x="452.4" y="0.0" type="line"/>
      <point x="452.4" y="217.0" type="line"/>
      <point x="572.4" y="217.0" type="line"/>
      <point x="572.4" y="399.4" type="line"/>
      <point x="452.4" y="399.4" type="line"/>
      <point x="452.4" y="494.79999999999995" type="line"/>
      <point x="651.1999999999999" y="494.79999999999995" type="line"/>
      <point x="651.1999999999999" y="700.0" type="line"/>
      <point x="20.0" y="700.0" type="line"/>
      <point x="20.0" y="494.79999999999995" type="line"/>
      <point x="219.4" y="494.79999999999995" type="line"/>
      <point x="219.4" y="399.4" type="line"/>
      <point x="97.60000000000001" y="399.4" type="line"/>
    </contour>
  </outline>
</glyph>
<glyph name="tbar" format="2">
  <advance width="432.2"/>
  <unicode hex="0167"/>
  <outline>
    <contour>
      <point x="296.0" y="242.6" type="line"/>
      <point x="390.8" y="242.6" type="line"/>
      <point x="390.8" y="365.0" type="line"/>
      <point x="296.0" y="365.0" type="line"/>
      <point x="296.0" y="401.20000000000005" type="line"/>
      <point x="400.8" y="401.20000000000005" type="line"/>
      <point x="400.8" y="550.0" type="line"/>
      <point x="296.0" y="550.0" type="line"/>
      <point x="296.0" y="658.4" type="line"/>
      <point x="96.8" y="658.4" type="line"/>
      <point x="71.0" y="550.0" type="line"/>
      <point x="4.6" y="538.4" type="line"/>
      <point x="4.6" y="401.8" type="line"/>
      <point x="71.0" y="401.8" type="line"/>
      <point x="71.0" y="365.0" type="line"/>
      <point x="6.399999999999999" y="365.0" type="line"/>
      <point x="6.399999999999999" y="242.6" type="line"/>
      <point x="71.0" y="242.6" type="line"/>
      <point x="71.0" y="204.0" type="line" smooth="yes"/>
      <point x="71.0" y="55.2"/>
      <point x="137.2" y="-10.0"/>
      <point x="251.99999999999997" y="-10.0" type="curve" smooth="yes"/>
      <point x="307.8" y="-10.0"/>
      <point x="364.20000000000005" y="-2.9999999999999996"/>
      <point x="425.40000000000003" y="17.8" type="curve"/>
      <point x="396.2" y="188.0" type="line"/>
      <point x="366.2" y="181.0"/>
      <point x="346.2" y="179.4"/>
      <point x="334.8" y="179.4" type="curve" smooth="yes"/>
      <point x="309.0" y="179.4"/>
      <point x="296.0" y="188.4"/>
      <point x="296.0" y="217.20000000000002" type="curve" smooth="yes"/>
    </contour>
  </outline>
</glyph>
<glyph name="uogonek" format="2">
  <advance width="626.1999999999999"/>
  <unicode hex="0173"/>
  <outline>
    <contour>
      <point x="539.0" y="-196.2" type="curve" smooth="yes"/>
      <point x="578.6" y="-196.2"/>
      <point x="606.2" y="-192.20000000000002"/>
      <point x="627.8000000000001" y="-184.20000000000002" type="curve"/>
      <point x="620.6" y="-46.400000000000006" type="line"/>
      <point x="616.4" y="-47.4"/>
      <point x="610.6" y="-48.400000000000006"/>
      <point x="602.8" y="-48.400000000000006" type="curve" smooth="yes"/>
      <point x="583.4" y="-48.400000000000006"/>
      <point x="571.8" y="-39.8"/>
      <point x="571.8" y="-23.400000000000002" type="curve" smooth="yes"/>
      <point x="571.8" y="-4.399999999999999"/>
      <point x="584.6" y="7.3999999999999995"/>
      <point x="625.0" y="23.8" type="curve"/>
      <point x="608.8000000000001" y="184.4" type="line"/>
      <point x="603.4" y="182.2"/>
      <point x="597.0" y="181.2"/>
      <point x="591.0" y="181.2" type="curve" smooth="yes"/>
      <point x="580.4" y="181.2"/>
      <point x="573.4" y="187.6"/>
      <point x="573.4" y="208.6" type="curve" smooth="yes"/>
      <point x="573.4" y="550.0" type="line"/>
      <point x="348.40000000000003" y="550.0" type="line"/>
      <point x="348.40000000000003" y="188.79999999999998" type="line"/>
      <point x="327.0" y="179.4"/>
      <point x="313.79999999999995" y="176.60000000000002"/>
      <point x="297.4" y="176.60000000000002" type="curve" smooth="yes"/>
      <point x="275.0" y="176.60000000000002"/>
      <point x="257.4" y="188.2"/>
      <point x="257.4" y="224.2" type="curve" smooth="yes"/>
      <point x="257.4" y="550.0" type="line"/>
      <point x="31.8" y="550.0" type="line"/>
      <point x="31.8" y="168.6" type="line" smooth="yes"/>
      <point x="31.8" y="45.2"/>
      <point x="102.39999999999999" y="-10.0"/>
      <point x="203.8" y="-10.0" type="curve" smooth="yes"/>
      <point x="268.6" y="-10.0"/>
      <point x="321.0" y="9.199999999999998"/>
      <point x="375.40000000000003" y="43.8" type="curve"/>
      <point x="401.6" y="10.6"/>
      <point x="434.4" y="-10.0"/>
      <point x="493.6" y="-10.0" type="curve" smooth="yes"/>
      <point x="513.1999999999999" y="-10.0"/>
      <point x="530.5999999999999" y="-8.6"/>
      <point x="548.0" y="-4.6" type="curve"/>
      <point x="503.0" y="13.4" type="line"/>
      <point x="450.0" y="0.20000000000000107"/>
      <point x="402.0" y="-39.8"/>
      <point x="402.0" y="-93.4" type="curve" smooth="yes"/>
      <point x="402.0" y="-158.0"/>
      <point x="454.0" y="-196.2"/>
    </contour>
  </outline>
</glyph>
<glyph name="longs" format="2">
  <advance width="405.20000000000005"/>
  <unicode hex="017F"/>
  <outline>
    <contour>
      <point x="299.8" y="514.6" type="line"/>
      <point x="299.8" y="558.2"/>
      <point x="333.0" y="567.0"/>
      <point x="356.6" y="567.0" type="curve" smooth="yes"/>
      <point x="381.6" y="567.0"/>
      <point x="421.20000000000005" y="560.6"/>
      <point x="437.0" y="555.4" type="curve"/>
      <point x="466.0" y="719.4" type="line"/>
      <point x="419.6" y="737.0"/>
      <point x="363.6" y="750.0"/>
      <point x="297.59999999999997" y="750.0" type="curve" smooth="yes"/>
      <point x="168.40000000000003" y="750.0"/>
      <point x="74.8" y="678.4"/>
      <point x="74.8" y="526.4000000000001" type="curve" smooth="yes"/>
      <point x="74.8" y="511.0" type="line"/>
      <point x="8.600000000000001" y="498.79999999999995" type="line"/>
      <point x="8.600000000000001" y="349.40000000000003" type="line"/>
      <point x="74.8" y="349.40000000000003" type="line"/>
      <point x="74.8" y="0.0" type="line"/>
      <point x="299.8" y="0.0" type="line"/>
    </contour>
  </outline>
</glyph>
<glyph name="uni018F" format="2">
  <advance width="659.1999999999999"/>
  <unicode hex="018F"/>
  <outline>
    <contour>
      <point x="59.599999999999994" y="486.40000000000003" type="line"/>
      <point x="142.6" y="506.6"/>
      <point x="210.79999999999998" y="515.8"/>
      <point x="265.6" y="515.8" type="curve" smooth="yes"/>
      <point x="349.4" y="515.8"/>
      <point x="386.6" y="489.2"/>
      <point x="389.00000000000006" y="448.0" type="curve" smooth="yes"/>
      <point x="389.6" y="443.0"/>
      <point x="389.6000000000001" y="439.0"/>
      <point x="389.6" y="433.4" type="curve"/>
      <point x="246.2" y="424.6"/>
      <point x="125.6" y="415.6"/>
      <point x="18.599999999999998" y="406.40000000000003" type="curve"/>
      <point x="17.2" y="381.8"/>
      <point x="16.200000000000003" y="350.2"/>
      <point x="16.200000000000003" y="325.8" type="curve" smooth="yes"/>
      <point x="16.200000000000003" y="94.8"/>
      <point x="109.60000000000001" y="-10.0"/>
      <point x="313.8" y="-10.0" type="curve" smooth="yes"/>
      <point x="511.40000000000003" y="-10.0"/>
      <point x="639.4000000000001" y="112.19999999999999"/>
      <point x="639.4000000000001" y="365.8" type="curve" smooth="yes"/>
      <point x="639.4000000000001" y="592.4"/>
      <point x="526.8" y="709.4"/>
      <point x="306.0" y="709.4" type="curve" smooth="yes"/>
      <point x="210.4" y="709.4"/>
      <point x="135.2" y="695.6"/>
      <point x="28.400000000000006" y="661.4" type="curve"/>
    </contour>
    <contour>
      <point x="392.80000000000007" y="283.4" type="curve"/>
      <point x="393.2" y="205.20000000000002"/>
      <point x="360.80000000000007" y="169.2"/>
      <point x="318.6" y="169.2" type="curve" smooth="yes"/>
      <point x="271.0" y="169.2"/>
      <point x="258.6" y="188.79999999999998"/>
      <point x="253.0" y="277.6" type="curve"/>
      <point x="289.79999999999995" y="279.6"/>
      <point x="355.4" y="282.0"/>
    </contour>
  </outline>
</glyph>
<glyph name="florin" format="2">
  <advance width="672.0"/>
  <unicode hex="0192"/>
  <outline>
    <contour>
      <point x="120.2" y="397.40000000000003" type="line"/>
      <point x="95.80000000000001" y="248.0" type="line"/>
      <point x="164.4" y="248.0" type="line"/>
      <point x="91.0" y="-210.0" type="line"/>
      <point x="309.20000000000005" y="-210.0" type="line"/>
      <point x="382.2" y="248.0" type="line"/>
      <point x="518.4000000000001" y="248.0" type="line"/>
      <point x="544.0" y="409.6" type="line"/>
      <point x="408.2" y="409.6" type="line"/>
      <point x="415.6" y="455.2" type="line" smooth="yes"/>
      <point x="424.0" y="498.0"/>
      <point x="441.40000000000003" y="514.4"/>
      <point x="477.0" y="514.4" type="curve" smooth="yes"/>
      <point x="508.6" y="514.4"/>
      <point x="536.8" y="508.99999999999994"/>
      <point x="575.4000000000001" y="496.20000000000005" type="curve"/>
      <point x="633.8000000000001" y="673.4" type="line"/>
      <point x="587.0" y="696.8"/>
      <point x="525.4" y="710.0"/>
      <point x="456.40000000000003" y="710.0" type="curve" smooth="yes"/>
      <point x="321.0" y="710.0"/>
      <point x="225.8" y="626.6"/>
      <point x="202.60000000000002" y="486.40000000000003" type="curve" smooth="yes"/>
      <point x="190.4" y="409.6" type="line"/>
    </contour>
  </outline>
</glyph>
<glyph name="uni0237" format="2">
  <advance width="302.2"/>
  <unicode hex="0237"/>
  <anchor x="156.4" y="550.0" name="top"/>
  <outline>
    <contour>
      <point x="269.2" y="34.2" type="curve" smooth="yes"/>
      <point x="269.2" y="550.0" type="line"/>
      <point x="44.2" y="550.0" type="line"/>
      <point x="44.2" y="46.6" type="line"/>
      <point x="44.2" y="-7.4"/>
      <point x="28.400000000000006" y="-23.4"/>
      <point x="-12.0" y="-23.4" type="curve" smooth="yes"/>
      <point x="-21.2" y="-23.4"/>
      <point x="-29.2" y="-21.6"/>
      <point x="-40.2" y="-18.6" type="curve"/>
      <point x="-60.4" y="-207.20000000000002" type="line"/>
      <point x="-26.8" y="-215.2"/>
      <point x="15.200000000000001" y="-220.0"/>
      <point x="44.8" y="-220.0" type="curve" smooth="yes"/>
      <point x="205.8" y="-220.0"/>
      <point x="269.2" y="-133.2"/>
    </contour>
  </outline>
</glyph>
<glyph name="uni0259" format="2">
  <advance width="590.8"/>
  <unicode hex="0259"/>
  <outline>
    <contour>
      <point x="27.400000000000002" y="322.6" type="curve"/>
      <point x="26.0" y="303.0"/>
      <point x="25.400000000000002" y="272.6"/>
      <point x="25.400000000000002" y="256.2" type="curve" smooth="yes"/>
      <point x="25.400000000000002" y="78.8"/>
      <point x="97.39999999999999" y="-10.0"/>
      <point x="288.4" y="-10.0" type="curve" smooth="yes"/>
      <point x="458.4" y="-10.0"/>
      <point x="573.1999999999999" y="88.80000000000001"/>
      <point x="573.1999999999999" y="288.2" type="curve" smooth="yes"/>
      <point x="573.1999999999999" y="469.8"/>
      <point x="479.79999999999995" y="560.0"/>
      <point x="282.2" y="560.0" type="curve" smooth="yes"/>
      <point x="180.6" y="560.0"/>
      <point x="105.4" y="548.0"/>
      <point x="25.600000000000005" y="524.4" type="curve"/>
      <point x="52.4" y="355.0" type="line"/>
      <point x="133.2" y="372.4"/>
      <point x="205.0" y="378.6"/>
      <point x="240.8" y="378.6" type="curve" smooth="yes"/>
      <point x="306.8" y="378.6"/>
      <point x="339.2" y="374.4"/>
      <point x="339.2" y="349.59999999999997" type="curve" smooth="yes"/>
      <point x="339.2" y="347.4"/>
      <point x="339.2" y="346.2"/>
      <point x="339.20000000000005" y="344.0" type="curve"/>
      <point x="214.2" y="339.0"/>
      <point x="93.2" y="327.59999999999997"/>
    </contour>
    <contour>
      <point x="340.0" y="221.6" type="curve"/>
      <point x="333.59999999999997" y="154.8"/>
      <point x="319.80000000000007" y="147.4"/>
      <point x="296.6" y="147.4" type="curve" smooth="yes"/>
      <point x="273.6" y="147.4"/>
      <point x="260.8" y="162.6"/>
      <point x="254.8" y="218.4" type="curve"/>
      <point x="282.2" y="219.79999999999998"/>
      <point x="313.2" y="220.79999999999998"/>
    </contour>
  </outline>
</glyph>
<glyph name="gravecomb" format="2">
  <unicode hex="0300"/>
  <anchor x="-382.2" y="789.4" name="top"/>
  <anchor x="-306.79999999999995" y="550.0" name="_top"/>
  <outline>
    <contour>
      <point x="-396.0" y="595.4" type="line"/>
      <point x="-219.8" y="595.4" type="line"/>
      <point x="-291.80000000000007" y="789.4" type="line"/>
      <point x="-519.2" y="789.4" type="line"/>
    </contour>
  </outline>
</glyph>
<glyph name="acutecomb" format="2">
  <unicode hex="0301"/>
  <anchor x="-246.2" y="789.4" name="top"/>
  <anchor x="-306.79999999999995" y="550.0" name="_top"/>
  <outline>
    <contour>
      <point x="-392.8" y="595.4" type="line"/>
      <point x="-224.39999999999998" y="595.4" type="line"/>
      <point x="-100.6" y="789.4" type="line"/>
      <point x="-320.8" y="789.4" type="line"/>
    </contour>
  </outline>
</glyph>
<glyph name="uni0302" format="2">
  <unicode hex="0302"/>
  <anchor x="-306.4" y="784.2" name="top"/>
  <anchor x="-306.4" y="550.0" name="_top"/>
  <anchor x="-37.8" y="654.8" name="top_viet"/>
  <outline>
    <contour>
      <point x="-518.4" y="595.4" type="line"/>
      <point x="-340.8" y="595.4" type="line"/>
      <point x="-306.8" y="692.4" type="line"/>
      <point x="-273.4" y="595.4" type="line"/>
      <point x="-94.8" y="595.4" type="line"/>
      <point x="-180.39999999999998" y="789.4" type="line"/>
      <point x="-428.8" y="789.4" type="line"/>
    </contour>
  </outline>
</glyph>
<glyph name="tildecomb" format="2">
  <unicode hex="0303"/>
  <anchor x="-306.79999999999995" y="774.6" name="top"/>
  <anchor x="-306.79999999999995" y="550.0" name="_top"/>
  <outline>
    <contour>
      <point x="-507.59999999999997" y="595.4000000000001" type="curve"/>
      <point x="-392.59999999999997" y="595.4000000000001" type="line"/>
      <point x="-392.6" y="597.4000000000001"/>
      <point x="-392.0" y="601.4"/>
      <point x="-392.0" y="603.4000000000001" type="curve" smooth="yes"/>
      <point x="-392.0" y="616.4"/>
      <point x="-383.59999999999997" y="625.6"/>
      <point x="-368.4" y="625.6" type="curve" smooth="yes"/>
      <point x="-343.40000000000003" y="625.6"/>
      <point x="-274.59999999999997" y="600.2"/>
      <point x="-230.0" y="600.2" type="curve" smooth="yes"/>
      <point x="-145.0" y="600.2"/>
      <point x="-103.6" y="639.4"/>
      <point x="-103.6" y="734.6" type="curve" smooth="yes"/>
      <point x="-103.6" y="750.2"/>
      <point x="-104.6" y="767.2"/>
      <point x="-107.0" y="784.6" type="curve"/>
      <point x="-222.00000000000003" y="784.6" type="line"/>
      <point x="-222.0" y="783.2"/>
      <point x="-222.0" y="779.1999999999999"/>
      <point x="-222.0" y="777.2" type="curve" smooth="yes"/>
      <point x="-222.0" y="763.5999999999999"/>
      <point x="-231.6" y="755.0"/>
      <point x="-245.60000000000002" y="755.0" type="curve" smooth="yes"/>
      <point x="-271.0" y="755.0"/>
      <point x="-327.4" y="780.4"/>
      <point x="-383.8" y="780.4" type="curve" smooth="yes"/>
      <point x="-470.6" y="780.4"/>
      <point x="-511.00000000000006" y="737.6"/>
      <point x="-511.00000000000006" y="645.4000000000001" type="curve" smooth="yes"/>
      <point x="-511.00000000000006" y="630.4"/>
      <point x="-510.6" y="613.4"/>
    </contour>
  </outline>
</glyph>
<glyph name="uni0304" format="2">
  <unicode hex="0304"/>
  <anchor x="-306.79999999999995" y="770.4" name="top"/>
  <anchor x="-306.79999999999995" y="550.0" name="_top"/>
  <outline>
    <contour>
      <point x="-469.80000000000007" y="602.4" type="line"/>
      <point x="-143.8" y="602.4" type="line"/>
      <point x="-143.8" y="758.4" type="line"/>
      <point x="-469.80000000000007" y="758.4" type="line"/>
    </contour>
  </outline>
</glyph>
<glyph name="uni0306" format="2">
  <unicode hex="0306"/>
  <anchor x="-306.79999999999995" y="766.0" name="top"/>
  <anchor x="-306.79999999999995" y="550.0" name="_top"/>
  <outline>
    <contour>
      <point x="-306.2" y="598.4000000000001" type="curve" smooth="yes"/>
      <point x="-162.2" y="598.4000000000001"/>
      <point x="-110.20000000000002" y="634.1999999999999"/>
      <point x="-110.20000000000002" y="751.4000000000001" type="curve" smooth="yes"/>
      <point x="-110.2" y="760.4"/>
      <point x="-110.19999999999999" y="770.4"/>
      <point x="-111.20000000000002" y="780.4" type="curve"/>
      <point x="-226.8" y="780.4" type="line"/>
      <point x="-226.8" y="778.4"/>
      <point x="-226.8" y="777.4"/>
      <point x="-226.8" y="775.4000000000001" type="curve" smooth="yes"/>
      <point x="-226.8" y="756.4"/>
      <point x="-230.39999999999998" y="733.4"/>
      <point x="-306.2" y="733.4" type="curve" smooth="yes"/>
      <point x="-382.59999999999997" y="733.4"/>
      <point x="-386.2" y="756.4"/>
      <point x="-386.20000000000005" y="775.4" type="curve" smooth="yes"/>
      <point x="-386.2" y="777.4"/>
      <point x="-386.2" y="778.4"/>
      <point x="-386.20000000000005" y="780.4" type="curve"/>
      <point x="-502.4" y="780.4" type="line"/>
      <point x="-503.40000000000003" y="770.4"/>
      <point x="-503.4" y="760.4"/>
      <point x="-503.40000000000003" y="751.4" type="curve" smooth="yes"/>
      <point x="-503.4" y="623.4"/>
      <point x="-437.0" y="598.4000000000001"/>
    </contour>
  </outline>
</glyph>
<glyph name="uni0307" format="2">
  <unicode hex="0307"/>
  <anchor x="-306.79999999999995" y="757.4" name="top"/>
  <anchor x="-306.79999999999995" y="550.0" name="_top"/>
  <outline>
    <contour>
      <point x="-306.79999999999995" y="588.2" type="curve" smooth="yes"/>
      <point x="-247.60000000000002" y="588.2"/>
      <point x="-216.8" y="612.8"/>
      <point x="-216.8" y="682.8" type="curve" smooth="yes"/>
      <point x="-216.8" y="753.2"/>
      <point x="-247.60000000000002" y="778.2"/>
      <point x="-306.79999999999995" y="778.2" type="curve" smooth="yes"/>
      <point x="-366.0" y="778.2"/>
      <point x="-396.80000000000007" y="753.2"/>
      <point x="-396.80000000000007" y="682.8" type="curve" smooth="yes"/>
      <point x="-396.80000000000007" y="612.8"/>
      <point x="-366.0" y="588.2"/>
    </contour>
  </outline>
</glyph>
<glyph name="uni0308" format="2">
  <unicode hex="0308"/>
  <anchor x="-306.79999999999995" y="757.4" name="top"/>
  <anchor x="-306.79999999999995" y="550.0" name="_top"/>
  <outline>
    <contour>
      <point x="-202.6" y="587.4" type="curve" smooth="yes"/>
      <point x="-143.40000000000003" y="587.4"/>
      <point x="-113.19999999999999" y="611.4"/>
      <point x="-113.19999999999999" y="681.4" type="curve" smooth="yes"/>
      <point x="-113.19999999999999" y="752.4"/>
      <point x="-143.40000000000003" y="777.4"/>
      <point x="-202.6" y="777.4" type="curve" smooth="yes"/>
      <point x="-261.8" y="777.4"/>
      <point x="-292.6" y="752.4"/>
      <point x="-292.6" y="681.4" type="curve" smooth="yes"/>
      <point x="-292.6" y="611.4"/>
      <point x="-261.8" y="587.4"/>
    </contour>
    <contour>
      <point x="-411.0" y="587.4" type="curve" smooth="yes"/>
      <point x="-351.80000000000007" y="587.4"/>
      <point x="-321.0" y="611.4"/>
      <point x="-321.0" y="681.4" type="curve" smooth="yes"/>
      <point x="-321.0" y="752.4"/>
      <point x="-351.80000000000007" y="777.4"/>
      <point x="-411.0" y="777.4" type="curve" smooth="yes"/>
      <point x="-470.19999999999993" y="777.4"/>
      <point x="-500.40000000000003" y="752.4"/>
      <point x="-500.40000000000003" y="681.4" type="curve" smooth="yes"/>
      <point x="-500.40000000000003" y="611.4"/>
      <point x="-470.19999999999993" y="587.4"/>
    </contour>
  </outline>
</glyph>
<glyph name="hookabovecomb" format="2">
  <unicode hex="0309"/>
  <anchor x="-325" y="807" name="top"/>
  <anchor x="-307" y="550" name="_top"/>
  <outline>
    <contour>
      <point x="-366" y="587" type="line"/>
      <point x="-239" y="600"/>
      <point x="-188" y="646"/>
      <point x="-188" y="709" type="curve" smooth="yes"/>
      <point x="-188" y="785"/>
      <point x="-241" y="810"/>
      <point x="-326" y="810" type="curve" smooth="yes"/>
      <point x="-359" y="810"/>
      <point x="-404" y="804"/>
      <point x="-427" y="799" type="curve"/>
      <point x="-427" y="698" type="line"/>
      <point x="-407" y="701"/>
      <point x="-394" y="703"/>
      <point x="-374" y="703" type="curve" smooth="yes"/>
      <point x="-345" y="703"/>
      <point x="-329" y="696"/>
      <point x="-329" y="682" type="curve" smooth="yes"/>
      <point x="-329" y="670"/>
      <point x="-340" y="662"/>
      <point x="-377" y="657" type="curve"/>
    </contour>
  </outline>
</glyph>
<glyph name="uni030A" format="2">
  <unicode hex="030A"/>
  <anchor x="-306.79999999999995" y="786.4" name="top"/>
  <anchor x="-306.79999999999995" y="550.0" name="_top"/>
  <outline>
    <contour>
      <point x="-306.79999999999995" y="586.0" type="curve" smooth="yes"/>
      <point x="-220.39999999999998" y="586.0"/>
      <point x="-173.4" y="624.6"/>
      <point x="-173.4" y="693.0" type="curve" smooth="yes"/>
      <point x="-173.4" y="761.4"/>
      <point x="-220.39999999999998" y="800.0"/>
      <point x="-306.79999999999995" y="800.0" type="curve" smooth="yes"/>
      <point x="-393.2" y="800.0"/>
      <point x="-440.2" y="761.4"/>
      <point x="-440.2" y="693.0" type="curve" smooth="yes"/>
      <point x="-440.2" y="624.6"/>
      <point x="-393.2" y="586.0"/>
    </contour>
    <contour>
      <point x="-306.79999999999995" y="671.1999999999999" type="curve" smooth="yes"/>
      <point x="-322.0" y="671.1999999999999"/>
      <point x="-330.0" y="678.0"/>
      <point x="-330.0" y="693.0" type="curve" smooth="yes"/>
      <point x="-330.0" y="708.0"/>
      <point x="-322.0" y="714.8000000000001"/>
      <point x="-306.79999999999995" y="714.8000000000001" type="curve" smooth="yes"/>
      <point x="-291.6" y="714.8000000000001"/>
      <point x="-283.59999999999997" y="708.0"/>
      <point x="-283.59999999999997" y="693.0" type="curve" smooth="yes"/>
      <point x="-283.59999999999997" y="678.0"/>
      <point x="-291.6" y="671.1999999999999"/>
    </contour>
  </outline>
</glyph>
<glyph name="uni030B" format="2">
  <unicode hex="030B"/>
  <anchor x="-258.20000000000005" y="789.4" name="top"/>
  <anchor x="-306.79999999999995" y="550.0" name="_top"/>
  <outline>
    <contour>
      <point x="-271.20000000000005" y="595.4" type="line"/>
      <point x="-114.2" y="595.4" type="line"/>
      <point x="-18.200000000000003" y="789.4" type="line"/>
      <point x="-222.20000000000002" y="789.4" type="line"/>
    </contour>
    <contour>
      <point x="-498.59999999999997" y="595.4" type="line"/>
      <point x="-341.6" y="595.4" type="line"/>
      <point x="-245.6" y="789.4" type="line"/>
      <point x="-449.59999999999997" y="789.4" type="line"/>
    </contour>
  </outline>
</glyph>
<glyph name="uni030F" format="2">
  <unicode hex="030F"/>
  <anchor x="-352.20000000000005" y="789.4" name="top"/>
  <anchor x="-306.79999999999995" y="550.0" name="_top"/>
  <outline>
    <contour>
      <point x="-496.20000000000005" y="595.4" type="line"/>
      <point x="-339.20000000000005" y="595.4" type="line"/>
      <point x="-388.2" y="789.4" type="line"/>
      <point x="-592.2" y="789.4" type="line"/>
    </contour>
    <contour>
      <point x="-268.8" y="595.4" type="line"/>
      <point x="-111.80000000000001" y="595.4" type="line"/>
      <point x="-160.8" y="789.4" type="line"/>
      <point x="-364.80000000000007" y="789.4" type="line"/>
    </contour>
  </outline>
</glyph>
<glyph name="uni0312" format="2">
  <unicode hex="0312"/>
  <anchor x="-306.79999999999995" y="550.0" name="_top"/>
  <outline>
    <contour>
      <point x="-202.8" y="593.2" type="line"/>
      <point x="-209.80000000000004" y="605.6"/>
      <point x="-213.60000000000002" y="625.0"/>
      <point x="-213.60000000000002" y="644.4" type="curve" smooth="yes"/>
      <point x="-213.60000000000002" y="682.4"/>
      <point x="-205.4" y="719.4"/>
      <point x="-180.00000000000003" y="759.4" type="curve"/>
      <point x="-353.0" y="759.4" type="line"/>
      <point x="-396.20000000000005" y="724.4"/>
      <point x="-421.6" y="678.4"/>
      <point x="-421.6" y="624.4" type="curve" smooth="yes"/>
      <point x="-421.6" y="614.0"/>
      <point x="-419.6" y="603.6"/>
      <point x="-414.8" y="593.2" type="curve"/>
    </contour>
  </outline>
</glyph>
<glyph name="uni031B" format="2">
  <unicode hex="031B"/>
  <anchor x="-157" y="550" name="_topright"/>
  <anchor x="7" y="655" name="topright"/>
  <outline>
    <contour>
      <point x="-259" y="412" type="line"/>
      <point x="-229" y="412" type="line"/>
      <point x="-65" y="412"/>
      <point x="6" y="485"/>
      <point x="-13" y="655" type="curve"/>
      <point x="-201" y="655" type="line"/>
      <point x="-196" y="569"/>
      <point x="-209" y="550"/>
      <point x="-249" y="550" type="curve"/>
      <point x="-259" y="550" type="line"/>
    </contour>
  </outline>
</glyph>
<glyph name="uni0326" format="2">
  <unicode hex="0326"/>
  <anchor x="-306.4" y="0.0" name="_bottom"/>
  <outline>
    <contour>
      <point x="-440.79999999999995" y="-207.6" type="curve"/>
      <point x="-268.4" y="-207.6" type="line"/>
      <point x="-229.4" y="-174.4"/>
      <point x="-196.79999999999995" y="-119.2"/>
      <point x="-196.79999999999995" y="-61.0" type="curve" smooth="yes"/>
      <point x="-196.79999999999995" y="-54.6"/>
      <point x="-197.6" y="-48.2"/>
      <point x="-199.60000000000002" y="-41.8" type="curve"/>
      <point x="-409.0" y="-41.8" type="line"/>
      <point x="-406.8" y="-52.199999999999996"/>
      <point x="-405.4" y="-63.599999999999994"/>
      <point x="-405.4" y="-78.2" type="curve" smooth="yes"/>
      <point x="-405.4" y="-118.2"/>
      <point x="-416.79999999999995" y="-167.0"/>
    </contour>
  </outline>
</glyph>
<glyph name="uni0327" format="2">
  <unicode hex="0327"/>
  <anchor x="-306.4" y="0.0" name="_bottom"/>
  <anchor x="-317.8" y="-220.0" name="bottom"/>
  <outline>
    <contour>
      <point x="-438.20000000000005" y="-78.2" type="curve"/>
      <point x="-440.0" y="-209.20000000000002" type="line"/>
      <point x="-408.0" y="-217.2"/>
      <point x="-380.2" y="-220.0"/>
      <point x="-353.4" y="-220.0" type="curve" smooth="yes"/>
      <point x="-239.99999999999997" y="-220.0"/>
      <point x="-201.00000000000003" y="-161.60000000000002"/>
      <point x="-201.00000000000003" y="-92.4" type="curve" smooth="yes"/>
      <point x="-201.00000000000003" y="-60.39999999999999"/>
      <point x="-213.79999999999998" y="-15.2"/>
      <point x="-226.39999999999998" y="7.6" type="curve"/>
      <point x="-383.6" y="7.6" type="line"/>
      <point x="-371.2" y="-6.999999999999999"/>
      <point x="-362.79999999999995" y="-31.8"/>
      <point x="-362.79999999999995" y="-45.6" type="curve" smooth="yes"/>
      <point x="-362.79999999999995" y="-69.6"/>
      <point x="-379.8" y="-81.39999999999999"/>
      <point x="-406.59999999999997" y="-81.39999999999999" type="curve" smooth="yes"/>
      <point x="-414.8" y="-81.39999999999999"/>
      <point x="-425.8" y="-80.4"/>
    </contour>
  </outline>
</glyph>
<glyph name="uni0328" format="2">
  <unicode hex="0328"/>
  <anchor x="-214.2" y="0.0" name="_ogonek"/>
  <outline>
    <contour>
      <point x="-300.2" y="-220.0" type="curve" smooth="yes"/>
      <point x="-260.59999999999997" y="-220.0"/>
      <point x="-233.0" y="-216.0"/>
      <point x="-211.39999999999998" y="-208.0" type="curve"/>
      <point x="-218.60000000000002" y="-70.2" type="line"/>
      <point x="-222.79999999999998" y="-71.2"/>
      <point x="-228.59999999999997" y="-72.2"/>
      <point x="-236.4" y="-72.2" type="curve" smooth="yes"/>
      <point x="-255.8" y="-72.2"/>
      <point x="-267.4" y="-63.6"/>
      <point x="-267.4" y="-47.2" type="curve" smooth="yes"/>
      <point x="-267.4" y="-28.2"/>
      <point x="-254.60000000000002" y="-16.4"/>
      <point x="-214.2" y="0.0" type="curve"/>
      <point x="-336.2" y="12.4" type="line"/>
      <point x="-389.2" y="-3.0"/>
      <point x="-437.2" y="-47.199999999999996"/>
      <point x="-437.2" y="-109.2" type="curve" smooth="yes"/>
      <point x="-437.2" y="-178.6"/>
      <point x="-385.2" y="-220.0"/>
    </contour>
  </outline>
</glyph>
<glyph name="uni0335" format="2">
  <unicode hex="0335"/>
  <anchor x="-157.0" y="350.0" name="_center"/>
  <outline>
    <contour>
      <point x="-375.6" y="266.0" type="line"/>
      <point x="61.0" y="266.0" type="line"/>
      <point x="61.0" y="434.0" type="line"/>
      <point x="-375.6" y="434.0" type="line"/>
    </contour>
  </outline>
</glyph>
<glyph name="pi" format="2">
  <advance width="605.8"/>
  <unicode hex="03C0"/>
  <outline>
    <contour>
      <point x="461.5999999999999" y="-10.0" type="curve" smooth="yes"/>
      <point x="513.1999999999999" y="-10.0"/>
      <point x="555.0" y="3.6"/>
      <point x="586.1999999999999" y="23.8" type="curve"/>
      <point x="570.0" y="191.79999999999998" type="line"/>
      <point x="564.6" y="189.6"/>
      <point x="555.4" y="189.0"/>
      <point x="549.8" y="189.0" type="curve" smooth="yes"/>
      <point x="535.5999999999999" y="189.0"/>
      <point x="533.8" y="207.79999999999998"/>
      <point x="533.8" y="228.8" type="curve" smooth="yes"/>
      <point x="533.8" y="343.4" type="line"/>
      <point x="581.2" y="343.4" type="line"/>
      <point x="581.2" y="550.0" type="line"/>
      <point x="182.0" y="550.0" type="line" smooth="yes"/>
      <point x="106.19999999999999" y="550.0"/>
      <point x="68.6" y="537.2"/>
      <point x="31.200000000000003" y="508.0" type="curve"/>
      <point x="26.400000000000006" y="319.0" type="line"/>
      <point x="39.599999999999994" y="328.6"/>
      <point x="67.6" y="335.4"/>
      <point x="91.19999999999999" y="339.0" type="curve"/>
      <point x="74.19999999999999" y="226.2"/>
      <point x="56.60000000000001" y="112.8"/>
      <point x="39.60000000000001" y="0.0" type="curve"/>
      <point x="257.2" y="0.0" type="line"/>
      <point x="270.0" y="113.4"/>
      <point x="282.8" y="220.6"/>
      <point x="297.0" y="343.4" type="curve"/>
      <point x="322.4" y="343.4" type="line"/>
      <point x="322.4" y="158.0" type="line" smooth="yes"/>
      <point x="322.4" y="39.8"/>
      <point x="358.80000000000007" y="-10.0"/>
    </contour>
  </outline>
</glyph>
<glyph name="endash" format="2">
  <advance width="452.59999999999997"/>
  <unicode hex="2013"/>
  <outline>
    <contour>
      <point x="20.0" y="234.0" type="line"/>
      <point x="432.6" y="234.0" type="line"/>
      <point x="432.6" y="402.0" type="line"/>
      <point x="20.0" y="402.0" type="line"/>
    </contour>
  </outline>
</glyph>
